%TF.GenerationSoftware,KiCad,Pcbnew,(6.0.8)*%
%TF.CreationDate,2022-12-02T21:09:01+01:00*%
%TF.ProjectId,mcudev,6d637564-6576-42e6-9b69-6361645f7063,rev?*%
%TF.SameCoordinates,Original*%
%TF.FileFunction,Copper,L1,Top*%
%TF.FilePolarity,Positive*%
%FSLAX46Y46*%
G04 Gerber Fmt 4.6, Leading zero omitted, Abs format (unit mm)*
G04 Created by KiCad (PCBNEW (6.0.8)) date 2022-12-02 21:09:01*
%MOMM*%
%LPD*%
G01*
G04 APERTURE LIST*
G04 Aperture macros list*
%AMRoundRect*
0 Rectangle with rounded corners*
0 $1 Rounding radius*
0 $2 $3 $4 $5 $6 $7 $8 $9 X,Y pos of 4 corners*
0 Add a 4 corners polygon primitive as box body*
4,1,4,$2,$3,$4,$5,$6,$7,$8,$9,$2,$3,0*
0 Add four circle primitives for the rounded corners*
1,1,$1+$1,$2,$3*
1,1,$1+$1,$4,$5*
1,1,$1+$1,$6,$7*
1,1,$1+$1,$8,$9*
0 Add four rect primitives between the rounded corners*
20,1,$1+$1,$2,$3,$4,$5,0*
20,1,$1+$1,$4,$5,$6,$7,0*
20,1,$1+$1,$6,$7,$8,$9,0*
20,1,$1+$1,$8,$9,$2,$3,0*%
G04 Aperture macros list end*
%TA.AperFunction,ComponentPad*%
%ADD10C,4.400000*%
%TD*%
%TA.AperFunction,ComponentPad*%
%ADD11C,0.700000*%
%TD*%
%TA.AperFunction,SMDPad,CuDef*%
%ADD12RoundRect,0.225000X-0.250000X0.225000X-0.250000X-0.225000X0.250000X-0.225000X0.250000X0.225000X0*%
%TD*%
%TA.AperFunction,SMDPad,CuDef*%
%ADD13RoundRect,0.200000X-0.275000X0.200000X-0.275000X-0.200000X0.275000X-0.200000X0.275000X0.200000X0*%
%TD*%
%TA.AperFunction,SMDPad,CuDef*%
%ADD14R,3.600000X2.700000*%
%TD*%
%TA.AperFunction,SMDPad,CuDef*%
%ADD15R,2.800000X1.000000*%
%TD*%
%TA.AperFunction,SMDPad,CuDef*%
%ADD16RoundRect,0.140000X0.170000X-0.140000X0.170000X0.140000X-0.170000X0.140000X-0.170000X-0.140000X0*%
%TD*%
%TA.AperFunction,SMDPad,CuDef*%
%ADD17RoundRect,0.147500X0.172500X-0.147500X0.172500X0.147500X-0.172500X0.147500X-0.172500X-0.147500X0*%
%TD*%
%TA.AperFunction,SMDPad,CuDef*%
%ADD18RoundRect,0.250000X-0.262500X-0.450000X0.262500X-0.450000X0.262500X0.450000X-0.262500X0.450000X0*%
%TD*%
%TA.AperFunction,ComponentPad*%
%ADD19C,0.800000*%
%TD*%
%TA.AperFunction,ComponentPad*%
%ADD20C,5.000000*%
%TD*%
%TA.AperFunction,ComponentPad*%
%ADD21R,1.700000X1.700000*%
%TD*%
%TA.AperFunction,ComponentPad*%
%ADD22O,1.700000X1.700000*%
%TD*%
%TA.AperFunction,SMDPad,CuDef*%
%ADD23RoundRect,0.140000X0.140000X0.170000X-0.140000X0.170000X-0.140000X-0.170000X0.140000X-0.170000X0*%
%TD*%
%TA.AperFunction,SMDPad,CuDef*%
%ADD24RoundRect,0.150000X0.150000X-0.587500X0.150000X0.587500X-0.150000X0.587500X-0.150000X-0.587500X0*%
%TD*%
%TA.AperFunction,SMDPad,CuDef*%
%ADD25R,2.400000X2.000000*%
%TD*%
%TA.AperFunction,SMDPad,CuDef*%
%ADD26R,1.800000X2.500000*%
%TD*%
%TA.AperFunction,SMDPad,CuDef*%
%ADD27RoundRect,0.200000X0.275000X-0.200000X0.275000X0.200000X-0.275000X0.200000X-0.275000X-0.200000X0*%
%TD*%
%TA.AperFunction,SMDPad,CuDef*%
%ADD28RoundRect,0.135000X0.135000X0.185000X-0.135000X0.185000X-0.135000X-0.185000X0.135000X-0.185000X0*%
%TD*%
%TA.AperFunction,SMDPad,CuDef*%
%ADD29RoundRect,0.250000X-0.475000X0.250000X-0.475000X-0.250000X0.475000X-0.250000X0.475000X0.250000X0*%
%TD*%
%TA.AperFunction,SMDPad,CuDef*%
%ADD30RoundRect,0.250000X0.450000X-0.262500X0.450000X0.262500X-0.450000X0.262500X-0.450000X-0.262500X0*%
%TD*%
%TA.AperFunction,SMDPad,CuDef*%
%ADD31RoundRect,0.140000X-0.170000X0.140000X-0.170000X-0.140000X0.170000X-0.140000X0.170000X0.140000X0*%
%TD*%
%TA.AperFunction,SMDPad,CuDef*%
%ADD32RoundRect,0.250000X1.025000X-0.787500X1.025000X0.787500X-1.025000X0.787500X-1.025000X-0.787500X0*%
%TD*%
%TA.AperFunction,SMDPad,CuDef*%
%ADD33RoundRect,0.075000X-0.521491X0.415425X0.415425X-0.521491X0.521491X-0.415425X-0.415425X0.521491X0*%
%TD*%
%TA.AperFunction,SMDPad,CuDef*%
%ADD34RoundRect,0.075000X-0.521491X-0.415425X-0.415425X-0.521491X0.521491X0.415425X0.415425X0.521491X0*%
%TD*%
%TA.AperFunction,SMDPad,CuDef*%
%ADD35R,0.600000X1.550000*%
%TD*%
%TA.AperFunction,ComponentPad*%
%ADD36C,0.600000*%
%TD*%
%TA.AperFunction,SMDPad,CuDef*%
%ADD37R,4.500000X2.950000*%
%TD*%
%TA.AperFunction,SMDPad,CuDef*%
%ADD38R,3.100000X2.600000*%
%TD*%
%TA.AperFunction,SMDPad,CuDef*%
%ADD39RoundRect,0.218750X0.256250X-0.218750X0.256250X0.218750X-0.256250X0.218750X-0.256250X-0.218750X0*%
%TD*%
%TA.AperFunction,SMDPad,CuDef*%
%ADD40R,1.100000X1.700000*%
%TD*%
%TA.AperFunction,SMDPad,CuDef*%
%ADD41RoundRect,0.218750X-0.256250X0.218750X-0.256250X-0.218750X0.256250X-0.218750X0.256250X0.218750X0*%
%TD*%
%TA.AperFunction,SMDPad,CuDef*%
%ADD42RoundRect,0.250000X0.250000X0.475000X-0.250000X0.475000X-0.250000X-0.475000X0.250000X-0.475000X0*%
%TD*%
%TA.AperFunction,ViaPad*%
%ADD43C,0.700000*%
%TD*%
%TA.AperFunction,ViaPad*%
%ADD44C,0.800000*%
%TD*%
%TA.AperFunction,Conductor*%
%ADD45C,0.300000*%
%TD*%
%TA.AperFunction,Conductor*%
%ADD46C,0.600000*%
%TD*%
G04 APERTURE END LIST*
D10*
%TO.P,H3,1*%
%TO.N,N/C*%
X125600000Y-56600000D03*
D11*
X123950000Y-56600000D03*
X127250000Y-56600000D03*
X124433274Y-55433274D03*
X125600000Y-58250000D03*
X126766726Y-57766726D03*
X126766726Y-55433274D03*
X125600000Y-54950000D03*
X124433274Y-57766726D03*
%TD*%
D12*
%TO.P,U1,1*%
%TO.N,+3.3V*%
X138300000Y-87275000D03*
%TO.P,U1,2*%
%TO.N,GND*%
X138300000Y-88825000D03*
%TD*%
D13*
%TO.P,R6,1*%
%TO.N,Net-(R6-Pad1)*%
X136087500Y-91265000D03*
%TO.P,R6,2*%
%TO.N,Net-(R6-Pad2)*%
X136087500Y-92915000D03*
%TD*%
D14*
%TO.P,L1,1,1*%
%TO.N,Net-(D3-Pad1)*%
X134863333Y-62050000D03*
%TO.P,L1,2,2*%
%TO.N,+3.3V*%
X134863333Y-70350000D03*
%TD*%
D15*
%TO.P,SW1,1,1*%
%TO.N,NRST*%
X150741666Y-98800000D03*
X144941666Y-98800000D03*
%TO.P,SW1,2,2*%
%TO.N,GND*%
X144941666Y-102800000D03*
X150741666Y-102800000D03*
%TD*%
D16*
%TO.P,U11,1*%
%TO.N,Net-(R6-Pad2)*%
X139012500Y-93140000D03*
%TO.P,U11,2*%
%TO.N,GND*%
X139012500Y-92180000D03*
%TD*%
D17*
%TO.P,F1,1*%
%TO.N,+12V*%
X144240000Y-57395000D03*
%TO.P,F1,2*%
%TO.N,Net-(F1-Pad2)*%
X144240000Y-56425000D03*
%TD*%
D18*
%TO.P,R10,1*%
%TO.N,feedback*%
X150095000Y-70270000D03*
%TO.P,R10,2*%
%TO.N,Net-(R10-Pad2)*%
X151920000Y-70270000D03*
%TD*%
D15*
%TO.P,SW2,1,1*%
%TO.N,Net-(R6-Pad2)*%
X130470000Y-102810000D03*
X136270000Y-102810000D03*
%TO.P,SW2,2,2*%
%TO.N,+3.3V*%
X136270000Y-98810000D03*
X130470000Y-98810000D03*
%TD*%
D13*
%TO.P,R1,1*%
%TO.N,LED2*%
X143615000Y-91265000D03*
%TO.P,R1,2*%
%TO.N,Net-(D1-Pad2)*%
X143615000Y-92915000D03*
%TD*%
D19*
%TO.P,H2,1*%
%TO.N,N/C*%
X156485825Y-102814175D03*
X155160000Y-106015000D03*
X157035000Y-104140000D03*
X153834175Y-102814175D03*
X156485825Y-105465825D03*
X153285000Y-104140000D03*
X155160000Y-102265000D03*
D20*
X155160000Y-104140000D03*
D19*
X153834175Y-105465825D03*
%TD*%
D13*
%TO.P,R2,1*%
%TO.N,LED1*%
X142017500Y-91265000D03*
%TO.P,R2,2*%
%TO.N,Net-(D2-Pad2)*%
X142017500Y-92915000D03*
%TD*%
D21*
%TO.P,J1,1,Pin_1*%
%TO.N,GND*%
X155900000Y-95300000D03*
D22*
%TO.P,J1,2,Pin_2*%
%TO.N,SWDIO*%
X155900000Y-92760000D03*
%TO.P,J1,3,Pin_3*%
%TO.N,NRST*%
X155900000Y-90220000D03*
%TO.P,J1,4,Pin_4*%
%TO.N,SWDCLK*%
X155900000Y-87680000D03*
%TO.P,J1,5,Pin_5*%
%TO.N,SIM_RESET*%
X155900000Y-85140000D03*
%TO.P,J1,6,Pin_6*%
%TO.N,SIM_RX*%
X155900000Y-82600000D03*
%TO.P,J1,7,Pin_7*%
%TO.N,SIM_TX*%
X155900000Y-80060000D03*
%TO.P,J1,8,Pin_8*%
%TO.N,SIM_PWRKEY*%
X155900000Y-77520000D03*
%TD*%
D23*
%TO.P,U8,1*%
%TO.N,/HSE_IN*%
X131900000Y-72800000D03*
%TO.P,U8,2*%
%TO.N,GND*%
X130940000Y-72800000D03*
%TD*%
D24*
%TO.P,Q1,1,G*%
%TO.N,GND*%
X145655000Y-59275000D03*
%TO.P,Q1,2,S*%
%TO.N,Net-(Q1-Pad2)*%
X147555000Y-59275000D03*
%TO.P,Q1,3,D*%
%TO.N,Net-(F1-Pad2)*%
X146605000Y-57400000D03*
%TD*%
D19*
%TO.P,H1,1*%
%TO.N,N/C*%
X125870000Y-102245000D03*
X125870000Y-105995000D03*
X127195825Y-102794175D03*
X127195825Y-105445825D03*
X124544175Y-105445825D03*
X124544175Y-102794175D03*
X123995000Y-104120000D03*
D20*
X125870000Y-104120000D03*
D19*
X127745000Y-104120000D03*
%TD*%
D25*
%TO.P,U7,1,1*%
%TO.N,/HSE_IN*%
X131900000Y-74750000D03*
%TO.P,U7,2,2*%
%TO.N,/HSE_OUT*%
X131900000Y-78450000D03*
%TD*%
D21*
%TO.P,J2,1,Pin_1*%
%TO.N,GND*%
X125100000Y-95300000D03*
D22*
%TO.P,J2,2,Pin_2*%
%TO.N,PA7{slash}SPI1_MOSI*%
X125100000Y-92760000D03*
%TO.P,J2,3,Pin_3*%
%TO.N,PA6{slash}SPI1_MISO*%
X125100000Y-90220000D03*
%TO.P,J2,4,Pin_4*%
%TO.N,PA5{slash}SPI1_CLK*%
X125100000Y-87680000D03*
%TO.P,J2,5,Pin_5*%
%TO.N,PA4*%
X125100000Y-85140000D03*
%TO.P,J2,6,Pin_6*%
%TO.N,USART2_RX*%
X125100000Y-82600000D03*
%TO.P,J2,7,Pin_7*%
%TO.N,USART2_TX*%
X125100000Y-80060000D03*
%TO.P,J2,8,Pin_8*%
%TO.N,+3.3V*%
X125100000Y-77520000D03*
%TD*%
D16*
%TO.P,U6,1*%
%TO.N,NRST*%
X146620000Y-93140000D03*
%TO.P,U6,2*%
%TO.N,GND*%
X146620000Y-92180000D03*
%TD*%
D18*
%TO.P,R9,1*%
%TO.N,+3.3V*%
X146514583Y-70270000D03*
%TO.P,R9,2*%
%TO.N,feedback*%
X148339583Y-70270000D03*
%TD*%
D26*
%TO.P,D3,1,K*%
%TO.N,Net-(D3-Pad1)*%
X142876666Y-67410000D03*
%TO.P,D3,2,A*%
%TO.N,GND*%
X142876666Y-63410000D03*
%TD*%
D16*
%TO.P,U3,1*%
%TO.N,+3.3V*%
X134800000Y-77780000D03*
%TO.P,U3,2*%
%TO.N,GND*%
X134800000Y-76820000D03*
%TD*%
D27*
%TO.P,R7,1*%
%TO.N,Net-(R6-Pad2)*%
X137685000Y-92915000D03*
%TO.P,R7,2*%
%TO.N,GND*%
X137685000Y-91265000D03*
%TD*%
%TO.P,R8,1*%
%TO.N,+3.3V*%
X134700000Y-58225000D03*
%TO.P,R8,2*%
%TO.N,Net-(D4-Pad2)*%
X134700000Y-56575000D03*
%TD*%
D16*
%TO.P,U2,1*%
%TO.N,+3.3V*%
X142200000Y-73980000D03*
%TO.P,U2,2*%
%TO.N,GND*%
X142200000Y-73020000D03*
%TD*%
D28*
%TO.P,R3,1*%
%TO.N,GND*%
X145770000Y-76060000D03*
%TO.P,R3,2*%
%TO.N,/BOOT0*%
X144750000Y-76060000D03*
%TD*%
D29*
%TO.P,U15,1*%
%TO.N,Net-(F1-Pad2)*%
X150430000Y-57160000D03*
%TO.P,U15,2*%
%TO.N,GND*%
X150430000Y-59060000D03*
%TD*%
D30*
%TO.P,R11,1*%
%TO.N,Net-(R10-Pad2)*%
X152190000Y-64242500D03*
%TO.P,R11,2*%
%TO.N,GND*%
X152190000Y-62417500D03*
%TD*%
D16*
%TO.P,U5,1*%
%TO.N,+3.3V*%
X138800000Y-73980000D03*
%TO.P,U5,2*%
%TO.N,GND*%
X138800000Y-73020000D03*
%TD*%
D31*
%TO.P,U12,1*%
%TO.N,Net-(R6-Pad1)*%
X134760000Y-92180000D03*
%TO.P,U12,2*%
%TO.N,GND*%
X134760000Y-93140000D03*
%TD*%
D19*
%TO.P,H4,1*%
%TO.N,N/C*%
X156475825Y-55574175D03*
X155150000Y-58775000D03*
X153824175Y-55574175D03*
X153275000Y-56900000D03*
D20*
X155150000Y-56900000D03*
D19*
X157025000Y-56900000D03*
X153824175Y-58225825D03*
X155150000Y-55025000D03*
X156475825Y-58225825D03*
%TD*%
D32*
%TO.P,C1,1*%
%TO.N,+3.3V*%
X126200000Y-67962500D03*
%TO.P,C1,2*%
%TO.N,GND*%
X126200000Y-61737500D03*
%TD*%
D33*
%TO.P,STM32F30,1,VDD*%
%TO.N,+3.3V*%
X139494105Y-75612124D03*
%TO.P,STM32F30,2,PC13*%
%TO.N,unconnected-(STM32F30-Pad2)*%
X139140551Y-75965678D03*
%TO.P,STM32F30,3,PC14*%
%TO.N,STATUS*%
X138786998Y-76319231D03*
%TO.P,STM32F30,4,PC15*%
%TO.N,unconnected-(STM32F30-Pad4)*%
X138433444Y-76672785D03*
%TO.P,STM32F30,5,PF0*%
%TO.N,/HSE_IN*%
X138079891Y-77026338D03*
%TO.P,STM32F30,6,PF1*%
%TO.N,/HSE_OUT*%
X137726338Y-77379891D03*
%TO.P,STM32F30,7,NRST*%
%TO.N,NRST*%
X137372784Y-77733445D03*
%TO.P,STM32F30,8,VSSA*%
%TO.N,GND*%
X137019231Y-78086998D03*
%TO.P,STM32F30,9,VDDA*%
%TO.N,+3.3V*%
X136665678Y-78440551D03*
%TO.P,STM32F30,10,PA0*%
%TO.N,unconnected-(STM32F30-Pad10)*%
X136312124Y-78794105D03*
%TO.P,STM32F30,11,PA1*%
%TO.N,unconnected-(STM32F30-Pad11)*%
X135958571Y-79147658D03*
%TO.P,STM32F30,12,PA2*%
%TO.N,USART2_TX*%
X135605017Y-79501212D03*
D34*
%TO.P,STM32F30,13,PA3*%
%TO.N,USART2_RX*%
X135605017Y-81498788D03*
%TO.P,STM32F30,14,PA4*%
%TO.N,PA4*%
X135958571Y-81852342D03*
%TO.P,STM32F30,15,PA5*%
%TO.N,PA5{slash}SPI1_CLK*%
X136312124Y-82205895D03*
%TO.P,STM32F30,16,PA6*%
%TO.N,PA6{slash}SPI1_MISO*%
X136665678Y-82559449D03*
%TO.P,STM32F30,17,PA7*%
%TO.N,PA7{slash}SPI1_MOSI*%
X137019231Y-82913002D03*
%TO.P,STM32F30,18,PB0*%
%TO.N,unconnected-(STM32F30-Pad18)*%
X137372784Y-83266555D03*
%TO.P,STM32F30,19,PB1*%
%TO.N,unconnected-(STM32F30-Pad19)*%
X137726338Y-83620109D03*
%TO.P,STM32F30,20,PB2*%
%TO.N,unconnected-(STM32F30-Pad20)*%
X138079891Y-83973662D03*
%TO.P,STM32F30,21,PB10*%
%TO.N,unconnected-(STM32F30-Pad21)*%
X138433444Y-84327215D03*
%TO.P,STM32F30,22,PB11*%
%TO.N,Net-(R6-Pad1)*%
X138786998Y-84680769D03*
%TO.P,STM32F30,23,VSS*%
%TO.N,GND*%
X139140551Y-85034322D03*
%TO.P,STM32F30,24,VDD*%
%TO.N,+3.3V*%
X139494105Y-85387876D03*
D33*
%TO.P,STM32F30,25,PB12*%
%TO.N,LED1*%
X141491681Y-85387876D03*
%TO.P,STM32F30,26,PB13*%
%TO.N,LED2*%
X141845235Y-85034322D03*
%TO.P,STM32F30,27,PB14*%
%TO.N,unconnected-(STM32F30-Pad27)*%
X142198788Y-84680769D03*
%TO.P,STM32F30,28,PB15*%
%TO.N,unconnected-(STM32F30-Pad28)*%
X142552342Y-84327215D03*
%TO.P,STM32F30,29,PA8*%
%TO.N,unconnected-(STM32F30-Pad29)*%
X142905895Y-83973662D03*
%TO.P,STM32F30,30,PA9*%
%TO.N,SIM_RX*%
X143259448Y-83620109D03*
%TO.P,STM32F30,31,PA10*%
%TO.N,SIM_TX*%
X143613002Y-83266555D03*
%TO.P,STM32F30,32,PA11*%
%TO.N,unconnected-(STM32F30-Pad32)*%
X143966555Y-82913002D03*
%TO.P,STM32F30,33,PA12*%
%TO.N,unconnected-(STM32F30-Pad33)*%
X144320108Y-82559449D03*
%TO.P,STM32F30,34,PA13*%
%TO.N,SWDIO*%
X144673662Y-82205895D03*
%TO.P,STM32F30,35,PF6*%
%TO.N,unconnected-(STM32F30-Pad35)*%
X145027215Y-81852342D03*
%TO.P,STM32F30,36,PF7*%
%TO.N,SIM_RESET*%
X145380769Y-81498788D03*
D34*
%TO.P,STM32F30,37,PA14*%
%TO.N,SWDCLK*%
X145380769Y-79501212D03*
%TO.P,STM32F30,38,PA15*%
%TO.N,unconnected-(STM32F30-Pad38)*%
X145027215Y-79147658D03*
%TO.P,STM32F30,39,PB3*%
%TO.N,unconnected-(STM32F30-Pad39)*%
X144673662Y-78794105D03*
%TO.P,STM32F30,40,PB4*%
%TO.N,unconnected-(STM32F30-Pad40)*%
X144320108Y-78440551D03*
%TO.P,STM32F30,41,PB5*%
%TO.N,unconnected-(STM32F30-Pad41)*%
X143966555Y-78086998D03*
%TO.P,STM32F30,42,PB6*%
%TO.N,unconnected-(STM32F30-Pad42)*%
X143613002Y-77733445D03*
%TO.P,STM32F30,43,PB7*%
%TO.N,unconnected-(STM32F30-Pad43)*%
X143259448Y-77379891D03*
%TO.P,STM32F30,44,BOOT0*%
%TO.N,/BOOT0*%
X142905895Y-77026338D03*
%TO.P,STM32F30,45,PB8*%
%TO.N,unconnected-(STM32F30-Pad45)*%
X142552342Y-76672785D03*
%TO.P,STM32F30,46,PB9*%
%TO.N,SIM_PWRKEY*%
X142198788Y-76319231D03*
%TO.P,STM32F30,47,VSS*%
%TO.N,GND*%
X141845235Y-75965678D03*
%TO.P,STM32F30,48,VDD*%
%TO.N,+3.3V*%
X141491681Y-75612124D03*
%TD*%
D35*
%TO.P,U14,1,BOOT*%
%TO.N,Net-(U13-Pad1)*%
X146285000Y-67850000D03*
%TO.P,U14,2,NC*%
%TO.N,unconnected-(U14-Pad2)*%
X147555000Y-67850000D03*
%TO.P,U14,3,NC*%
%TO.N,unconnected-(U14-Pad3)*%
X148825000Y-67850000D03*
%TO.P,U14,4,VSENSE*%
%TO.N,feedback*%
X150095000Y-67850000D03*
%TO.P,U14,5,EN*%
%TO.N,unconnected-(U14-Pad5)*%
X150095000Y-62450000D03*
%TO.P,U14,6,GND*%
%TO.N,GND*%
X148825000Y-62450000D03*
%TO.P,U14,7,VIN*%
%TO.N,Net-(Q1-Pad2)*%
X147555000Y-62450000D03*
%TO.P,U14,8,PH*%
%TO.N,Net-(D3-Pad1)*%
X146285000Y-62450000D03*
D36*
%TO.P,U14,9,GNDPAD*%
%TO.N,GND*%
X148890000Y-65750000D03*
X149990000Y-65750000D03*
X147590000Y-64550000D03*
X148890000Y-64550000D03*
X146390000Y-65750000D03*
D37*
X148190000Y-65150000D03*
D36*
X149990000Y-64550000D03*
D38*
X148190000Y-65150000D03*
D36*
X147590000Y-65750000D03*
X146390000Y-64550000D03*
%TD*%
D21*
%TO.P,J4,1,Pin_1*%
%TO.N,GND*%
X139217893Y-57400000D03*
D22*
%TO.P,J4,2,Pin_2*%
%TO.N,+12V*%
X141757893Y-57400000D03*
%TD*%
D39*
%TO.P,D4,1,K*%
%TO.N,GND*%
X136400000Y-58167500D03*
%TO.P,D4,2,A*%
%TO.N,Net-(D4-Pad2)*%
X136400000Y-56592500D03*
%TD*%
D31*
%TO.P,U4,1*%
%TO.N,+3.3V*%
X139700000Y-87020000D03*
%TO.P,U4,2*%
%TO.N,GND*%
X139700000Y-87980000D03*
%TD*%
D40*
%TO.P,D5,1,K*%
%TO.N,+3.3V*%
X127900000Y-70975000D03*
%TO.P,D5,2,A*%
%TO.N,GND*%
X124500000Y-70975000D03*
%TD*%
D41*
%TO.P,D2,1,K*%
%TO.N,GND*%
X140380000Y-91302500D03*
%TO.P,D2,2,A*%
%TO.N,Net-(D2-Pad2)*%
X140380000Y-92877500D03*
%TD*%
D23*
%TO.P,U9,1*%
%TO.N,/HSE_OUT*%
X131900000Y-80400000D03*
%TO.P,U9,2*%
%TO.N,GND*%
X130940000Y-80400000D03*
%TD*%
D41*
%TO.P,D1,1,K*%
%TO.N,GND*%
X145252500Y-91302500D03*
%TO.P,D1,2,A*%
%TO.N,Net-(D1-Pad2)*%
X145252500Y-92877500D03*
%TD*%
D42*
%TO.P,U13,1*%
%TO.N,Net-(U13-Pad1)*%
X144776666Y-70240000D03*
%TO.P,U13,2*%
%TO.N,Net-(D3-Pad1)*%
X142876666Y-70240000D03*
%TD*%
D43*
%TO.N,+3.3V*%
X155570000Y-68690000D03*
D44*
%TO.N,GND*%
X130040000Y-80400000D03*
X141647220Y-102900000D03*
X130040000Y-72790000D03*
X131350000Y-95300000D03*
X140300000Y-89580000D03*
X140190000Y-77570000D03*
X149870000Y-89580000D03*
X154600000Y-99450000D03*
X140580000Y-72910500D03*
X148520000Y-89580000D03*
X145000832Y-95300000D03*
X141881666Y-95300000D03*
X139352776Y-102900000D03*
X139000000Y-80700000D03*
D43*
X132510000Y-100980000D03*
D44*
%TO.N,SIM_RESET*%
X146740000Y-82920000D03*
%TO.N,SIM_DET*%
X155780000Y-74740000D03*
X146120000Y-74770000D03*
X133200000Y-95300000D03*
X137300000Y-95300000D03*
%TO.N,SIM_PWRKEY*%
X149880000Y-73840000D03*
%TO.N,STATUS*%
X135180000Y-72690000D03*
%TO.N,SIM_RX*%
X141370000Y-82780000D03*
%TO.N,SIM_TX*%
X140570000Y-81850000D03*
%TO.N,Net-(P1-PadC2)*%
X137300000Y-96500000D03*
X134200000Y-96500000D03*
%TD*%
D45*
%TO.N,+3.3V*%
X143590000Y-73240000D02*
X143590000Y-71900000D01*
D46*
X125100000Y-77520000D02*
X127600000Y-75020000D01*
D45*
X128140000Y-80720000D02*
X128660000Y-81240000D01*
X123970000Y-98800000D02*
X123580000Y-98410000D01*
D46*
X155570000Y-68690000D02*
X155570000Y-71080000D01*
D45*
X138800000Y-73980000D02*
X138800000Y-74918019D01*
X137600000Y-79374873D02*
X136665678Y-78440551D01*
D46*
X144390000Y-71900000D02*
X143590000Y-71900000D01*
D45*
X123580000Y-98410000D02*
X123580000Y-77910000D01*
D46*
X126450000Y-70990000D02*
X126465000Y-70975000D01*
D45*
X130300000Y-59360000D02*
X130300000Y-67220000D01*
X128140000Y-75550000D02*
X128140000Y-80720000D01*
D46*
X126465000Y-70975000D02*
X127900000Y-70975000D01*
D45*
X142200000Y-73980000D02*
X142200000Y-74903805D01*
X132440000Y-81240000D02*
X129060000Y-81240000D01*
X131435000Y-58225000D02*
X130300000Y-59360000D01*
X140290991Y-84590991D02*
X140290991Y-83480991D01*
X142850000Y-73980000D02*
X143590000Y-73240000D01*
D46*
X134863333Y-70350000D02*
X139250000Y-70350000D01*
D45*
X134800000Y-77780000D02*
X136005127Y-77780000D01*
D46*
X126200000Y-67962500D02*
X126200000Y-70740000D01*
D45*
X134700000Y-58225000D02*
X131435000Y-58225000D01*
X128660000Y-81240000D02*
X129060000Y-81240000D01*
X142200000Y-74903805D02*
X141491681Y-75612124D01*
X139494105Y-85387876D02*
X140290991Y-84590991D01*
D46*
X139250000Y-70350000D02*
X140800000Y-71900000D01*
D45*
X139700000Y-87020000D02*
X139140000Y-87020000D01*
D46*
X146514583Y-70270000D02*
X146514583Y-71705417D01*
D45*
X134260000Y-77780000D02*
X133890000Y-78150000D01*
X129060000Y-81240000D02*
X128820000Y-81240000D01*
X136005127Y-77780000D02*
X136665678Y-78440551D01*
X137600000Y-80790000D02*
X137600000Y-79374873D01*
X138300000Y-87275000D02*
X138300000Y-86581981D01*
D46*
X127600000Y-75010000D02*
X127900000Y-74710000D01*
D45*
X129557500Y-67962500D02*
X126200000Y-67962500D01*
X130258333Y-98800000D02*
X136058333Y-98800000D01*
X134800000Y-77780000D02*
X134260000Y-77780000D01*
X139140000Y-87020000D02*
X138555000Y-87020000D01*
X130300000Y-67220000D02*
X129557500Y-67962500D01*
X138800000Y-74918019D02*
X139494105Y-75612124D01*
D46*
X127600000Y-75020000D02*
X127600000Y-75010000D01*
D45*
X133890000Y-79790000D02*
X132440000Y-81240000D01*
D46*
X127900000Y-70975000D02*
X134238333Y-70975000D01*
X146320000Y-71900000D02*
X145840000Y-71900000D01*
X154750000Y-71900000D02*
X146320000Y-71900000D01*
X145840000Y-71900000D02*
X144390000Y-71900000D01*
X127900000Y-74710000D02*
X127900000Y-70975000D01*
D45*
X133890000Y-78150000D02*
X133890000Y-79790000D01*
X127600000Y-75010000D02*
X128140000Y-75550000D01*
X123580000Y-77910000D02*
X123970000Y-77520000D01*
D46*
X146514583Y-71705417D02*
X146320000Y-71900000D01*
X134238333Y-70975000D02*
X134863333Y-70350000D01*
X140800000Y-71900000D02*
X144390000Y-71900000D01*
D45*
X138300000Y-86581981D02*
X139494105Y-85387876D01*
D46*
X155570000Y-71080000D02*
X154750000Y-71900000D01*
D45*
X140290991Y-83480991D02*
X137600000Y-80790000D01*
X142200000Y-73980000D02*
X138800000Y-73980000D01*
X142200000Y-73980000D02*
X142850000Y-73980000D01*
X130258333Y-98800000D02*
X123970000Y-98800000D01*
X123970000Y-77520000D02*
X125100000Y-77520000D01*
X138555000Y-87020000D02*
X138300000Y-87275000D01*
D46*
X126200000Y-70740000D02*
X126450000Y-70990000D01*
D45*
%TO.N,GND*%
X134800000Y-76820000D02*
X135752233Y-76820000D01*
X140689500Y-73020000D02*
X140580000Y-72910500D01*
X138430000Y-80130000D02*
X138430000Y-79497767D01*
X138800000Y-73020000D02*
X140470500Y-73020000D01*
X139000000Y-80700000D02*
X138430000Y-80130000D01*
X130940000Y-80400000D02*
X130040000Y-80400000D01*
X137050000Y-88770000D02*
X137050000Y-87124873D01*
X135752233Y-76820000D02*
X137019231Y-78086998D01*
X137050000Y-87124873D02*
X139140551Y-85034322D01*
X130040000Y-72790000D02*
X130050000Y-72800000D01*
X138300000Y-88825000D02*
X137105000Y-88825000D01*
X140470500Y-73020000D02*
X140580000Y-72910500D01*
X137105000Y-88825000D02*
X137050000Y-88770000D01*
X130050000Y-72800000D02*
X130940000Y-72800000D01*
X141845235Y-75965678D02*
X140240913Y-77570000D01*
X142200000Y-73020000D02*
X140689500Y-73020000D01*
X138430000Y-79497767D02*
X137019231Y-78086998D01*
X138300000Y-88825000D02*
X138300000Y-89059954D01*
X140240913Y-77570000D02*
X140190000Y-77570000D01*
%TO.N,Net-(D1-Pad2)*%
X145252500Y-92857500D02*
X143632500Y-92857500D01*
X143632500Y-92857500D02*
X143615000Y-92875000D01*
%TO.N,Net-(D2-Pad2)*%
X140387500Y-92885000D02*
X140380000Y-92877500D01*
X142017500Y-92885000D02*
X140387500Y-92885000D01*
D46*
%TO.N,Net-(D3-Pad1)*%
X142876666Y-67410000D02*
X143930000Y-67410000D01*
X144760000Y-63030000D02*
X145340000Y-62450000D01*
X142876666Y-67410000D02*
X138280000Y-67410000D01*
X134863333Y-63993333D02*
X134863333Y-62050000D01*
X142876666Y-70240000D02*
X142876666Y-67410000D01*
X144760000Y-66580000D02*
X144760000Y-63030000D01*
X145340000Y-62450000D02*
X146285000Y-62450000D01*
X138280000Y-67410000D02*
X134863333Y-63993333D01*
X143930000Y-67410000D02*
X144760000Y-66580000D01*
D45*
%TO.N,Net-(D4-Pad2)*%
X136382500Y-56575000D02*
X136400000Y-56592500D01*
X134700000Y-56575000D02*
X136382500Y-56575000D01*
%TO.N,SWDIO*%
X155227767Y-92760000D02*
X155900000Y-92760000D01*
X144673662Y-82205895D02*
X155227767Y-92760000D01*
%TO.N,SWDCLK*%
X146111981Y-78770000D02*
X145380769Y-79501212D01*
X146990000Y-78770000D02*
X146111981Y-78770000D01*
X155900000Y-87680000D02*
X146990000Y-78770000D01*
%TO.N,NRST*%
X146620000Y-93120000D02*
X147880000Y-94380000D01*
X144941666Y-98800000D02*
X147870000Y-98800000D01*
X147870000Y-98800000D02*
X150741666Y-98800000D01*
X155900000Y-90220000D02*
X146232297Y-80552297D01*
X150741666Y-98800000D02*
X151941666Y-97600000D01*
X157620000Y-97110000D02*
X157620000Y-90500000D01*
X151941666Y-97600000D02*
X157130000Y-97600000D01*
X140191638Y-80552297D02*
X137372784Y-77733445D01*
X157340000Y-90220000D02*
X155900000Y-90220000D01*
X157130000Y-97600000D02*
X157620000Y-97110000D01*
X157620000Y-90500000D02*
X157340000Y-90220000D01*
X147880000Y-94380000D02*
X147870000Y-94390000D01*
X147870000Y-94390000D02*
X147870000Y-98800000D01*
X146232297Y-80552297D02*
X140191638Y-80552297D01*
%TO.N,USART2_RX*%
X135605017Y-81498788D02*
X134503805Y-82600000D01*
X134503805Y-82600000D02*
X125100000Y-82600000D01*
%TO.N,USART2_TX*%
X126660000Y-81920000D02*
X125100000Y-80360000D01*
X125100000Y-80360000D02*
X125100000Y-80060000D01*
X133740000Y-81920000D02*
X126660000Y-81920000D01*
X135605017Y-80054983D02*
X133740000Y-81920000D01*
X135605017Y-79501212D02*
X135605017Y-80054983D01*
%TO.N,SIM_RESET*%
X145380769Y-81498788D02*
X146740000Y-82858019D01*
X146740000Y-82858019D02*
X146740000Y-82920000D01*
D46*
%TO.N,+12V*%
X141757893Y-57400000D02*
X144235000Y-57400000D01*
X144235000Y-57400000D02*
X144240000Y-57395000D01*
D45*
%TO.N,LED2*%
X143615000Y-91225000D02*
X143615000Y-86804087D01*
X143615000Y-86804087D02*
X141845235Y-85034322D01*
%TO.N,LED1*%
X142017500Y-91235000D02*
X142017500Y-85913695D01*
X142017500Y-85913695D02*
X141491681Y-85387876D01*
%TO.N,/BOOT0*%
X142905895Y-77026338D02*
X143872233Y-76060000D01*
X143872233Y-76060000D02*
X144750000Y-76060000D01*
%TO.N,Net-(R6-Pad1)*%
X137967767Y-85500000D02*
X137965000Y-85500000D01*
X134760000Y-92180000D02*
X134760000Y-91480000D01*
X136087500Y-87377500D02*
X136087500Y-91275000D01*
X137965000Y-85500000D02*
X136087500Y-87377500D01*
X134760000Y-91480000D02*
X134965000Y-91275000D01*
X134965000Y-91275000D02*
X136087500Y-91275000D01*
X138786998Y-84680769D02*
X137967767Y-85500000D01*
%TO.N,Net-(R6-Pad2)*%
X139012500Y-99845833D02*
X136058333Y-102800000D01*
X137655000Y-92925000D02*
X137685000Y-92895000D01*
X139012500Y-93110000D02*
X137900000Y-93110000D01*
X136087500Y-92925000D02*
X137655000Y-92925000D01*
X137900000Y-93110000D02*
X137685000Y-92895000D01*
X136058333Y-102800000D02*
X130258333Y-102800000D01*
X139012500Y-93110000D02*
X139012500Y-99845833D01*
D46*
%TO.N,feedback*%
X150095000Y-67850000D02*
X150095000Y-70270000D01*
X150095000Y-70270000D02*
X148339583Y-70270000D01*
%TO.N,Net-(R10-Pad2)*%
X151920000Y-70270000D02*
X151920000Y-67350000D01*
X151920000Y-67350000D02*
X152190000Y-67080000D01*
X152190000Y-67080000D02*
X152190000Y-64242500D01*
D45*
%TO.N,/HSE_IN*%
X138079891Y-77026338D02*
X135803553Y-74750000D01*
X135803553Y-74750000D02*
X131900000Y-74750000D01*
X131900000Y-72800000D02*
X131900000Y-74750000D01*
%TO.N,/HSE_OUT*%
X136226447Y-75880000D02*
X134440000Y-75880000D01*
X137726338Y-77379891D02*
X136226447Y-75880000D01*
X131900000Y-78420000D02*
X131900000Y-78450000D01*
X134440000Y-75880000D02*
X131900000Y-78420000D01*
X131900000Y-78450000D02*
X131900000Y-80400000D01*
%TO.N,PA7{slash}SPI1_MOSI*%
X127172233Y-92760000D02*
X125100000Y-92760000D01*
X137019231Y-82913002D02*
X127172233Y-92760000D01*
%TO.N,PA6{slash}SPI1_MISO*%
X125100000Y-90220000D02*
X129005127Y-90220000D01*
X129005127Y-90220000D02*
X136665678Y-82559449D01*
%TO.N,PA5{slash}SPI1_CLK*%
X125100000Y-87680000D02*
X130838019Y-87680000D01*
X130838019Y-87680000D02*
X136312124Y-82205895D01*
%TO.N,PA4*%
X135958571Y-81852342D02*
X132670913Y-85140000D01*
X132670913Y-85140000D02*
X125100000Y-85140000D01*
D46*
%TO.N,Net-(U13-Pad1)*%
X144776666Y-68263334D02*
X145190000Y-67850000D01*
X144776666Y-70240000D02*
X144776666Y-68263334D01*
X145190000Y-67850000D02*
X146285000Y-67850000D01*
D45*
%TO.N,SIM_DET*%
X155780000Y-74740000D02*
X155730000Y-74790000D01*
X146140000Y-74790000D02*
X146120000Y-74770000D01*
X137300000Y-95300000D02*
X133200000Y-95300000D01*
X155730000Y-74790000D02*
X146140000Y-74790000D01*
D46*
%TO.N,Net-(Q1-Pad2)*%
X147555000Y-59275000D02*
X147555000Y-62450000D01*
D45*
%TO.N,SIM_PWRKEY*%
X144678019Y-73840000D02*
X142198788Y-76319231D01*
X149880000Y-73840000D02*
X144678019Y-73840000D01*
%TO.N,STATUS*%
X138786998Y-76319231D02*
X135493884Y-73026116D01*
X135180000Y-72690000D02*
X135180000Y-72712232D01*
X135180000Y-72712232D02*
X135493884Y-73026116D01*
X135493884Y-73026116D02*
X135327767Y-72860000D01*
%TO.N,SIM_RX*%
X142419339Y-82780000D02*
X141370000Y-82780000D01*
X143259448Y-83620109D02*
X142419339Y-82780000D01*
%TO.N,SIM_TX*%
X142196447Y-81850000D02*
X143613002Y-83266555D01*
X140570000Y-81850000D02*
X142196447Y-81850000D01*
%TO.N,Net-(P1-PadC2)*%
X134200000Y-96500000D02*
X137300000Y-96500000D01*
D46*
%TO.N,Net-(F1-Pad2)*%
X146605000Y-57400000D02*
X146845000Y-57160000D01*
X146845000Y-57160000D02*
X150430000Y-57160000D01*
X144240000Y-56425000D02*
X146515000Y-56425000D01*
X146605000Y-56515000D02*
X146515000Y-56425000D01*
X146605000Y-57400000D02*
X146605000Y-56515000D01*
%TD*%
%TA.AperFunction,Conductor*%
%TO.N,GND*%
G36*
X144483321Y-93627865D02*
G01*
X144528308Y-93656749D01*
X144542447Y-93670864D01*
X144686808Y-93759849D01*
X144693756Y-93762154D01*
X144693757Y-93762154D01*
X144841238Y-93811072D01*
X144841240Y-93811072D01*
X144847769Y-93813238D01*
X144947928Y-93823500D01*
X145557072Y-93823500D01*
X145560318Y-93823163D01*
X145560322Y-93823163D01*
X145594103Y-93819658D01*
X145658482Y-93812978D01*
X145725904Y-93790484D01*
X145812405Y-93761625D01*
X145812407Y-93761624D01*
X145819349Y-93759308D01*
X145853631Y-93738093D01*
X145922081Y-93719257D01*
X145989851Y-93740418D01*
X146009027Y-93756144D01*
X146049371Y-93796488D01*
X146056192Y-93800522D01*
X146074030Y-93811071D01*
X146190403Y-93879894D01*
X146198014Y-93882105D01*
X146198016Y-93882106D01*
X146248995Y-93896916D01*
X146347746Y-93925606D01*
X146354151Y-93926110D01*
X146354156Y-93926111D01*
X146382060Y-93928307D01*
X146382068Y-93928307D01*
X146384516Y-93928500D01*
X146445050Y-93928500D01*
X146513171Y-93948502D01*
X146534145Y-93965405D01*
X147174595Y-94605855D01*
X147208621Y-94668167D01*
X147211500Y-94694950D01*
X147211500Y-98015500D01*
X147191498Y-98083621D01*
X147137842Y-98130114D01*
X147085500Y-98141500D01*
X146912675Y-98141500D01*
X146844554Y-98121498D01*
X146798061Y-98067842D01*
X146795763Y-98062306D01*
X146795433Y-98061703D01*
X146792281Y-98053295D01*
X146704927Y-97936739D01*
X146588371Y-97849385D01*
X146451982Y-97798255D01*
X146389800Y-97791500D01*
X143493532Y-97791500D01*
X143431350Y-97798255D01*
X143294961Y-97849385D01*
X143178405Y-97936739D01*
X143091051Y-98053295D01*
X143039921Y-98189684D01*
X143033166Y-98251866D01*
X143033166Y-99348134D01*
X143039921Y-99410316D01*
X143091051Y-99546705D01*
X143178405Y-99663261D01*
X143294961Y-99750615D01*
X143431350Y-99801745D01*
X143493532Y-99808500D01*
X146389800Y-99808500D01*
X146451982Y-99801745D01*
X146588371Y-99750615D01*
X146704927Y-99663261D01*
X146792281Y-99546705D01*
X146795433Y-99538296D01*
X146799743Y-99530425D01*
X146801407Y-99531336D01*
X146837329Y-99483510D01*
X146903890Y-99458807D01*
X146912675Y-99458500D01*
X147795845Y-99458500D01*
X147819454Y-99460732D01*
X147820538Y-99460939D01*
X147820540Y-99460939D01*
X147828324Y-99462424D01*
X147886736Y-99458749D01*
X147894647Y-99458500D01*
X148770657Y-99458500D01*
X148838778Y-99478502D01*
X148885271Y-99532158D01*
X148887569Y-99537694D01*
X148887898Y-99538296D01*
X148891051Y-99546705D01*
X148978405Y-99663261D01*
X149094961Y-99750615D01*
X149231350Y-99801745D01*
X149293532Y-99808500D01*
X152189800Y-99808500D01*
X152251982Y-99801745D01*
X152388371Y-99750615D01*
X152504927Y-99663261D01*
X152592281Y-99546705D01*
X152643411Y-99410316D01*
X152650166Y-99348134D01*
X152650166Y-98384500D01*
X152670168Y-98316379D01*
X152723824Y-98269886D01*
X152776166Y-98258500D01*
X157047944Y-98258500D01*
X157059800Y-98259059D01*
X157059803Y-98259059D01*
X157067537Y-98260788D01*
X157138369Y-98258562D01*
X157142327Y-98258500D01*
X157171432Y-98258500D01*
X157175832Y-98257944D01*
X157187664Y-98257012D01*
X157233831Y-98255562D01*
X157254421Y-98249580D01*
X157273782Y-98245570D01*
X157280770Y-98244688D01*
X157287204Y-98243875D01*
X157287205Y-98243875D01*
X157295064Y-98242882D01*
X157319116Y-98233359D01*
X157389816Y-98226880D01*
X157452796Y-98259652D01*
X157488060Y-98321271D01*
X157491500Y-98350511D01*
X157491500Y-101908574D01*
X157471498Y-101976695D01*
X157417842Y-102023188D01*
X157347568Y-102033292D01*
X157282988Y-102003798D01*
X157273199Y-101994344D01*
X157248308Y-101967558D01*
X157245842Y-101964904D01*
X156982019Y-101739578D01*
X156694047Y-101546069D01*
X156385741Y-101386940D01*
X156061189Y-101264302D01*
X156057668Y-101263418D01*
X156057663Y-101263416D01*
X155879197Y-101218589D01*
X155724692Y-101179780D01*
X155702476Y-101176855D01*
X155384315Y-101134968D01*
X155384307Y-101134967D01*
X155380711Y-101134494D01*
X155236045Y-101132221D01*
X155037446Y-101129101D01*
X155037442Y-101129101D01*
X155033804Y-101129044D01*
X155030190Y-101129405D01*
X155030184Y-101129405D01*
X154786843Y-101153694D01*
X154688569Y-101163503D01*
X154349583Y-101237414D01*
X154346156Y-101238587D01*
X154346150Y-101238589D01*
X154267296Y-101265587D01*
X154021339Y-101349797D01*
X153708188Y-101499163D01*
X153414279Y-101683532D01*
X153411443Y-101685804D01*
X153411436Y-101685809D01*
X153258414Y-101808403D01*
X153143509Y-101900459D01*
X153099527Y-101944904D01*
X152924773Y-102121498D01*
X152899466Y-102147071D01*
X152897225Y-102149929D01*
X152853466Y-102205737D01*
X152795693Y-102247002D01*
X152724781Y-102250482D01*
X152663246Y-102215071D01*
X152636330Y-102172220D01*
X152594991Y-102061948D01*
X152586452Y-102046351D01*
X152509951Y-101944276D01*
X152497390Y-101931715D01*
X152395315Y-101855214D01*
X152379720Y-101846676D01*
X152259272Y-101801522D01*
X152244017Y-101797895D01*
X152193152Y-101792369D01*
X152186338Y-101792000D01*
X151013781Y-101792000D01*
X150998542Y-101796475D01*
X150997337Y-101797865D01*
X150995666Y-101805548D01*
X150995666Y-103789884D01*
X151000141Y-103805123D01*
X151001531Y-103806328D01*
X151009214Y-103807999D01*
X152031324Y-103807999D01*
X152099445Y-103828001D01*
X152145938Y-103881657D01*
X152156825Y-103945199D01*
X152147888Y-104045341D01*
X152156970Y-104392171D01*
X152205856Y-104735660D01*
X152293897Y-105071253D01*
X152419927Y-105394503D01*
X152421624Y-105397708D01*
X152541208Y-105623563D01*
X152582275Y-105701126D01*
X152584325Y-105704109D01*
X152584327Y-105704112D01*
X152776733Y-105984064D01*
X152776739Y-105984071D01*
X152778790Y-105987056D01*
X153006866Y-106248505D01*
X153033025Y-106272308D01*
X153069946Y-106332947D01*
X153068223Y-106403922D01*
X153028401Y-106462699D01*
X152963123Y-106490616D01*
X152948224Y-106491500D01*
X128057497Y-106491500D01*
X127989376Y-106471498D01*
X127942883Y-106417842D01*
X127932779Y-106347568D01*
X127962273Y-106282988D01*
X127970764Y-106274103D01*
X128064180Y-106185454D01*
X128066819Y-106182950D01*
X128289370Y-105916783D01*
X128306207Y-105891152D01*
X128429068Y-105704112D01*
X128479853Y-105626799D01*
X128598387Y-105391121D01*
X128634117Y-105320080D01*
X128634120Y-105320072D01*
X128635744Y-105316844D01*
X128726903Y-105067741D01*
X128753729Y-104994437D01*
X128753730Y-104994433D01*
X128754977Y-104991026D01*
X128755822Y-104987504D01*
X128755825Y-104987496D01*
X128835124Y-104657191D01*
X128835125Y-104657187D01*
X128835971Y-104653662D01*
X128877652Y-104309225D01*
X128883599Y-104120000D01*
X128879504Y-104048972D01*
X128873801Y-103950075D01*
X128889848Y-103880916D01*
X128940739Y-103831412D01*
X129013194Y-103817558D01*
X129013898Y-103817634D01*
X129021866Y-103818500D01*
X131918134Y-103818500D01*
X131980316Y-103811745D01*
X132116705Y-103760615D01*
X132233261Y-103673261D01*
X132251019Y-103649567D01*
X132315233Y-103563887D01*
X132315235Y-103563884D01*
X132320615Y-103556705D01*
X132326777Y-103540268D01*
X132369418Y-103483505D01*
X132435980Y-103458806D01*
X132444758Y-103458500D01*
X134295242Y-103458500D01*
X134363363Y-103478502D01*
X134409856Y-103532158D01*
X134413219Y-103540256D01*
X134419385Y-103556705D01*
X134424765Y-103563884D01*
X134424767Y-103563887D01*
X134488981Y-103649567D01*
X134506739Y-103673261D01*
X134623295Y-103760615D01*
X134759684Y-103811745D01*
X134821866Y-103818500D01*
X137718134Y-103818500D01*
X137780316Y-103811745D01*
X137916705Y-103760615D01*
X138033261Y-103673261D01*
X138120615Y-103556705D01*
X138171745Y-103420316D01*
X138178500Y-103358134D01*
X138178500Y-103344669D01*
X143033667Y-103344669D01*
X143034037Y-103351490D01*
X143039561Y-103402352D01*
X143043187Y-103417604D01*
X143088342Y-103538054D01*
X143096880Y-103553649D01*
X143173381Y-103655724D01*
X143185942Y-103668285D01*
X143288017Y-103744786D01*
X143303612Y-103753324D01*
X143424060Y-103798478D01*
X143439315Y-103802105D01*
X143490180Y-103807631D01*
X143496994Y-103808000D01*
X144669551Y-103808000D01*
X144684790Y-103803525D01*
X144685995Y-103802135D01*
X144687666Y-103794452D01*
X144687666Y-103789884D01*
X145195666Y-103789884D01*
X145200141Y-103805123D01*
X145201531Y-103806328D01*
X145209214Y-103807999D01*
X146386335Y-103807999D01*
X146393156Y-103807629D01*
X146444018Y-103802105D01*
X146459270Y-103798479D01*
X146579720Y-103753324D01*
X146595315Y-103744786D01*
X146697390Y-103668285D01*
X146709951Y-103655724D01*
X146786452Y-103553649D01*
X146794990Y-103538054D01*
X146840144Y-103417606D01*
X146843771Y-103402351D01*
X146849297Y-103351486D01*
X146849666Y-103344672D01*
X146849666Y-103344669D01*
X148833667Y-103344669D01*
X148834037Y-103351490D01*
X148839561Y-103402352D01*
X148843187Y-103417604D01*
X148888342Y-103538054D01*
X148896880Y-103553649D01*
X148973381Y-103655724D01*
X148985942Y-103668285D01*
X149088017Y-103744786D01*
X149103612Y-103753324D01*
X149224060Y-103798478D01*
X149239315Y-103802105D01*
X149290180Y-103807631D01*
X149296994Y-103808000D01*
X150469551Y-103808000D01*
X150484790Y-103803525D01*
X150485995Y-103802135D01*
X150487666Y-103794452D01*
X150487666Y-103072115D01*
X150483191Y-103056876D01*
X150481801Y-103055671D01*
X150474118Y-103054000D01*
X148851782Y-103054000D01*
X148836543Y-103058475D01*
X148835338Y-103059865D01*
X148833667Y-103067548D01*
X148833667Y-103344669D01*
X146849666Y-103344669D01*
X146849666Y-103072115D01*
X146845191Y-103056876D01*
X146843801Y-103055671D01*
X146836118Y-103054000D01*
X145213781Y-103054000D01*
X145198542Y-103058475D01*
X145197337Y-103059865D01*
X145195666Y-103067548D01*
X145195666Y-103789884D01*
X144687666Y-103789884D01*
X144687666Y-103072115D01*
X144683191Y-103056876D01*
X144681801Y-103055671D01*
X144674118Y-103054000D01*
X143051782Y-103054000D01*
X143036543Y-103058475D01*
X143035338Y-103059865D01*
X143033667Y-103067548D01*
X143033667Y-103344669D01*
X138178500Y-103344669D01*
X138178500Y-102527885D01*
X143033666Y-102527885D01*
X143038141Y-102543124D01*
X143039531Y-102544329D01*
X143047214Y-102546000D01*
X144669551Y-102546000D01*
X144684790Y-102541525D01*
X144685995Y-102540135D01*
X144687666Y-102532452D01*
X144687666Y-102527885D01*
X145195666Y-102527885D01*
X145200141Y-102543124D01*
X145201531Y-102544329D01*
X145209214Y-102546000D01*
X146831550Y-102546000D01*
X146846789Y-102541525D01*
X146847994Y-102540135D01*
X146849665Y-102532452D01*
X146849665Y-102527885D01*
X148833666Y-102527885D01*
X148838141Y-102543124D01*
X148839531Y-102544329D01*
X148847214Y-102546000D01*
X150469551Y-102546000D01*
X150484790Y-102541525D01*
X150485995Y-102540135D01*
X150487666Y-102532452D01*
X150487666Y-101810116D01*
X150483191Y-101794877D01*
X150481801Y-101793672D01*
X150474118Y-101792001D01*
X149296997Y-101792001D01*
X149290176Y-101792371D01*
X149239314Y-101797895D01*
X149224062Y-101801521D01*
X149103612Y-101846676D01*
X149088017Y-101855214D01*
X148985942Y-101931715D01*
X148973381Y-101944276D01*
X148896880Y-102046351D01*
X148888342Y-102061946D01*
X148843188Y-102182394D01*
X148839561Y-102197649D01*
X148834035Y-102248514D01*
X148833666Y-102255328D01*
X148833666Y-102527885D01*
X146849665Y-102527885D01*
X146849665Y-102255331D01*
X146849295Y-102248510D01*
X146843771Y-102197648D01*
X146840145Y-102182396D01*
X146794990Y-102061946D01*
X146786452Y-102046351D01*
X146709951Y-101944276D01*
X146697390Y-101931715D01*
X146595315Y-101855214D01*
X146579720Y-101846676D01*
X146459272Y-101801522D01*
X146444017Y-101797895D01*
X146393152Y-101792369D01*
X146386338Y-101792000D01*
X145213781Y-101792000D01*
X145198542Y-101796475D01*
X145197337Y-101797865D01*
X145195666Y-101805548D01*
X145195666Y-102527885D01*
X144687666Y-102527885D01*
X144687666Y-101810116D01*
X144683191Y-101794877D01*
X144681801Y-101793672D01*
X144674118Y-101792001D01*
X143496997Y-101792001D01*
X143490176Y-101792371D01*
X143439314Y-101797895D01*
X143424062Y-101801521D01*
X143303612Y-101846676D01*
X143288017Y-101855214D01*
X143185942Y-101931715D01*
X143173381Y-101944276D01*
X143096880Y-102046351D01*
X143088342Y-102061946D01*
X143043188Y-102182394D01*
X143039561Y-102197649D01*
X143034035Y-102248514D01*
X143033666Y-102255328D01*
X143033666Y-102527885D01*
X138178500Y-102527885D01*
X138178500Y-102261866D01*
X138171745Y-102199684D01*
X138120615Y-102063295D01*
X138033261Y-101946739D01*
X138026213Y-101941457D01*
X137992227Y-101879218D01*
X137997292Y-101808403D01*
X138026253Y-101763340D01*
X139420105Y-100369488D01*
X139428885Y-100361498D01*
X139428887Y-100361496D01*
X139435580Y-100357249D01*
X139484105Y-100305575D01*
X139486859Y-100302734D01*
X139507427Y-100282166D01*
X139510147Y-100278659D01*
X139517853Y-100269637D01*
X139544044Y-100241746D01*
X139549472Y-100235966D01*
X139553294Y-100229014D01*
X139559803Y-100217175D01*
X139570657Y-100200651D01*
X139578945Y-100189965D01*
X139583804Y-100183701D01*
X139586952Y-100176427D01*
X139602154Y-100141298D01*
X139607376Y-100130638D01*
X139625805Y-100097117D01*
X139625806Y-100097115D01*
X139629624Y-100090170D01*
X139634959Y-100069392D01*
X139641358Y-100050702D01*
X139649880Y-100031009D01*
X139657106Y-99985385D01*
X139659513Y-99973762D01*
X139669028Y-99936701D01*
X139671000Y-99929021D01*
X139671000Y-99907574D01*
X139672551Y-99887864D01*
X139674666Y-99874510D01*
X139675906Y-99866681D01*
X139671559Y-99820692D01*
X139671000Y-99808837D01*
X139671000Y-93886859D01*
X139691002Y-93818738D01*
X139744658Y-93772245D01*
X139814932Y-93762141D01*
X139836667Y-93767266D01*
X139968735Y-93811071D01*
X139968737Y-93811071D01*
X139975269Y-93813238D01*
X140075428Y-93823500D01*
X140684572Y-93823500D01*
X140687818Y-93823163D01*
X140687822Y-93823163D01*
X140721603Y-93819658D01*
X140785982Y-93812978D01*
X140946849Y-93759308D01*
X141091055Y-93670071D01*
X141104119Y-93656985D01*
X141166400Y-93622905D01*
X141237221Y-93627908D01*
X141282387Y-93656907D01*
X141302119Y-93676639D01*
X141448801Y-93765472D01*
X141456048Y-93767743D01*
X141456050Y-93767744D01*
X141508083Y-93784050D01*
X141612438Y-93816753D01*
X141685865Y-93823500D01*
X141688763Y-93823500D01*
X142018360Y-93823499D01*
X142349134Y-93823499D01*
X142351992Y-93823236D01*
X142352001Y-93823236D01*
X142387504Y-93819974D01*
X142422562Y-93816753D01*
X142428947Y-93814752D01*
X142578950Y-93767744D01*
X142578952Y-93767743D01*
X142586199Y-93765472D01*
X142732881Y-93676639D01*
X142738257Y-93671263D01*
X142738502Y-93671071D01*
X142804451Y-93644778D01*
X142874145Y-93658313D01*
X142893998Y-93671071D01*
X142894243Y-93671263D01*
X142899619Y-93676639D01*
X143046301Y-93765472D01*
X143053548Y-93767743D01*
X143053550Y-93767744D01*
X143105583Y-93784050D01*
X143209938Y-93816753D01*
X143283365Y-93823500D01*
X143286263Y-93823500D01*
X143615860Y-93823499D01*
X143946634Y-93823499D01*
X143949492Y-93823236D01*
X143949501Y-93823236D01*
X143985004Y-93819974D01*
X144020062Y-93816753D01*
X144026447Y-93814752D01*
X144176450Y-93767744D01*
X144176452Y-93767743D01*
X144183699Y-93765472D01*
X144330381Y-93676639D01*
X144350194Y-93656826D01*
X144412506Y-93622800D01*
X144483321Y-93627865D01*
G37*
%TD.AperFunction*%
%TA.AperFunction,Conductor*%
G36*
X123695198Y-99400376D02*
G01*
X123725663Y-99417124D01*
X123733342Y-99419096D01*
X123733343Y-99419096D01*
X123746434Y-99422457D01*
X123765136Y-99428859D01*
X123784823Y-99437379D01*
X123792652Y-99438619D01*
X123830448Y-99444605D01*
X123842074Y-99447013D01*
X123879135Y-99456529D01*
X123879136Y-99456529D01*
X123886812Y-99458500D01*
X123908258Y-99458500D01*
X123927968Y-99460051D01*
X123949151Y-99463406D01*
X123995135Y-99459059D01*
X124006994Y-99458500D01*
X128495242Y-99458500D01*
X128563363Y-99478502D01*
X128609856Y-99532158D01*
X128613219Y-99540256D01*
X128619385Y-99556705D01*
X128624765Y-99563884D01*
X128624767Y-99563887D01*
X128631652Y-99573073D01*
X128706739Y-99673261D01*
X128823295Y-99760615D01*
X128959684Y-99811745D01*
X129021866Y-99818500D01*
X131918134Y-99818500D01*
X131980316Y-99811745D01*
X132116705Y-99760615D01*
X132233261Y-99673261D01*
X132308348Y-99573073D01*
X132315233Y-99563887D01*
X132315235Y-99563884D01*
X132320615Y-99556705D01*
X132326777Y-99540268D01*
X132369418Y-99483505D01*
X132435980Y-99458806D01*
X132444758Y-99458500D01*
X134295242Y-99458500D01*
X134363363Y-99478502D01*
X134409856Y-99532158D01*
X134413219Y-99540256D01*
X134419385Y-99556705D01*
X134424765Y-99563884D01*
X134424767Y-99563887D01*
X134431652Y-99573073D01*
X134506739Y-99673261D01*
X134623295Y-99760615D01*
X134759684Y-99811745D01*
X134821866Y-99818500D01*
X137718134Y-99818500D01*
X137780316Y-99811745D01*
X137787713Y-99808972D01*
X137788327Y-99808826D01*
X137859227Y-99812527D01*
X137916871Y-99853972D01*
X137942958Y-99920002D01*
X137929204Y-99989654D01*
X137906570Y-100020503D01*
X136162478Y-101764595D01*
X136100166Y-101798621D01*
X136073383Y-101801500D01*
X134821866Y-101801500D01*
X134759684Y-101808255D01*
X134623295Y-101859385D01*
X134506739Y-101946739D01*
X134501358Y-101953919D01*
X134424771Y-102056109D01*
X134419385Y-102063295D01*
X134416234Y-102071700D01*
X134413875Y-102076009D01*
X134363616Y-102126155D01*
X134303355Y-102141500D01*
X132436645Y-102141500D01*
X132368524Y-102121498D01*
X132326125Y-102076009D01*
X132323766Y-102071700D01*
X132320615Y-102063295D01*
X132315230Y-102056109D01*
X132238642Y-101953919D01*
X132233261Y-101946739D01*
X132116705Y-101859385D01*
X131980316Y-101808255D01*
X131918134Y-101801500D01*
X129021866Y-101801500D01*
X128959684Y-101808255D01*
X128823295Y-101859385D01*
X128706739Y-101946739D01*
X128619385Y-102063295D01*
X128568255Y-102199684D01*
X128561500Y-102261866D01*
X128561500Y-102317686D01*
X128541498Y-102385807D01*
X128487842Y-102432300D01*
X128417568Y-102442404D01*
X128352988Y-102412910D01*
X128333953Y-102392280D01*
X128235658Y-102258469D01*
X128192018Y-102199060D01*
X127955842Y-101944904D01*
X127692019Y-101719578D01*
X127404047Y-101526069D01*
X127095741Y-101366940D01*
X126771189Y-101244302D01*
X126767668Y-101243418D01*
X126767663Y-101243416D01*
X126606378Y-101202904D01*
X126434692Y-101159780D01*
X126412476Y-101156855D01*
X126094315Y-101114968D01*
X126094307Y-101114967D01*
X126090711Y-101114494D01*
X125946045Y-101112221D01*
X125747446Y-101109101D01*
X125747442Y-101109101D01*
X125743804Y-101109044D01*
X125740190Y-101109405D01*
X125740184Y-101109405D01*
X125496843Y-101133694D01*
X125398569Y-101143503D01*
X125059583Y-101217414D01*
X125056156Y-101218587D01*
X125056150Y-101218589D01*
X124734765Y-101328624D01*
X124731339Y-101329797D01*
X124418188Y-101479163D01*
X124124279Y-101663532D01*
X124121443Y-101665804D01*
X124121436Y-101665809D01*
X123940172Y-101811029D01*
X123853509Y-101880459D01*
X123740811Y-101994344D01*
X123724061Y-102011270D01*
X123661928Y-102045621D01*
X123591086Y-102040927D01*
X123534029Y-101998678D01*
X123508870Y-101932289D01*
X123508500Y-101922642D01*
X123508500Y-99510791D01*
X123528502Y-99442670D01*
X123582158Y-99396177D01*
X123652432Y-99386073D01*
X123695198Y-99400376D01*
G37*
%TD.AperFunction*%
%TA.AperFunction,Conductor*%
G36*
X136656588Y-84311071D02*
G01*
X136712519Y-84352424D01*
X136765207Y-84421088D01*
X136925359Y-84581240D01*
X136928637Y-84583755D01*
X137016645Y-84651286D01*
X137015696Y-84652522D01*
X137047478Y-84684304D01*
X137048714Y-84683355D01*
X137118760Y-84774641D01*
X137278912Y-84934793D01*
X137282183Y-84937303D01*
X137282199Y-84937317D01*
X137346011Y-84986281D01*
X137387878Y-85043619D01*
X137392100Y-85114490D01*
X137358402Y-85175338D01*
X135679895Y-86853845D01*
X135671115Y-86861835D01*
X135671113Y-86861837D01*
X135664420Y-86866084D01*
X135658994Y-86871862D01*
X135658993Y-86871863D01*
X135615896Y-86917757D01*
X135613141Y-86920599D01*
X135592573Y-86941167D01*
X135589856Y-86944670D01*
X135582148Y-86953695D01*
X135550528Y-86987367D01*
X135546707Y-86994318D01*
X135546706Y-86994319D01*
X135540197Y-87006158D01*
X135529343Y-87022682D01*
X135522510Y-87031492D01*
X135516196Y-87039632D01*
X135513049Y-87046904D01*
X135513048Y-87046906D01*
X135497846Y-87082035D01*
X135492624Y-87092695D01*
X135470376Y-87133163D01*
X135465041Y-87153941D01*
X135458642Y-87172631D01*
X135450120Y-87192324D01*
X135448880Y-87200155D01*
X135442894Y-87237948D01*
X135440487Y-87249571D01*
X135437597Y-87260829D01*
X135429000Y-87294312D01*
X135429000Y-87315759D01*
X135427449Y-87335469D01*
X135424094Y-87356652D01*
X135424840Y-87364543D01*
X135428441Y-87402638D01*
X135429000Y-87414496D01*
X135429000Y-90398602D01*
X135408998Y-90466723D01*
X135380749Y-90497754D01*
X135378618Y-90499425D01*
X135372119Y-90503361D01*
X135295885Y-90579595D01*
X135233573Y-90613621D01*
X135206790Y-90616500D01*
X135047059Y-90616500D01*
X135035203Y-90615941D01*
X135027463Y-90614211D01*
X135019537Y-90614460D01*
X135019536Y-90614460D01*
X134956611Y-90616438D01*
X134952653Y-90616500D01*
X134923568Y-90616500D01*
X134919637Y-90616997D01*
X134919630Y-90616997D01*
X134919179Y-90617054D01*
X134907343Y-90617986D01*
X134861169Y-90619438D01*
X134840579Y-90625420D01*
X134821218Y-90629430D01*
X134814230Y-90630312D01*
X134807796Y-90631125D01*
X134807795Y-90631125D01*
X134799936Y-90632118D01*
X134792571Y-90635034D01*
X134792567Y-90635035D01*
X134756979Y-90649126D01*
X134745769Y-90652965D01*
X134701400Y-90665855D01*
X134682935Y-90676775D01*
X134665195Y-90685466D01*
X134645244Y-90693365D01*
X134607874Y-90720516D01*
X134597952Y-90727033D01*
X134565023Y-90746507D01*
X134565019Y-90746510D01*
X134558193Y-90750547D01*
X134543029Y-90765711D01*
X134527996Y-90778551D01*
X134510643Y-90791159D01*
X134481198Y-90826752D01*
X134473208Y-90835532D01*
X134352395Y-90956345D01*
X134343615Y-90964335D01*
X134343613Y-90964337D01*
X134336920Y-90968584D01*
X134331494Y-90974362D01*
X134331493Y-90974363D01*
X134288396Y-91020257D01*
X134285641Y-91023099D01*
X134265073Y-91043667D01*
X134262356Y-91047170D01*
X134254648Y-91056195D01*
X134223028Y-91089867D01*
X134219207Y-91096818D01*
X134219206Y-91096819D01*
X134212697Y-91108658D01*
X134201843Y-91125182D01*
X134194018Y-91135271D01*
X134188696Y-91142132D01*
X134185549Y-91149404D01*
X134185548Y-91149406D01*
X134170346Y-91184535D01*
X134165124Y-91195195D01*
X134142876Y-91235663D01*
X134137541Y-91256441D01*
X134131142Y-91275131D01*
X134122620Y-91294824D01*
X134121380Y-91302655D01*
X134115394Y-91340448D01*
X134112987Y-91352071D01*
X134109455Y-91365830D01*
X134101500Y-91396812D01*
X134101500Y-91418259D01*
X134099949Y-91437969D01*
X134096594Y-91459152D01*
X134100361Y-91498998D01*
X134100941Y-91505138D01*
X134101500Y-91516996D01*
X134101500Y-91561771D01*
X134081498Y-91629892D01*
X134077892Y-91634991D01*
X134073512Y-91639371D01*
X134069478Y-91646192D01*
X134024815Y-91721714D01*
X133990106Y-91780403D01*
X133944394Y-91937746D01*
X133941500Y-91974516D01*
X133941500Y-92385484D01*
X133941693Y-92387932D01*
X133941693Y-92387940D01*
X133942700Y-92400729D01*
X133944394Y-92422254D01*
X133990106Y-92579597D01*
X133994143Y-92586423D01*
X134000015Y-92596353D01*
X134017474Y-92665170D01*
X134000016Y-92724628D01*
X133994605Y-92733778D01*
X133988357Y-92748216D01*
X133953381Y-92868605D01*
X133953421Y-92882705D01*
X133960691Y-92886000D01*
X134238621Y-92886000D01*
X134302760Y-92903546D01*
X134330403Y-92919894D01*
X134338014Y-92922105D01*
X134338016Y-92922106D01*
X134372279Y-92932060D01*
X134487746Y-92965606D01*
X134494151Y-92966110D01*
X134494156Y-92966111D01*
X134522060Y-92968307D01*
X134522068Y-92968307D01*
X134524516Y-92968500D01*
X134888000Y-92968500D01*
X134956121Y-92988502D01*
X135002614Y-93042158D01*
X135014000Y-93094500D01*
X135014000Y-93908424D01*
X135018344Y-93923219D01*
X135028775Y-93925063D01*
X135038359Y-93923312D01*
X135181784Y-93881643D01*
X135196220Y-93875396D01*
X135323499Y-93800124D01*
X135335926Y-93790484D01*
X135350622Y-93775788D01*
X135412934Y-93741762D01*
X135483749Y-93746827D01*
X135504986Y-93757106D01*
X135512301Y-93761536D01*
X135512304Y-93761537D01*
X135518801Y-93765472D01*
X135526048Y-93767743D01*
X135526050Y-93767744D01*
X135578083Y-93784050D01*
X135682438Y-93816753D01*
X135755865Y-93823500D01*
X135758763Y-93823500D01*
X136088360Y-93823499D01*
X136419134Y-93823499D01*
X136421992Y-93823236D01*
X136422001Y-93823236D01*
X136457504Y-93819974D01*
X136492562Y-93816753D01*
X136498947Y-93814752D01*
X136648950Y-93767744D01*
X136648952Y-93767743D01*
X136656199Y-93765472D01*
X136802881Y-93676639D01*
X136808257Y-93671263D01*
X136808502Y-93671071D01*
X136874451Y-93644778D01*
X136944145Y-93658313D01*
X136963998Y-93671071D01*
X136964243Y-93671263D01*
X136969619Y-93676639D01*
X137116301Y-93765472D01*
X137123548Y-93767743D01*
X137123550Y-93767744D01*
X137175583Y-93784050D01*
X137279938Y-93816753D01*
X137353365Y-93823500D01*
X137356263Y-93823500D01*
X137685860Y-93823499D01*
X138016634Y-93823499D01*
X138019492Y-93823236D01*
X138019501Y-93823236D01*
X138055004Y-93819974D01*
X138090062Y-93816753D01*
X138096447Y-93814752D01*
X138190321Y-93785334D01*
X138261306Y-93784050D01*
X138321717Y-93821347D01*
X138352373Y-93885384D01*
X138354000Y-93905568D01*
X138354000Y-94838344D01*
X138333998Y-94906465D01*
X138280342Y-94952958D01*
X138210068Y-94963062D01*
X138145488Y-94933568D01*
X138118881Y-94901344D01*
X138042341Y-94768774D01*
X138039040Y-94763056D01*
X137911253Y-94621134D01*
X137756752Y-94508882D01*
X137750724Y-94506198D01*
X137750722Y-94506197D01*
X137588319Y-94433891D01*
X137588318Y-94433891D01*
X137582288Y-94431206D01*
X137476298Y-94408677D01*
X137401944Y-94392872D01*
X137401939Y-94392872D01*
X137395487Y-94391500D01*
X137204513Y-94391500D01*
X137198061Y-94392872D01*
X137198056Y-94392872D01*
X137123702Y-94408677D01*
X137017712Y-94431206D01*
X137011682Y-94433891D01*
X137011681Y-94433891D01*
X136849278Y-94506197D01*
X136849276Y-94506198D01*
X136843248Y-94508882D01*
X136694092Y-94617251D01*
X136693837Y-94617436D01*
X136626969Y-94641294D01*
X136619776Y-94641500D01*
X133880224Y-94641500D01*
X133812103Y-94621498D01*
X133806163Y-94617436D01*
X133805909Y-94617251D01*
X133656752Y-94508882D01*
X133650724Y-94506198D01*
X133650722Y-94506197D01*
X133488319Y-94433891D01*
X133488318Y-94433891D01*
X133482288Y-94431206D01*
X133376298Y-94408677D01*
X133301944Y-94392872D01*
X133301939Y-94392872D01*
X133295487Y-94391500D01*
X133104513Y-94391500D01*
X133098061Y-94392872D01*
X133098056Y-94392872D01*
X133023702Y-94408677D01*
X132917712Y-94431206D01*
X132911682Y-94433891D01*
X132911681Y-94433891D01*
X132749278Y-94506197D01*
X132749276Y-94506198D01*
X132743248Y-94508882D01*
X132588747Y-94621134D01*
X132460960Y-94763056D01*
X132457659Y-94768774D01*
X132378163Y-94906465D01*
X132365473Y-94928444D01*
X132306458Y-95110072D01*
X132286496Y-95300000D01*
X132306458Y-95489928D01*
X132365473Y-95671556D01*
X132460960Y-95836944D01*
X132465378Y-95841851D01*
X132465379Y-95841852D01*
X132573089Y-95961476D01*
X132588747Y-95978866D01*
X132743248Y-96091118D01*
X132749276Y-96093802D01*
X132749278Y-96093803D01*
X132911681Y-96166109D01*
X132917712Y-96168794D01*
X133011112Y-96188647D01*
X133098056Y-96207128D01*
X133098061Y-96207128D01*
X133104513Y-96208500D01*
X133177196Y-96208500D01*
X133245317Y-96228502D01*
X133291810Y-96282158D01*
X133302506Y-96347670D01*
X133286496Y-96500000D01*
X133287186Y-96506565D01*
X133302927Y-96656328D01*
X133306458Y-96689928D01*
X133365473Y-96871556D01*
X133460960Y-97036944D01*
X133465378Y-97041851D01*
X133465379Y-97041852D01*
X133520933Y-97103551D01*
X133588747Y-97178866D01*
X133743248Y-97291118D01*
X133749276Y-97293802D01*
X133749278Y-97293803D01*
X133911681Y-97366109D01*
X133917712Y-97368794D01*
X134011113Y-97388647D01*
X134098056Y-97407128D01*
X134098061Y-97407128D01*
X134104513Y-97408500D01*
X134295487Y-97408500D01*
X134301939Y-97407128D01*
X134301944Y-97407128D01*
X134388887Y-97388647D01*
X134482288Y-97368794D01*
X134488319Y-97366109D01*
X134650722Y-97293803D01*
X134650724Y-97293802D01*
X134656752Y-97291118D01*
X134806163Y-97182564D01*
X134873031Y-97158706D01*
X134880224Y-97158500D01*
X136619776Y-97158500D01*
X136687897Y-97178502D01*
X136693834Y-97182562D01*
X136843248Y-97291118D01*
X136849276Y-97293802D01*
X136849278Y-97293803D01*
X137011681Y-97366109D01*
X137017712Y-97368794D01*
X137111113Y-97388647D01*
X137198056Y-97407128D01*
X137198061Y-97407128D01*
X137204513Y-97408500D01*
X137395487Y-97408500D01*
X137401939Y-97407128D01*
X137401944Y-97407128D01*
X137488887Y-97388647D01*
X137582288Y-97368794D01*
X137588319Y-97366109D01*
X137750722Y-97293803D01*
X137750724Y-97293802D01*
X137756752Y-97291118D01*
X137911253Y-97178866D01*
X137979067Y-97103551D01*
X138034621Y-97041852D01*
X138034622Y-97041851D01*
X138039040Y-97036944D01*
X138091171Y-96946650D01*
X138118881Y-96898656D01*
X138170264Y-96849663D01*
X138239977Y-96836227D01*
X138305888Y-96862613D01*
X138347070Y-96920446D01*
X138354000Y-96961656D01*
X138354000Y-97999710D01*
X138333998Y-98067831D01*
X138280342Y-98114324D01*
X138210068Y-98124428D01*
X138145488Y-98094934D01*
X138121182Y-98064808D01*
X138120615Y-98063295D01*
X138113121Y-98053295D01*
X138038642Y-97953919D01*
X138033261Y-97946739D01*
X137916705Y-97859385D01*
X137780316Y-97808255D01*
X137718134Y-97801500D01*
X134821866Y-97801500D01*
X134759684Y-97808255D01*
X134623295Y-97859385D01*
X134506739Y-97946739D01*
X134501358Y-97953919D01*
X134426880Y-98053295D01*
X134419385Y-98063295D01*
X134416234Y-98071700D01*
X134413875Y-98076009D01*
X134363616Y-98126155D01*
X134303355Y-98141500D01*
X132436645Y-98141500D01*
X132368524Y-98121498D01*
X132326125Y-98076009D01*
X132323766Y-98071700D01*
X132320615Y-98063295D01*
X132313121Y-98053295D01*
X132238642Y-97953919D01*
X132233261Y-97946739D01*
X132116705Y-97859385D01*
X131980316Y-97808255D01*
X131918134Y-97801500D01*
X129021866Y-97801500D01*
X128959684Y-97808255D01*
X128823295Y-97859385D01*
X128706739Y-97946739D01*
X128701358Y-97953919D01*
X128626880Y-98053295D01*
X128619385Y-98063295D01*
X128616234Y-98071700D01*
X128613875Y-98076009D01*
X128563616Y-98126155D01*
X128503355Y-98141500D01*
X124364500Y-98141500D01*
X124296379Y-98121498D01*
X124249886Y-98067842D01*
X124238500Y-98015500D01*
X124238500Y-96784000D01*
X124258502Y-96715879D01*
X124312158Y-96669386D01*
X124364500Y-96658000D01*
X124827885Y-96658000D01*
X124843124Y-96653525D01*
X124844329Y-96652135D01*
X124846000Y-96644452D01*
X124846000Y-96639884D01*
X125354000Y-96639884D01*
X125358475Y-96655123D01*
X125359865Y-96656328D01*
X125367548Y-96657999D01*
X125994669Y-96657999D01*
X126001490Y-96657629D01*
X126052352Y-96652105D01*
X126067604Y-96648479D01*
X126188054Y-96603324D01*
X126203649Y-96594786D01*
X126305724Y-96518285D01*
X126318285Y-96505724D01*
X126394786Y-96403649D01*
X126403324Y-96388054D01*
X126448478Y-96267606D01*
X126452105Y-96252351D01*
X126457631Y-96201486D01*
X126458000Y-96194672D01*
X126458000Y-95572115D01*
X126453525Y-95556876D01*
X126452135Y-95555671D01*
X126444452Y-95554000D01*
X125372115Y-95554000D01*
X125356876Y-95558475D01*
X125355671Y-95559865D01*
X125354000Y-95567548D01*
X125354000Y-96639884D01*
X124846000Y-96639884D01*
X124846000Y-95172000D01*
X124866002Y-95103879D01*
X124919658Y-95057386D01*
X124972000Y-95046000D01*
X126439884Y-95046000D01*
X126455123Y-95041525D01*
X126456328Y-95040135D01*
X126457999Y-95032452D01*
X126457999Y-94405331D01*
X126457629Y-94398510D01*
X126452105Y-94347648D01*
X126448479Y-94332396D01*
X126403324Y-94211946D01*
X126394786Y-94196351D01*
X126318285Y-94094276D01*
X126305724Y-94081715D01*
X126203649Y-94005214D01*
X126188054Y-93996676D01*
X126077813Y-93955348D01*
X126021049Y-93912706D01*
X125996349Y-93846145D01*
X126011557Y-93776796D01*
X126033104Y-93748115D01*
X126134430Y-93647144D01*
X126134440Y-93647132D01*
X126138096Y-93643489D01*
X126152963Y-93622800D01*
X126262060Y-93470974D01*
X126318055Y-93427326D01*
X126364383Y-93418500D01*
X127090177Y-93418500D01*
X127102033Y-93419059D01*
X127102036Y-93419059D01*
X127109770Y-93420788D01*
X127180602Y-93418562D01*
X127184560Y-93418500D01*
X127213665Y-93418500D01*
X127218065Y-93417944D01*
X127229897Y-93417012D01*
X127276064Y-93415562D01*
X127296654Y-93409580D01*
X127314562Y-93405871D01*
X133951776Y-93405871D01*
X133988357Y-93531784D01*
X133994604Y-93546220D01*
X134069876Y-93673499D01*
X134079516Y-93685926D01*
X134184074Y-93790484D01*
X134196501Y-93800124D01*
X134323780Y-93875396D01*
X134338216Y-93881643D01*
X134481641Y-93923312D01*
X134489609Y-93924768D01*
X134503031Y-93921948D01*
X134506000Y-93910487D01*
X134506000Y-93412115D01*
X134501525Y-93396876D01*
X134500135Y-93395671D01*
X134492452Y-93394000D01*
X133966442Y-93394000D01*
X133952911Y-93397973D01*
X133951776Y-93405871D01*
X127314562Y-93405871D01*
X127316015Y-93405570D01*
X127323003Y-93404688D01*
X127329437Y-93403875D01*
X127329438Y-93403875D01*
X127337297Y-93402882D01*
X127344662Y-93399966D01*
X127344666Y-93399965D01*
X127380254Y-93385874D01*
X127391464Y-93382035D01*
X127435833Y-93369145D01*
X127454298Y-93358225D01*
X127472038Y-93349534D01*
X127491989Y-93341635D01*
X127529362Y-93314482D01*
X127539281Y-93307967D01*
X127572210Y-93288493D01*
X127572214Y-93288490D01*
X127579040Y-93284453D01*
X127594204Y-93269289D01*
X127609238Y-93256448D01*
X127620176Y-93248501D01*
X127626590Y-93243841D01*
X127656036Y-93208247D01*
X127664025Y-93199468D01*
X136523461Y-84340032D01*
X136585773Y-84306006D01*
X136656588Y-84311071D01*
G37*
%TD.AperFunction*%
%TA.AperFunction,Conductor*%
G36*
X145169432Y-83632925D02*
G01*
X154542896Y-93006388D01*
X154576717Y-93067781D01*
X154599222Y-93167639D01*
X154644377Y-93278842D01*
X154676612Y-93358228D01*
X154683266Y-93374616D01*
X154701196Y-93403875D01*
X154794039Y-93555381D01*
X154799987Y-93565088D01*
X154946250Y-93733938D01*
X154950225Y-93737238D01*
X154950231Y-93737244D01*
X154955425Y-93741556D01*
X154995059Y-93800460D01*
X154996555Y-93871441D01*
X154959439Y-93931962D01*
X154919168Y-93956480D01*
X154811946Y-93996676D01*
X154796351Y-94005214D01*
X154694276Y-94081715D01*
X154681715Y-94094276D01*
X154605214Y-94196351D01*
X154596676Y-94211946D01*
X154551522Y-94332394D01*
X154547895Y-94347649D01*
X154542369Y-94398514D01*
X154542000Y-94405328D01*
X154542000Y-95027885D01*
X154546475Y-95043124D01*
X154547865Y-95044329D01*
X154555548Y-95046000D01*
X156028000Y-95046000D01*
X156096121Y-95066002D01*
X156142614Y-95119658D01*
X156154000Y-95172000D01*
X156154000Y-96639884D01*
X156158475Y-96655123D01*
X156159865Y-96656328D01*
X156167548Y-96657999D01*
X156794669Y-96657999D01*
X156801486Y-96657630D01*
X156821893Y-96655413D01*
X156891776Y-96667942D01*
X156943791Y-96716263D01*
X156961500Y-96780676D01*
X156961500Y-96785050D01*
X156941498Y-96853171D01*
X156924595Y-96874145D01*
X156894145Y-96904595D01*
X156831833Y-96938621D01*
X156805050Y-96941500D01*
X152023722Y-96941500D01*
X152011866Y-96940941D01*
X152011863Y-96940941D01*
X152004129Y-96939212D01*
X151949112Y-96940941D01*
X151933297Y-96941438D01*
X151929339Y-96941500D01*
X151900234Y-96941500D01*
X151895834Y-96942056D01*
X151884002Y-96942988D01*
X151837835Y-96944438D01*
X151817245Y-96950420D01*
X151797884Y-96954430D01*
X151790896Y-96955312D01*
X151784462Y-96956125D01*
X151784461Y-96956125D01*
X151776602Y-96957118D01*
X151769237Y-96960034D01*
X151769233Y-96960035D01*
X151733645Y-96974126D01*
X151722435Y-96977965D01*
X151678066Y-96990855D01*
X151659609Y-97001771D01*
X151641859Y-97010466D01*
X151621910Y-97018365D01*
X151615499Y-97023023D01*
X151615497Y-97023024D01*
X151584530Y-97045523D01*
X151574612Y-97052038D01*
X151534859Y-97075548D01*
X151519698Y-97090709D01*
X151504666Y-97103548D01*
X151487309Y-97116159D01*
X151459583Y-97149675D01*
X151457864Y-97151752D01*
X151449874Y-97160533D01*
X150855810Y-97754596D01*
X150793498Y-97788621D01*
X150766715Y-97791500D01*
X149293532Y-97791500D01*
X149231350Y-97798255D01*
X149094961Y-97849385D01*
X148978405Y-97936739D01*
X148891051Y-98053295D01*
X148887899Y-98061703D01*
X148883589Y-98069575D01*
X148881925Y-98068664D01*
X148846003Y-98116490D01*
X148779442Y-98141193D01*
X148770657Y-98141500D01*
X148654500Y-98141500D01*
X148586379Y-98121498D01*
X148539886Y-98067842D01*
X148528500Y-98015500D01*
X148528500Y-96194669D01*
X154542001Y-96194669D01*
X154542371Y-96201490D01*
X154547895Y-96252352D01*
X154551521Y-96267604D01*
X154596676Y-96388054D01*
X154605214Y-96403649D01*
X154681715Y-96505724D01*
X154694276Y-96518285D01*
X154796351Y-96594786D01*
X154811946Y-96603324D01*
X154932394Y-96648478D01*
X154947649Y-96652105D01*
X154998514Y-96657631D01*
X155005328Y-96658000D01*
X155627885Y-96658000D01*
X155643124Y-96653525D01*
X155644329Y-96652135D01*
X155646000Y-96644452D01*
X155646000Y-95572115D01*
X155641525Y-95556876D01*
X155640135Y-95555671D01*
X155632452Y-95554000D01*
X154560116Y-95554000D01*
X154544877Y-95558475D01*
X154543672Y-95559865D01*
X154542001Y-95567548D01*
X154542001Y-96194669D01*
X148528500Y-96194669D01*
X148528500Y-94511344D01*
X148531535Y-94483858D01*
X148539057Y-94450205D01*
X148540788Y-94442463D01*
X148540504Y-94433438D01*
X148541994Y-94409763D01*
X148542166Y-94408677D01*
X148543406Y-94400848D01*
X148542522Y-94391500D01*
X148537898Y-94342574D01*
X148537401Y-94334676D01*
X148535811Y-94284095D01*
X148535562Y-94276169D01*
X148533045Y-94267503D01*
X148528599Y-94244201D01*
X148528495Y-94243101D01*
X148528495Y-94243100D01*
X148527749Y-94235211D01*
X148507914Y-94180116D01*
X148505475Y-94172609D01*
X148491357Y-94124014D01*
X148489145Y-94116400D01*
X148485108Y-94109573D01*
X148484546Y-94108622D01*
X148474451Y-94087169D01*
X148474076Y-94086129D01*
X148471391Y-94078671D01*
X148438489Y-94030258D01*
X148434247Y-94023573D01*
X148408490Y-93980019D01*
X148408489Y-93980018D01*
X148404453Y-93973193D01*
X148398069Y-93966809D01*
X148382952Y-93948537D01*
X148382331Y-93947623D01*
X148382330Y-93947622D01*
X148377874Y-93941065D01*
X148333965Y-93902354D01*
X148328195Y-93896935D01*
X147475405Y-93044145D01*
X147441379Y-92981833D01*
X147438500Y-92955050D01*
X147438500Y-92934516D01*
X147438307Y-92932060D01*
X147436111Y-92904156D01*
X147436110Y-92904151D01*
X147435606Y-92897746D01*
X147389894Y-92740403D01*
X147379985Y-92723647D01*
X147362526Y-92654830D01*
X147379984Y-92595372D01*
X147385395Y-92586222D01*
X147391643Y-92571784D01*
X147426619Y-92451395D01*
X147426579Y-92437295D01*
X147419309Y-92434000D01*
X147141379Y-92434000D01*
X147077240Y-92416454D01*
X147056420Y-92404141D01*
X147056419Y-92404141D01*
X147049597Y-92400106D01*
X147041986Y-92397895D01*
X147041984Y-92397894D01*
X146990769Y-92383015D01*
X146892254Y-92354394D01*
X146885849Y-92353890D01*
X146885844Y-92353889D01*
X146857940Y-92351693D01*
X146857932Y-92351693D01*
X146855484Y-92351500D01*
X146492000Y-92351500D01*
X146423879Y-92331498D01*
X146377386Y-92277842D01*
X146366000Y-92225500D01*
X146366000Y-91907885D01*
X146874000Y-91907885D01*
X146878475Y-91923124D01*
X146879865Y-91924329D01*
X146887548Y-91926000D01*
X147413558Y-91926000D01*
X147427089Y-91922027D01*
X147428224Y-91914129D01*
X147391643Y-91788216D01*
X147385396Y-91773780D01*
X147310124Y-91646501D01*
X147300484Y-91634074D01*
X147195926Y-91529516D01*
X147183499Y-91519876D01*
X147056220Y-91444604D01*
X147041784Y-91438357D01*
X146898359Y-91396688D01*
X146890391Y-91395232D01*
X146876969Y-91398052D01*
X146874000Y-91409513D01*
X146874000Y-91907885D01*
X146366000Y-91907885D01*
X146366000Y-91411576D01*
X146361656Y-91396781D01*
X146351224Y-91394937D01*
X146341645Y-91396687D01*
X146292897Y-91410849D01*
X146279510Y-91419399D01*
X146275500Y-91428114D01*
X146275500Y-91430500D01*
X146255498Y-91498621D01*
X146201842Y-91545114D01*
X146149500Y-91556500D01*
X145124500Y-91556500D01*
X145056379Y-91536498D01*
X145009886Y-91482842D01*
X144998500Y-91430500D01*
X144998500Y-91030385D01*
X145506500Y-91030385D01*
X145510975Y-91045624D01*
X145512365Y-91046829D01*
X145520048Y-91048500D01*
X146217385Y-91048500D01*
X146232624Y-91044025D01*
X146233829Y-91042635D01*
X146235342Y-91035679D01*
X146235163Y-91032218D01*
X146225696Y-90940979D01*
X146222803Y-90927583D01*
X146173670Y-90780313D01*
X146167496Y-90767134D01*
X146086030Y-90635486D01*
X146076994Y-90624085D01*
X145967420Y-90514702D01*
X145956009Y-90505690D01*
X145824209Y-90424447D01*
X145811032Y-90418303D01*
X145663657Y-90369421D01*
X145650290Y-90366555D01*
X145560230Y-90357328D01*
X145553815Y-90357000D01*
X145524615Y-90357000D01*
X145509376Y-90361475D01*
X145508171Y-90362865D01*
X145506500Y-90370548D01*
X145506500Y-91030385D01*
X144998500Y-91030385D01*
X144998500Y-90375115D01*
X144994025Y-90359876D01*
X144992635Y-90358671D01*
X144984952Y-90357000D01*
X144951234Y-90357000D01*
X144944718Y-90357337D01*
X144853479Y-90366804D01*
X144840083Y-90369697D01*
X144692813Y-90418830D01*
X144679634Y-90425004D01*
X144547986Y-90506470D01*
X144536585Y-90515506D01*
X144528736Y-90523369D01*
X144466454Y-90557449D01*
X144395634Y-90552446D01*
X144350467Y-90523447D01*
X144330381Y-90503361D01*
X144323882Y-90499425D01*
X144321751Y-90497754D01*
X144280488Y-90439980D01*
X144273500Y-90398602D01*
X144273500Y-86886146D01*
X144274059Y-86874290D01*
X144275789Y-86866550D01*
X144274154Y-86814516D01*
X144273562Y-86795698D01*
X144273500Y-86791740D01*
X144273500Y-86762655D01*
X144272946Y-86758266D01*
X144272013Y-86746424D01*
X144270811Y-86708181D01*
X144270562Y-86700256D01*
X144264580Y-86679666D01*
X144260570Y-86660303D01*
X144258875Y-86646883D01*
X144258875Y-86646882D01*
X144257882Y-86639023D01*
X144254966Y-86631658D01*
X144254965Y-86631654D01*
X144240874Y-86596066D01*
X144237035Y-86584856D01*
X144224145Y-86540487D01*
X144213225Y-86522022D01*
X144204534Y-86504282D01*
X144196635Y-86484331D01*
X144169482Y-86446958D01*
X144162967Y-86437039D01*
X144143493Y-86404110D01*
X144143490Y-86404106D01*
X144139453Y-86397280D01*
X144124289Y-86382116D01*
X144111448Y-86367082D01*
X144103500Y-86356143D01*
X144098841Y-86349730D01*
X144063241Y-86320279D01*
X144054462Y-86312289D01*
X143272265Y-85530092D01*
X143238239Y-85467780D01*
X143243304Y-85396965D01*
X143284657Y-85341034D01*
X143350036Y-85290867D01*
X143350039Y-85290864D01*
X143353321Y-85288346D01*
X143513473Y-85128194D01*
X143583519Y-85036908D01*
X143584755Y-85037857D01*
X143616537Y-85006075D01*
X143615588Y-85004839D01*
X143639773Y-84986281D01*
X143706874Y-84934793D01*
X143867026Y-84774641D01*
X143937072Y-84683355D01*
X143938308Y-84684304D01*
X143970090Y-84652522D01*
X143969141Y-84651286D01*
X144057149Y-84583755D01*
X144060427Y-84581240D01*
X144220579Y-84421088D01*
X144290625Y-84329802D01*
X144291862Y-84330752D01*
X144323645Y-84298969D01*
X144322695Y-84297732D01*
X144337449Y-84286411D01*
X144413981Y-84227686D01*
X144574133Y-84067534D01*
X144644179Y-83976248D01*
X144645415Y-83977197D01*
X144677197Y-83945415D01*
X144676248Y-83944179D01*
X144758719Y-83880897D01*
X144767534Y-83874133D01*
X144927686Y-83713981D01*
X144930207Y-83710696D01*
X144980374Y-83645317D01*
X145037712Y-83603449D01*
X145108583Y-83599227D01*
X145169432Y-83632925D01*
G37*
%TD.AperFunction*%
%TA.AperFunction,Conductor*%
G36*
X140536925Y-85380482D02*
G01*
X140581988Y-85409443D01*
X141322095Y-86149550D01*
X141356121Y-86211862D01*
X141359000Y-86238645D01*
X141359000Y-90398602D01*
X141338998Y-90466723D01*
X141310749Y-90497754D01*
X141308618Y-90499425D01*
X141302119Y-90503361D01*
X141281952Y-90523528D01*
X141219640Y-90557554D01*
X141148825Y-90552489D01*
X141103837Y-90523604D01*
X141094919Y-90514702D01*
X141083509Y-90505690D01*
X140951709Y-90424447D01*
X140938532Y-90418303D01*
X140791157Y-90369421D01*
X140777790Y-90366555D01*
X140687730Y-90357328D01*
X140681315Y-90357000D01*
X140652115Y-90357000D01*
X140636876Y-90361475D01*
X140635671Y-90362865D01*
X140634000Y-90370548D01*
X140634000Y-91430500D01*
X140613998Y-91498621D01*
X140560342Y-91545114D01*
X140508000Y-91556500D01*
X139483000Y-91556500D01*
X139414879Y-91536498D01*
X139368386Y-91482842D01*
X139359954Y-91444080D01*
X139352525Y-91418780D01*
X139345275Y-91412497D01*
X139290855Y-91396687D01*
X139282891Y-91395232D01*
X139269469Y-91398052D01*
X139266500Y-91409513D01*
X139266500Y-92225500D01*
X139246498Y-92293621D01*
X139192842Y-92340114D01*
X139140500Y-92351500D01*
X138884500Y-92351500D01*
X138816379Y-92331498D01*
X138769886Y-92277842D01*
X138758500Y-92225500D01*
X138758500Y-91411576D01*
X138754156Y-91396781D01*
X138743724Y-91394937D01*
X138734142Y-91396687D01*
X138725399Y-91399228D01*
X138712010Y-91407778D01*
X138697799Y-91438665D01*
X138695256Y-91437495D01*
X138683582Y-91468655D01*
X138626684Y-91511119D01*
X138582823Y-91519000D01*
X137557000Y-91519000D01*
X137488879Y-91498998D01*
X137442386Y-91445342D01*
X137431000Y-91393000D01*
X137431000Y-91031700D01*
X139397386Y-91031700D01*
X139401475Y-91045624D01*
X139402865Y-91046829D01*
X139410548Y-91048500D01*
X140107885Y-91048500D01*
X140123124Y-91044025D01*
X140124329Y-91042635D01*
X140126000Y-91034952D01*
X140126000Y-90375115D01*
X140121525Y-90359876D01*
X140120135Y-90358671D01*
X140112452Y-90357000D01*
X140078734Y-90357000D01*
X140072218Y-90357337D01*
X139980979Y-90366804D01*
X139967583Y-90369697D01*
X139820313Y-90418830D01*
X139807134Y-90425004D01*
X139675486Y-90506470D01*
X139664085Y-90515506D01*
X139554702Y-90625080D01*
X139545690Y-90636491D01*
X139464447Y-90768291D01*
X139458303Y-90781468D01*
X139409421Y-90928843D01*
X139406555Y-90942210D01*
X139397386Y-91031700D01*
X137431000Y-91031700D01*
X137431000Y-90992885D01*
X137939000Y-90992885D01*
X137943475Y-91008124D01*
X137944865Y-91009329D01*
X137952548Y-91011000D01*
X138649884Y-91011000D01*
X138665123Y-91006525D01*
X138666328Y-91005135D01*
X138667291Y-91000706D01*
X138661868Y-90941685D01*
X138659257Y-90928649D01*
X138612285Y-90778757D01*
X138606079Y-90765012D01*
X138525176Y-90631426D01*
X138515869Y-90619557D01*
X138405443Y-90509131D01*
X138393574Y-90499824D01*
X138259988Y-90418921D01*
X138246243Y-90412715D01*
X138096356Y-90365744D01*
X138083306Y-90363131D01*
X138019479Y-90357266D01*
X138013691Y-90357000D01*
X137957115Y-90357000D01*
X137941876Y-90361475D01*
X137940671Y-90362865D01*
X137939000Y-90370548D01*
X137939000Y-90992885D01*
X137431000Y-90992885D01*
X137431000Y-90375116D01*
X137426525Y-90359877D01*
X137425135Y-90358672D01*
X137417452Y-90357001D01*
X137356295Y-90357001D01*
X137350546Y-90357264D01*
X137286685Y-90363132D01*
X137273649Y-90365743D01*
X137123757Y-90412715D01*
X137110012Y-90418921D01*
X136976426Y-90499824D01*
X136964409Y-90509247D01*
X136898461Y-90535542D01*
X136828766Y-90522009D01*
X136808913Y-90509250D01*
X136808251Y-90508731D01*
X136802881Y-90503361D01*
X136796385Y-90499427D01*
X136794254Y-90497756D01*
X136752989Y-90439983D01*
X136746000Y-90398602D01*
X136746000Y-89095438D01*
X137317000Y-89095438D01*
X137317337Y-89101953D01*
X137326894Y-89194057D01*
X137329788Y-89207456D01*
X137379381Y-89356107D01*
X137385555Y-89369286D01*
X137467788Y-89502173D01*
X137476824Y-89513574D01*
X137587429Y-89623986D01*
X137598840Y-89632998D01*
X137731880Y-89715004D01*
X137745061Y-89721151D01*
X137893814Y-89770491D01*
X137907190Y-89773358D01*
X137998097Y-89782672D01*
X138004513Y-89783000D01*
X138027885Y-89783000D01*
X138043124Y-89778525D01*
X138044329Y-89777135D01*
X138046000Y-89769452D01*
X138046000Y-89764885D01*
X138554000Y-89764885D01*
X138558475Y-89780124D01*
X138559865Y-89781329D01*
X138567548Y-89783000D01*
X138595438Y-89783000D01*
X138601953Y-89782663D01*
X138694057Y-89773106D01*
X138707456Y-89770212D01*
X138856107Y-89720619D01*
X138869286Y-89714445D01*
X139002173Y-89632212D01*
X139013574Y-89623176D01*
X139123986Y-89512571D01*
X139132998Y-89501160D01*
X139215004Y-89368120D01*
X139221151Y-89354939D01*
X139270491Y-89206186D01*
X139273358Y-89192810D01*
X139282672Y-89101903D01*
X139282929Y-89096874D01*
X139278525Y-89081876D01*
X139277135Y-89080671D01*
X139269452Y-89079000D01*
X138572115Y-89079000D01*
X138556876Y-89083475D01*
X138555671Y-89084865D01*
X138554000Y-89092548D01*
X138554000Y-89764885D01*
X138046000Y-89764885D01*
X138046000Y-89097115D01*
X138041525Y-89081876D01*
X138040135Y-89080671D01*
X138032452Y-89079000D01*
X137335115Y-89079000D01*
X137319876Y-89083475D01*
X137318671Y-89084865D01*
X137317000Y-89092548D01*
X137317000Y-89095438D01*
X136746000Y-89095438D01*
X136746000Y-87702450D01*
X136766002Y-87634329D01*
X136782905Y-87613355D01*
X137101405Y-87294855D01*
X137163717Y-87260829D01*
X137234532Y-87265894D01*
X137291368Y-87308441D01*
X137316179Y-87374961D01*
X137316500Y-87383950D01*
X137316500Y-87548732D01*
X137327113Y-87651019D01*
X137329295Y-87657559D01*
X137378688Y-87805606D01*
X137381244Y-87813268D01*
X137471248Y-87958713D01*
X137476430Y-87963886D01*
X137480977Y-87969623D01*
X137479170Y-87971055D01*
X137507902Y-88023575D01*
X137502892Y-88094395D01*
X137479501Y-88130853D01*
X137480552Y-88131683D01*
X137467002Y-88148840D01*
X137384996Y-88281880D01*
X137378849Y-88295061D01*
X137329509Y-88443814D01*
X137326642Y-88457190D01*
X137317328Y-88548097D01*
X137317071Y-88553126D01*
X137321475Y-88568124D01*
X137322865Y-88569329D01*
X137330548Y-88571000D01*
X139197000Y-88571000D01*
X139265121Y-88591002D01*
X139311614Y-88644658D01*
X139323000Y-88697000D01*
X139323000Y-88716539D01*
X139327475Y-88731778D01*
X139334725Y-88738061D01*
X139421641Y-88763312D01*
X139429609Y-88764768D01*
X139443031Y-88761948D01*
X139446000Y-88750487D01*
X139446000Y-88748424D01*
X139954000Y-88748424D01*
X139958344Y-88763219D01*
X139968775Y-88765063D01*
X139978359Y-88763312D01*
X140121784Y-88721643D01*
X140136220Y-88715396D01*
X140263499Y-88640124D01*
X140275926Y-88630484D01*
X140380484Y-88525926D01*
X140390124Y-88513499D01*
X140465396Y-88386220D01*
X140471643Y-88371784D01*
X140506619Y-88251395D01*
X140506579Y-88237295D01*
X140499309Y-88234000D01*
X139972115Y-88234000D01*
X139956876Y-88238475D01*
X139955671Y-88239865D01*
X139954000Y-88247548D01*
X139954000Y-88748424D01*
X139446000Y-88748424D01*
X139446000Y-87934500D01*
X139466002Y-87866379D01*
X139519658Y-87819886D01*
X139572000Y-87808500D01*
X139935484Y-87808500D01*
X139937932Y-87808307D01*
X139937940Y-87808307D01*
X139965844Y-87806111D01*
X139965849Y-87806110D01*
X139972254Y-87805606D01*
X140071005Y-87776916D01*
X140121984Y-87762106D01*
X140121986Y-87762105D01*
X140129597Y-87759894D01*
X140157240Y-87743546D01*
X140221379Y-87726000D01*
X140493558Y-87726000D01*
X140507089Y-87722027D01*
X140508224Y-87714129D01*
X140471643Y-87588216D01*
X140465395Y-87573778D01*
X140459984Y-87564628D01*
X140442526Y-87495812D01*
X140459985Y-87436353D01*
X140465857Y-87426423D01*
X140469894Y-87419597D01*
X140515606Y-87262254D01*
X140516605Y-87249571D01*
X140518307Y-87227940D01*
X140518307Y-87227932D01*
X140518500Y-87225484D01*
X140518500Y-86814516D01*
X140516864Y-86793727D01*
X140516111Y-86784156D01*
X140516110Y-86784151D01*
X140515606Y-86777746D01*
X140469894Y-86620403D01*
X140386488Y-86479371D01*
X140270629Y-86363512D01*
X140129597Y-86280106D01*
X140121986Y-86277895D01*
X140121984Y-86277894D01*
X140048798Y-86256632D01*
X139972254Y-86234394D01*
X139965849Y-86233890D01*
X139965844Y-86233889D01*
X139937940Y-86231693D01*
X139937932Y-86231693D01*
X139935484Y-86231500D01*
X139885931Y-86231500D01*
X139817810Y-86211498D01*
X139771317Y-86157842D01*
X139761213Y-86087568D01*
X139790707Y-86022988D01*
X139796836Y-86016405D01*
X140403798Y-85409443D01*
X140466110Y-85375417D01*
X140536925Y-85380482D01*
G37*
%TD.AperFunction*%
%TA.AperFunction,Conductor*%
G36*
X153050053Y-54528502D02*
G01*
X153096546Y-54582158D01*
X153106650Y-54652432D01*
X153077156Y-54717012D01*
X153071495Y-54723125D01*
X152889466Y-54907071D01*
X152675386Y-55180098D01*
X152494105Y-55475921D01*
X152492580Y-55479206D01*
X152492578Y-55479210D01*
X152426529Y-55621501D01*
X152348027Y-55790620D01*
X152293176Y-55956473D01*
X152243985Y-56105214D01*
X152239087Y-56120023D01*
X152238351Y-56123578D01*
X152238350Y-56123581D01*
X152171239Y-56447649D01*
X152168730Y-56459764D01*
X152137888Y-56805341D01*
X152137983Y-56808971D01*
X152137983Y-56808972D01*
X152142620Y-56986060D01*
X152146970Y-57152171D01*
X152195856Y-57495660D01*
X152283897Y-57831253D01*
X152409927Y-58154503D01*
X152411624Y-58157708D01*
X152554400Y-58427365D01*
X152572275Y-58461126D01*
X152574325Y-58464109D01*
X152574327Y-58464112D01*
X152766733Y-58744064D01*
X152766739Y-58744071D01*
X152768790Y-58747056D01*
X152869059Y-58861997D01*
X152981226Y-58990576D01*
X152996866Y-59008505D01*
X153111344Y-59112672D01*
X153242563Y-59232071D01*
X153253481Y-59242006D01*
X153535233Y-59444466D01*
X153838388Y-59613200D01*
X154158928Y-59745972D01*
X154162422Y-59746967D01*
X154162424Y-59746968D01*
X154489103Y-59840025D01*
X154489108Y-59840026D01*
X154492604Y-59841022D01*
X154689304Y-59873233D01*
X154831412Y-59896504D01*
X154831419Y-59896505D01*
X154834993Y-59897090D01*
X154958212Y-59902901D01*
X155177931Y-59913263D01*
X155177932Y-59913263D01*
X155181558Y-59913434D01*
X155203517Y-59911937D01*
X155524073Y-59890084D01*
X155524081Y-59890083D01*
X155527704Y-59889836D01*
X155531279Y-59889173D01*
X155531282Y-59889173D01*
X155865279Y-59827270D01*
X155865283Y-59827269D01*
X155868844Y-59826609D01*
X156200456Y-59724592D01*
X156518145Y-59585136D01*
X156583211Y-59547115D01*
X156814561Y-59411925D01*
X156817700Y-59410091D01*
X156843056Y-59391053D01*
X157092244Y-59203958D01*
X157092248Y-59203955D01*
X157095151Y-59201775D01*
X157278767Y-59027529D01*
X157341949Y-58995147D01*
X157412607Y-59002063D01*
X157468310Y-59046083D01*
X157491500Y-59118926D01*
X157491500Y-77260470D01*
X157471498Y-77328591D01*
X157417842Y-77375084D01*
X157347568Y-77385188D01*
X157282988Y-77355694D01*
X157243296Y-77291166D01*
X157219419Y-77196109D01*
X157190431Y-77080702D01*
X157101354Y-76875840D01*
X157024800Y-76757506D01*
X156982822Y-76692617D01*
X156982820Y-76692614D01*
X156980014Y-76688277D01*
X156829670Y-76523051D01*
X156825619Y-76519852D01*
X156825615Y-76519848D01*
X156658414Y-76387800D01*
X156658410Y-76387798D01*
X156654359Y-76384598D01*
X156458789Y-76276638D01*
X156453920Y-76274914D01*
X156453916Y-76274912D01*
X156253087Y-76203795D01*
X156253083Y-76203794D01*
X156248212Y-76202069D01*
X156243119Y-76201162D01*
X156243116Y-76201161D01*
X156033373Y-76163800D01*
X156033367Y-76163799D01*
X156028284Y-76162894D01*
X155954452Y-76161992D01*
X155810081Y-76160228D01*
X155810079Y-76160228D01*
X155804911Y-76160165D01*
X155584091Y-76193955D01*
X155371756Y-76263357D01*
X155342663Y-76278502D01*
X155181516Y-76362390D01*
X155173607Y-76366507D01*
X155169474Y-76369610D01*
X155169471Y-76369612D01*
X154999100Y-76497530D01*
X154994965Y-76500635D01*
X154991393Y-76504373D01*
X154854292Y-76647841D01*
X154840629Y-76662138D01*
X154837715Y-76666410D01*
X154837714Y-76666411D01*
X154831602Y-76675371D01*
X154714743Y-76846680D01*
X154685171Y-76910388D01*
X154625985Y-77037894D01*
X154620688Y-77049305D01*
X154560989Y-77264570D01*
X154537251Y-77486695D01*
X154537548Y-77491848D01*
X154537548Y-77491851D01*
X154545897Y-77636645D01*
X154550110Y-77709715D01*
X154551247Y-77714761D01*
X154551248Y-77714767D01*
X154558225Y-77745725D01*
X154599222Y-77927639D01*
X154651959Y-78057515D01*
X154675903Y-78116482D01*
X154683266Y-78134616D01*
X154713404Y-78183797D01*
X154771059Y-78277881D01*
X154799987Y-78325088D01*
X154946250Y-78493938D01*
X155118126Y-78636632D01*
X155188595Y-78677811D01*
X155191445Y-78679476D01*
X155240169Y-78731114D01*
X155253240Y-78800897D01*
X155226509Y-78866669D01*
X155186055Y-78900027D01*
X155173607Y-78906507D01*
X155169474Y-78909610D01*
X155169471Y-78909612D01*
X155145247Y-78927800D01*
X154994965Y-79040635D01*
X154840629Y-79202138D01*
X154837715Y-79206410D01*
X154837714Y-79206411D01*
X154811761Y-79244457D01*
X154714743Y-79386680D01*
X154699003Y-79420590D01*
X154630710Y-79567715D01*
X154620688Y-79589305D01*
X154560989Y-79804570D01*
X154537251Y-80026695D01*
X154537548Y-80031848D01*
X154537548Y-80031851D01*
X154545283Y-80166002D01*
X154550110Y-80249715D01*
X154551247Y-80254761D01*
X154551248Y-80254767D01*
X154558225Y-80285725D01*
X154599222Y-80467639D01*
X154641078Y-80570719D01*
X154672175Y-80647301D01*
X154683266Y-80674616D01*
X154708402Y-80715634D01*
X154793159Y-80853945D01*
X154799987Y-80865088D01*
X154946250Y-81033938D01*
X155118126Y-81176632D01*
X155152652Y-81196807D01*
X155191445Y-81219476D01*
X155240169Y-81271114D01*
X155253240Y-81340897D01*
X155226509Y-81406669D01*
X155186055Y-81440027D01*
X155173607Y-81446507D01*
X155169474Y-81449610D01*
X155169471Y-81449612D01*
X155064706Y-81528272D01*
X154994965Y-81580635D01*
X154840629Y-81742138D01*
X154714743Y-81926680D01*
X154620688Y-82129305D01*
X154560989Y-82344570D01*
X154537251Y-82566695D01*
X154537548Y-82571848D01*
X154537548Y-82571851D01*
X154538533Y-82588932D01*
X154550110Y-82789715D01*
X154551247Y-82794761D01*
X154551248Y-82794767D01*
X154558225Y-82825725D01*
X154599222Y-83007639D01*
X154683266Y-83214616D01*
X154715567Y-83267326D01*
X154755296Y-83332158D01*
X154799987Y-83405088D01*
X154946250Y-83573938D01*
X155118126Y-83716632D01*
X155154349Y-83737799D01*
X155191445Y-83759476D01*
X155240169Y-83811114D01*
X155253240Y-83880897D01*
X155226509Y-83946669D01*
X155186055Y-83980027D01*
X155173607Y-83986507D01*
X155169474Y-83989610D01*
X155169471Y-83989612D01*
X155038500Y-84087948D01*
X154994965Y-84120635D01*
X154840629Y-84282138D01*
X154714743Y-84466680D01*
X154620688Y-84669305D01*
X154560989Y-84884570D01*
X154560440Y-84889707D01*
X154538293Y-85096945D01*
X154511165Y-85162555D01*
X154452873Y-85203083D01*
X154381923Y-85205662D01*
X154323911Y-85172651D01*
X147513655Y-78362395D01*
X147505665Y-78353615D01*
X147505663Y-78353613D01*
X147501416Y-78346920D01*
X147482323Y-78328990D01*
X147449743Y-78298396D01*
X147446901Y-78295641D01*
X147426333Y-78275073D01*
X147422826Y-78272353D01*
X147413804Y-78264647D01*
X147385913Y-78238456D01*
X147380133Y-78233028D01*
X147373181Y-78229206D01*
X147361342Y-78222697D01*
X147344818Y-78211843D01*
X147334132Y-78203555D01*
X147327868Y-78198696D01*
X147320596Y-78195549D01*
X147320594Y-78195548D01*
X147285465Y-78180346D01*
X147274805Y-78175124D01*
X147241284Y-78156695D01*
X147241282Y-78156694D01*
X147234337Y-78152876D01*
X147213559Y-78147541D01*
X147194869Y-78141142D01*
X147175176Y-78132620D01*
X147129552Y-78125394D01*
X147117929Y-78122987D01*
X147083661Y-78114189D01*
X147073188Y-78111500D01*
X147051741Y-78111500D01*
X147032031Y-78109949D01*
X147010848Y-78106594D01*
X146964859Y-78110941D01*
X146953004Y-78111500D01*
X146194040Y-78111500D01*
X146182184Y-78110941D01*
X146174444Y-78109211D01*
X146166518Y-78109460D01*
X146166517Y-78109460D01*
X146103592Y-78111438D01*
X146099634Y-78111500D01*
X146070549Y-78111500D01*
X146066618Y-78111997D01*
X146066611Y-78111997D01*
X146066160Y-78112054D01*
X146054324Y-78112986D01*
X146008150Y-78114438D01*
X145987560Y-78120420D01*
X145968199Y-78124430D01*
X145961211Y-78125312D01*
X145954777Y-78126125D01*
X145954776Y-78126125D01*
X145946917Y-78127118D01*
X145939552Y-78130034D01*
X145939548Y-78130035D01*
X145903960Y-78144126D01*
X145892749Y-78147965D01*
X145870717Y-78154366D01*
X145799721Y-78154160D01*
X145758868Y-78133331D01*
X145747312Y-78124464D01*
X145736909Y-78116482D01*
X145737858Y-78115245D01*
X145706076Y-78083463D01*
X145704839Y-78084412D01*
X145670881Y-78040157D01*
X145634793Y-77993126D01*
X145474641Y-77832974D01*
X145383355Y-77762928D01*
X145384305Y-77761691D01*
X145352522Y-77729908D01*
X145351285Y-77730858D01*
X145338938Y-77714767D01*
X145281239Y-77639572D01*
X145121087Y-77479420D01*
X145029801Y-77409374D01*
X145030750Y-77408138D01*
X144998968Y-77376356D01*
X144997732Y-77377305D01*
X144977093Y-77350408D01*
X144927686Y-77286019D01*
X144767534Y-77125867D01*
X144764257Y-77123352D01*
X144764253Y-77123349D01*
X144752670Y-77114461D01*
X144710803Y-77057122D01*
X144706582Y-76986251D01*
X144741347Y-76924349D01*
X144804060Y-76891068D01*
X144829372Y-76888499D01*
X144949988Y-76888499D01*
X144986466Y-76885629D01*
X145104369Y-76851375D01*
X145134983Y-76842481D01*
X145134985Y-76842480D01*
X145142596Y-76840269D01*
X145196353Y-76808477D01*
X145265166Y-76791018D01*
X145324630Y-76808478D01*
X145370780Y-76835771D01*
X145385217Y-76842019D01*
X145498605Y-76874961D01*
X145512705Y-76874921D01*
X145516000Y-76867651D01*
X145516000Y-76861900D01*
X146024000Y-76861900D01*
X146027973Y-76875431D01*
X146035871Y-76876566D01*
X146154783Y-76842019D01*
X146169222Y-76835770D01*
X146295405Y-76761146D01*
X146307841Y-76751499D01*
X146411499Y-76647841D01*
X146421146Y-76635405D01*
X146495770Y-76509222D01*
X146502019Y-76494783D01*
X146543338Y-76352564D01*
X146545637Y-76339977D01*
X146546260Y-76332057D01*
X146543090Y-76316970D01*
X146531626Y-76314000D01*
X146042115Y-76314000D01*
X146026876Y-76318475D01*
X146025671Y-76319865D01*
X146024000Y-76327548D01*
X146024000Y-76861900D01*
X145516000Y-76861900D01*
X145516000Y-76397542D01*
X145521003Y-76362390D01*
X145523834Y-76352647D01*
X145523835Y-76352640D01*
X145525629Y-76346466D01*
X145528185Y-76314000D01*
X145528307Y-76312444D01*
X145528307Y-76312438D01*
X145528500Y-76309989D01*
X145528499Y-75931999D01*
X145548501Y-75863880D01*
X145602156Y-75817387D01*
X145654499Y-75806000D01*
X146529566Y-75806000D01*
X146544361Y-75801656D01*
X146546421Y-75789997D01*
X146545637Y-75780023D01*
X146543338Y-75767437D01*
X146524171Y-75701466D01*
X146524374Y-75630470D01*
X146562927Y-75570854D01*
X146576455Y-75561250D01*
X146576752Y-75561118D01*
X146581484Y-75557680D01*
X146698636Y-75472564D01*
X146765504Y-75448705D01*
X146772697Y-75448500D01*
X155168595Y-75448500D01*
X155236716Y-75468502D01*
X155242656Y-75472564D01*
X155323248Y-75531118D01*
X155329276Y-75533802D01*
X155329278Y-75533803D01*
X155491681Y-75606109D01*
X155497712Y-75608794D01*
X155563130Y-75622699D01*
X155678056Y-75647128D01*
X155678061Y-75647128D01*
X155684513Y-75648500D01*
X155875487Y-75648500D01*
X155881939Y-75647128D01*
X155881944Y-75647128D01*
X155996870Y-75622699D01*
X156062288Y-75608794D01*
X156068319Y-75606109D01*
X156230722Y-75533803D01*
X156230724Y-75533802D01*
X156236752Y-75531118D01*
X156262345Y-75512524D01*
X156342766Y-75454094D01*
X156391253Y-75418866D01*
X156402643Y-75406216D01*
X156514621Y-75281852D01*
X156514622Y-75281851D01*
X156519040Y-75276944D01*
X156596261Y-75143193D01*
X156611223Y-75117279D01*
X156611224Y-75117278D01*
X156614527Y-75111556D01*
X156673542Y-74929928D01*
X156681071Y-74858299D01*
X156692814Y-74746565D01*
X156693504Y-74740000D01*
X156690578Y-74712158D01*
X156674232Y-74556635D01*
X156674232Y-74556633D01*
X156673542Y-74550072D01*
X156614527Y-74368444D01*
X156588243Y-74322918D01*
X156522341Y-74208774D01*
X156519040Y-74203056D01*
X156391253Y-74061134D01*
X156236752Y-73948882D01*
X156230724Y-73946198D01*
X156230722Y-73946197D01*
X156068319Y-73873891D01*
X156068318Y-73873891D01*
X156062288Y-73871206D01*
X155946362Y-73846565D01*
X155881944Y-73832872D01*
X155881939Y-73832872D01*
X155875487Y-73831500D01*
X155684513Y-73831500D01*
X155678061Y-73832872D01*
X155678056Y-73832872D01*
X155613638Y-73846565D01*
X155497712Y-73871206D01*
X155491682Y-73873891D01*
X155491681Y-73873891D01*
X155329278Y-73946197D01*
X155329276Y-73946198D01*
X155323248Y-73948882D01*
X155168747Y-74061134D01*
X155164334Y-74066036D01*
X155164332Y-74066037D01*
X155142926Y-74089811D01*
X155082480Y-74127050D01*
X155049290Y-74131500D01*
X150902804Y-74131500D01*
X150834683Y-74111498D01*
X150788190Y-74057842D01*
X150777494Y-73992330D01*
X150792814Y-73846565D01*
X150793504Y-73840000D01*
X150786881Y-73776986D01*
X150774232Y-73656635D01*
X150774232Y-73656633D01*
X150773542Y-73650072D01*
X150714527Y-73468444D01*
X150619040Y-73303056D01*
X150577080Y-73256454D01*
X150495675Y-73166045D01*
X150495674Y-73166044D01*
X150491253Y-73161134D01*
X150377423Y-73078431D01*
X150342094Y-73052763D01*
X150342093Y-73052762D01*
X150336752Y-73048882D01*
X150330724Y-73046198D01*
X150330722Y-73046197D01*
X150168319Y-72973891D01*
X150168318Y-72973891D01*
X150162288Y-72971206D01*
X150098969Y-72957747D01*
X150036495Y-72924018D01*
X150002174Y-72861869D01*
X150006902Y-72791030D01*
X150049178Y-72733992D01*
X150115579Y-72708865D01*
X150125166Y-72708500D01*
X154740786Y-72708500D01*
X154742106Y-72708507D01*
X154832221Y-72709451D01*
X154874597Y-72700289D01*
X154887163Y-72698231D01*
X154930255Y-72693397D01*
X154936906Y-72691081D01*
X154936910Y-72691080D01*
X154961930Y-72682367D01*
X154976742Y-72678204D01*
X155002619Y-72672609D01*
X155009510Y-72671119D01*
X155048813Y-72652792D01*
X155060589Y-72648010D01*
X155101552Y-72633745D01*
X155107527Y-72630011D01*
X155107530Y-72630010D01*
X155129995Y-72615973D01*
X155143512Y-72608634D01*
X155167514Y-72597441D01*
X155167515Y-72597440D01*
X155173902Y-72594462D01*
X155208153Y-72567894D01*
X155218612Y-72560598D01*
X155249404Y-72541358D01*
X155249407Y-72541356D01*
X155255376Y-72537626D01*
X155263449Y-72529609D01*
X155284179Y-72509024D01*
X155284804Y-72508439D01*
X155285470Y-72507922D01*
X155311460Y-72481932D01*
X155384082Y-72409815D01*
X155384740Y-72408778D01*
X155385843Y-72407549D01*
X156135158Y-71658234D01*
X156136095Y-71657306D01*
X156195475Y-71599157D01*
X156195476Y-71599156D01*
X156200507Y-71594229D01*
X156223998Y-71557779D01*
X156231417Y-71547454D01*
X156258476Y-71513557D01*
X156273073Y-71483362D01*
X156280602Y-71469945D01*
X156294948Y-71447684D01*
X156298765Y-71441762D01*
X156301173Y-71435145D01*
X156301176Y-71435140D01*
X156313592Y-71401027D01*
X156318553Y-71389284D01*
X156334354Y-71356597D01*
X156334356Y-71356592D01*
X156337421Y-71350251D01*
X156344965Y-71317572D01*
X156349332Y-71302831D01*
X156360803Y-71271315D01*
X156361686Y-71264325D01*
X156361688Y-71264317D01*
X156366238Y-71228299D01*
X156368474Y-71215747D01*
X156376638Y-71180386D01*
X156376638Y-71180383D01*
X156378224Y-71173515D01*
X156378277Y-71158500D01*
X156378366Y-71132944D01*
X156378395Y-71132062D01*
X156378500Y-71131231D01*
X156378500Y-71094428D01*
X156378674Y-71044582D01*
X156378845Y-70995657D01*
X156378845Y-70995652D01*
X156378857Y-70992130D01*
X156378589Y-70990930D01*
X156378500Y-70989293D01*
X156378500Y-68999813D01*
X156384667Y-68960877D01*
X156412325Y-68875754D01*
X156412325Y-68875753D01*
X156414365Y-68869475D01*
X156433229Y-68690000D01*
X156424618Y-68608070D01*
X156415055Y-68517089D01*
X156415055Y-68517088D01*
X156414365Y-68510525D01*
X156408184Y-68491500D01*
X156360641Y-68345178D01*
X156358599Y-68338893D01*
X156331617Y-68292158D01*
X156289013Y-68218367D01*
X156268367Y-68182607D01*
X156244208Y-68155775D01*
X156152035Y-68053407D01*
X156152034Y-68053406D01*
X156147613Y-68048496D01*
X156141863Y-68044318D01*
X156006957Y-67946303D01*
X156006956Y-67946302D01*
X156001615Y-67942422D01*
X155995587Y-67939738D01*
X155995585Y-67939737D01*
X155842783Y-67871705D01*
X155842781Y-67871705D01*
X155836752Y-67869020D01*
X155748492Y-67850260D01*
X155666689Y-67832872D01*
X155666685Y-67832872D01*
X155660232Y-67831500D01*
X155479768Y-67831500D01*
X155473315Y-67832872D01*
X155473311Y-67832872D01*
X155391508Y-67850260D01*
X155303248Y-67869020D01*
X155297219Y-67871704D01*
X155297217Y-67871705D01*
X155144416Y-67939737D01*
X155144414Y-67939738D01*
X155138386Y-67942422D01*
X155133045Y-67946302D01*
X155133044Y-67946303D01*
X154997731Y-68044613D01*
X154997729Y-68044615D01*
X154992387Y-68048496D01*
X154987966Y-68053406D01*
X154987965Y-68053407D01*
X154895793Y-68155775D01*
X154871633Y-68182607D01*
X154850987Y-68218367D01*
X154808384Y-68292158D01*
X154781401Y-68338893D01*
X154779359Y-68345178D01*
X154731817Y-68491500D01*
X154725635Y-68510525D01*
X154724945Y-68517088D01*
X154724945Y-68517089D01*
X154715382Y-68608070D01*
X154706771Y-68690000D01*
X154725635Y-68869475D01*
X154727675Y-68875753D01*
X154727675Y-68875754D01*
X154755333Y-68960877D01*
X154761500Y-68999813D01*
X154761500Y-70692918D01*
X154741498Y-70761039D01*
X154724595Y-70782013D01*
X154452013Y-71054595D01*
X154389701Y-71088621D01*
X154362918Y-71091500D01*
X153032983Y-71091500D01*
X152964862Y-71071498D01*
X152918369Y-71017842D01*
X152908265Y-70947568D01*
X152913388Y-70925840D01*
X152930297Y-70874861D01*
X152931379Y-70864308D01*
X152940672Y-70773598D01*
X152941000Y-70770400D01*
X152941000Y-69769600D01*
X152940663Y-69766350D01*
X152930738Y-69670692D01*
X152930737Y-69670688D01*
X152930026Y-69663834D01*
X152921874Y-69639398D01*
X152876368Y-69503002D01*
X152874050Y-69496054D01*
X152780978Y-69345652D01*
X152765482Y-69330183D01*
X152731403Y-69267901D01*
X152728500Y-69241010D01*
X152728500Y-67737295D01*
X152748502Y-67669174D01*
X152766343Y-67647271D01*
X152815471Y-67599161D01*
X152815473Y-67599159D01*
X152820507Y-67594229D01*
X152824322Y-67588310D01*
X152824328Y-67588302D01*
X152843994Y-67557786D01*
X152851427Y-67547441D01*
X152878476Y-67513557D01*
X152893073Y-67483362D01*
X152900602Y-67469945D01*
X152904216Y-67464337D01*
X152918765Y-67441762D01*
X152921173Y-67435145D01*
X152921176Y-67435140D01*
X152933592Y-67401027D01*
X152938553Y-67389284D01*
X152954353Y-67356600D01*
X152954356Y-67356591D01*
X152957421Y-67350251D01*
X152964966Y-67317572D01*
X152969334Y-67302825D01*
X152980803Y-67271315D01*
X152981685Y-67264330D01*
X152981687Y-67264323D01*
X152986237Y-67228308D01*
X152988472Y-67215757D01*
X152996640Y-67180378D01*
X152998225Y-67173515D01*
X152998367Y-67132926D01*
X152998396Y-67132057D01*
X152998500Y-67131231D01*
X152998500Y-67094714D01*
X152998621Y-67060130D01*
X152998846Y-66995664D01*
X152998846Y-66995658D01*
X152998858Y-66992130D01*
X152998589Y-66990927D01*
X152998500Y-66989283D01*
X152998500Y-65245369D01*
X153018502Y-65177248D01*
X153058193Y-65138228D01*
X153114348Y-65103478D01*
X153239305Y-64978303D01*
X153264228Y-64937871D01*
X153328275Y-64833968D01*
X153328276Y-64833966D01*
X153332115Y-64827738D01*
X153387797Y-64659861D01*
X153390888Y-64629699D01*
X153397741Y-64562808D01*
X153398500Y-64555400D01*
X153398500Y-63929600D01*
X153396311Y-63908500D01*
X153388238Y-63830692D01*
X153388237Y-63830688D01*
X153387526Y-63823834D01*
X153377400Y-63793481D01*
X153335694Y-63668475D01*
X153331550Y-63656054D01*
X153238478Y-63505652D01*
X153151537Y-63418862D01*
X153117458Y-63356579D01*
X153122461Y-63285759D01*
X153151382Y-63240671D01*
X153233739Y-63158171D01*
X153242751Y-63146760D01*
X153327816Y-63008757D01*
X153333963Y-62995576D01*
X153385138Y-62841290D01*
X153388005Y-62827914D01*
X153397672Y-62733562D01*
X153398000Y-62727146D01*
X153398000Y-62689615D01*
X153393525Y-62674376D01*
X153392135Y-62673171D01*
X153384452Y-62671500D01*
X152062000Y-62671500D01*
X151993879Y-62651498D01*
X151947386Y-62597842D01*
X151936000Y-62545500D01*
X151936000Y-62145385D01*
X152444000Y-62145385D01*
X152448475Y-62160624D01*
X152449865Y-62161829D01*
X152457548Y-62163500D01*
X153379884Y-62163500D01*
X153395123Y-62159025D01*
X153396328Y-62157635D01*
X153397999Y-62149952D01*
X153397999Y-62107905D01*
X153397662Y-62101386D01*
X153387743Y-62005794D01*
X153384851Y-61992400D01*
X153333412Y-61838216D01*
X153327239Y-61825038D01*
X153241937Y-61687193D01*
X153232901Y-61675792D01*
X153118171Y-61561261D01*
X153106760Y-61552249D01*
X152968757Y-61467184D01*
X152955576Y-61461037D01*
X152801290Y-61409862D01*
X152787914Y-61406995D01*
X152693562Y-61397328D01*
X152687145Y-61397000D01*
X152462115Y-61397000D01*
X152446876Y-61401475D01*
X152445671Y-61402865D01*
X152444000Y-61410548D01*
X152444000Y-62145385D01*
X151936000Y-62145385D01*
X151936000Y-61415116D01*
X151931525Y-61399877D01*
X151930135Y-61398672D01*
X151922452Y-61397001D01*
X151692905Y-61397001D01*
X151686386Y-61397338D01*
X151590794Y-61407257D01*
X151577400Y-61410149D01*
X151423216Y-61461588D01*
X151410038Y-61467761D01*
X151272193Y-61553063D01*
X151260792Y-61562099D01*
X151146261Y-61676829D01*
X151137247Y-61688243D01*
X151136562Y-61689354D01*
X151135896Y-61689953D01*
X151132712Y-61693985D01*
X151132022Y-61693440D01*
X151083790Y-61736847D01*
X151013718Y-61748269D01*
X150948594Y-61719995D01*
X150909095Y-61661001D01*
X150903500Y-61630117D01*
X150903500Y-61626866D01*
X150896745Y-61564684D01*
X150845615Y-61428295D01*
X150758261Y-61311739D01*
X150641705Y-61224385D01*
X150505316Y-61173255D01*
X150443134Y-61166500D01*
X149746866Y-61166500D01*
X149684684Y-61173255D01*
X149548295Y-61224385D01*
X149541112Y-61229768D01*
X149541109Y-61229770D01*
X149535147Y-61234239D01*
X149468641Y-61259086D01*
X149399258Y-61244033D01*
X149384019Y-61234239D01*
X149378648Y-61230214D01*
X149363054Y-61221676D01*
X149242606Y-61176522D01*
X149227351Y-61172895D01*
X149176486Y-61167369D01*
X149169672Y-61167000D01*
X149097115Y-61167000D01*
X149081876Y-61171475D01*
X149080671Y-61172865D01*
X149079000Y-61180548D01*
X149079000Y-62578000D01*
X149058998Y-62646121D01*
X149005342Y-62692614D01*
X148953000Y-62704000D01*
X148697000Y-62704000D01*
X148628879Y-62683998D01*
X148582386Y-62630342D01*
X148571000Y-62578000D01*
X148571000Y-61185116D01*
X148566525Y-61169877D01*
X148565135Y-61168672D01*
X148557452Y-61167001D01*
X148489500Y-61167001D01*
X148421379Y-61146999D01*
X148374886Y-61093343D01*
X148363500Y-61041001D01*
X148363500Y-59357095D01*
X149197001Y-59357095D01*
X149197338Y-59363614D01*
X149207257Y-59459206D01*
X149210149Y-59472600D01*
X149261588Y-59626784D01*
X149267761Y-59639962D01*
X149353063Y-59777807D01*
X149362099Y-59789208D01*
X149476829Y-59903739D01*
X149488240Y-59912751D01*
X149626243Y-59997816D01*
X149639424Y-60003963D01*
X149793710Y-60055138D01*
X149807086Y-60058005D01*
X149901438Y-60067672D01*
X149907854Y-60068000D01*
X150157885Y-60068000D01*
X150173124Y-60063525D01*
X150174329Y-60062135D01*
X150176000Y-60054452D01*
X150176000Y-60049884D01*
X150684000Y-60049884D01*
X150688475Y-60065123D01*
X150689865Y-60066328D01*
X150697548Y-60067999D01*
X150952095Y-60067999D01*
X150958614Y-60067662D01*
X151054206Y-60057743D01*
X151067600Y-60054851D01*
X151221784Y-60003412D01*
X151234962Y-59997239D01*
X151372807Y-59911937D01*
X151384208Y-59902901D01*
X151498739Y-59788171D01*
X151507751Y-59776760D01*
X151592816Y-59638757D01*
X151598963Y-59625576D01*
X151650138Y-59471290D01*
X151653005Y-59457914D01*
X151662672Y-59363562D01*
X151663000Y-59357146D01*
X151663000Y-59332115D01*
X151658525Y-59316876D01*
X151657135Y-59315671D01*
X151649452Y-59314000D01*
X150702115Y-59314000D01*
X150686876Y-59318475D01*
X150685671Y-59319865D01*
X150684000Y-59327548D01*
X150684000Y-60049884D01*
X150176000Y-60049884D01*
X150176000Y-59332115D01*
X150171525Y-59316876D01*
X150170135Y-59315671D01*
X150162452Y-59314000D01*
X149215116Y-59314000D01*
X149199877Y-59318475D01*
X149198672Y-59319865D01*
X149197001Y-59327548D01*
X149197001Y-59357095D01*
X148363500Y-59357095D01*
X148363500Y-58620998D01*
X148363307Y-58618542D01*
X148361067Y-58590079D01*
X148361066Y-58590074D01*
X148360562Y-58583669D01*
X148316999Y-58433723D01*
X148316357Y-58431512D01*
X148316356Y-58431510D01*
X148314145Y-58423899D01*
X148284058Y-58373025D01*
X148233491Y-58287520D01*
X148233489Y-58287517D01*
X148229453Y-58280693D01*
X148132355Y-58183595D01*
X148098329Y-58121283D01*
X148103394Y-58050468D01*
X148145941Y-57993632D01*
X148212461Y-57968821D01*
X148221450Y-57968500D01*
X149388694Y-57968500D01*
X149456815Y-57988502D01*
X149470704Y-57999684D01*
X149470773Y-57999597D01*
X149476515Y-58004132D01*
X149481697Y-58009305D01*
X149486235Y-58012102D01*
X149526824Y-58069353D01*
X149530054Y-58140276D01*
X149494428Y-58201687D01*
X149485932Y-58209062D01*
X149475793Y-58217098D01*
X149361261Y-58331829D01*
X149352249Y-58343240D01*
X149267184Y-58481243D01*
X149261037Y-58494424D01*
X149209862Y-58648710D01*
X149206995Y-58662086D01*
X149197328Y-58756438D01*
X149197000Y-58762855D01*
X149197000Y-58787885D01*
X149201475Y-58803124D01*
X149202865Y-58804329D01*
X149210548Y-58806000D01*
X151644884Y-58806000D01*
X151660123Y-58801525D01*
X151661328Y-58800135D01*
X151662999Y-58792452D01*
X151662999Y-58762905D01*
X151662662Y-58756386D01*
X151652743Y-58660794D01*
X151649851Y-58647400D01*
X151598412Y-58493216D01*
X151592239Y-58480038D01*
X151506937Y-58342193D01*
X151497901Y-58330792D01*
X151383172Y-58216262D01*
X151374238Y-58209206D01*
X151333177Y-58151288D01*
X151329947Y-58080365D01*
X151365574Y-58018954D01*
X151373407Y-58012154D01*
X151379348Y-58008478D01*
X151504305Y-57883303D01*
X151538554Y-57827741D01*
X151593275Y-57738968D01*
X151593276Y-57738966D01*
X151597115Y-57732738D01*
X151630484Y-57632134D01*
X151650632Y-57571389D01*
X151650632Y-57571387D01*
X151652797Y-57564861D01*
X151663500Y-57460400D01*
X151663500Y-56859600D01*
X151660896Y-56834501D01*
X151653238Y-56760692D01*
X151653237Y-56760688D01*
X151652526Y-56753834D01*
X151620162Y-56656826D01*
X151598868Y-56593002D01*
X151596550Y-56586054D01*
X151503478Y-56435652D01*
X151378303Y-56310695D01*
X151325006Y-56277842D01*
X151233968Y-56221725D01*
X151233966Y-56221724D01*
X151227738Y-56217885D01*
X151067254Y-56164655D01*
X151066389Y-56164368D01*
X151066387Y-56164368D01*
X151059861Y-56162203D01*
X151053025Y-56161503D01*
X151053022Y-56161502D01*
X151009969Y-56157091D01*
X150955400Y-56151500D01*
X149904600Y-56151500D01*
X149901354Y-56151837D01*
X149901350Y-56151837D01*
X149805692Y-56161762D01*
X149805688Y-56161763D01*
X149798834Y-56162474D01*
X149792298Y-56164655D01*
X149792296Y-56164655D01*
X149703512Y-56194276D01*
X149631054Y-56218450D01*
X149480652Y-56311522D01*
X149475479Y-56316704D01*
X149469745Y-56321249D01*
X149468419Y-56319576D01*
X149415375Y-56348598D01*
X149388489Y-56351500D01*
X147498142Y-56351500D01*
X147430021Y-56331498D01*
X147383528Y-56277842D01*
X147378724Y-56265691D01*
X147377607Y-56262371D01*
X147376119Y-56255490D01*
X147357792Y-56216187D01*
X147353010Y-56204411D01*
X147338745Y-56163448D01*
X147334490Y-56156638D01*
X147320973Y-56135005D01*
X147313634Y-56121488D01*
X147302439Y-56097481D01*
X147302437Y-56097477D01*
X147299462Y-56091098D01*
X147272892Y-56056844D01*
X147265598Y-56046388D01*
X147263415Y-56042894D01*
X147242626Y-56009624D01*
X147226837Y-55993724D01*
X147214017Y-55980815D01*
X147213434Y-55980192D01*
X147212921Y-55979530D01*
X147187051Y-55953660D01*
X147114815Y-55880918D01*
X147113777Y-55880259D01*
X147112547Y-55879155D01*
X147093245Y-55859853D01*
X147092317Y-55858916D01*
X147034157Y-55799525D01*
X147034156Y-55799524D01*
X147029229Y-55794493D01*
X146992779Y-55771002D01*
X146982454Y-55763583D01*
X146948557Y-55736524D01*
X146918362Y-55721927D01*
X146904945Y-55714398D01*
X146904317Y-55713993D01*
X146876762Y-55696235D01*
X146870145Y-55693827D01*
X146870140Y-55693824D01*
X146836027Y-55681408D01*
X146824284Y-55676447D01*
X146791597Y-55660646D01*
X146791592Y-55660644D01*
X146785251Y-55657579D01*
X146778393Y-55655996D01*
X146778391Y-55655995D01*
X146752574Y-55650035D01*
X146737831Y-55645668D01*
X146706315Y-55634197D01*
X146699325Y-55633314D01*
X146699317Y-55633312D01*
X146663299Y-55628762D01*
X146650747Y-55626526D01*
X146615386Y-55618362D01*
X146615383Y-55618362D01*
X146608515Y-55616776D01*
X146601469Y-55616751D01*
X146601466Y-55616751D01*
X146567944Y-55616634D01*
X146567062Y-55616605D01*
X146566231Y-55616500D01*
X146529581Y-55616500D01*
X146529141Y-55616499D01*
X146430657Y-55616155D01*
X146430652Y-55616155D01*
X146427130Y-55616143D01*
X146425930Y-55616411D01*
X146424293Y-55616500D01*
X144194390Y-55616500D01*
X144190900Y-55616892D01*
X144190891Y-55616892D01*
X144156806Y-55620716D01*
X144142760Y-55621501D01*
X144001254Y-55621501D01*
X143964063Y-55624427D01*
X143865983Y-55652922D01*
X143812513Y-55668456D01*
X143812511Y-55668457D01*
X143804900Y-55670668D01*
X143798077Y-55674703D01*
X143730713Y-55714542D01*
X143662237Y-55755038D01*
X143545038Y-55872237D01*
X143541004Y-55879057D01*
X143541004Y-55879058D01*
X143480826Y-55980815D01*
X143460668Y-56014900D01*
X143458457Y-56022511D01*
X143458456Y-56022513D01*
X143452687Y-56042371D01*
X143414427Y-56174063D01*
X143413923Y-56180468D01*
X143413922Y-56180473D01*
X143412836Y-56194276D01*
X143411500Y-56211253D01*
X143411501Y-56399848D01*
X143411501Y-56465500D01*
X143391499Y-56533620D01*
X143337844Y-56580113D01*
X143285501Y-56591500D01*
X142914743Y-56591500D01*
X142846622Y-56571498D01*
X142821549Y-56550299D01*
X142691044Y-56406876D01*
X142691041Y-56406873D01*
X142687563Y-56403051D01*
X142683512Y-56399852D01*
X142683508Y-56399848D01*
X142516307Y-56267800D01*
X142516303Y-56267798D01*
X142512252Y-56264598D01*
X142316682Y-56156638D01*
X142311813Y-56154914D01*
X142311809Y-56154912D01*
X142110980Y-56083795D01*
X142110976Y-56083794D01*
X142106105Y-56082069D01*
X142101012Y-56081162D01*
X142101009Y-56081161D01*
X141891266Y-56043800D01*
X141891260Y-56043799D01*
X141886177Y-56042894D01*
X141812345Y-56041992D01*
X141667974Y-56040228D01*
X141667972Y-56040228D01*
X141662804Y-56040165D01*
X141441984Y-56073955D01*
X141229649Y-56143357D01*
X141202538Y-56157470D01*
X141046778Y-56238554D01*
X141031500Y-56246507D01*
X141027367Y-56249610D01*
X141027364Y-56249612D01*
X140895527Y-56348598D01*
X140852858Y-56380635D01*
X140849286Y-56384373D01*
X140771791Y-56465466D01*
X140710267Y-56500895D01*
X140639355Y-56497438D01*
X140581569Y-56456192D01*
X140562716Y-56422644D01*
X140521217Y-56311946D01*
X140512679Y-56296351D01*
X140436178Y-56194276D01*
X140423617Y-56181715D01*
X140321542Y-56105214D01*
X140305947Y-56096676D01*
X140185499Y-56051522D01*
X140170244Y-56047895D01*
X140119379Y-56042369D01*
X140112565Y-56042000D01*
X139490008Y-56042000D01*
X139474769Y-56046475D01*
X139473564Y-56047865D01*
X139471893Y-56055548D01*
X139471893Y-58739884D01*
X139476368Y-58755123D01*
X139477758Y-58756328D01*
X139485441Y-58757999D01*
X140112562Y-58757999D01*
X140119383Y-58757629D01*
X140170245Y-58752105D01*
X140185497Y-58748479D01*
X140305947Y-58703324D01*
X140321542Y-58694786D01*
X140423617Y-58618285D01*
X140436178Y-58605724D01*
X140512679Y-58503649D01*
X140521217Y-58488054D01*
X140562118Y-58378952D01*
X140604760Y-58322188D01*
X140671321Y-58297488D01*
X140740670Y-58312696D01*
X140775337Y-58340684D01*
X140800758Y-58370031D01*
X140800762Y-58370035D01*
X140804143Y-58373938D01*
X140976019Y-58516632D01*
X141168893Y-58629338D01*
X141173718Y-58631180D01*
X141173719Y-58631181D01*
X141219623Y-58648710D01*
X141377585Y-58709030D01*
X141382653Y-58710061D01*
X141382656Y-58710062D01*
X141489910Y-58731883D01*
X141596490Y-58753567D01*
X141601665Y-58753757D01*
X141601667Y-58753757D01*
X141814566Y-58761564D01*
X141814570Y-58761564D01*
X141819730Y-58761753D01*
X141824850Y-58761097D01*
X141824852Y-58761097D01*
X142036181Y-58734025D01*
X142036182Y-58734025D01*
X142041309Y-58733368D01*
X142046259Y-58731883D01*
X142250322Y-58670661D01*
X142250327Y-58670659D01*
X142255277Y-58669174D01*
X142455887Y-58570896D01*
X142637753Y-58441173D01*
X142643900Y-58435048D01*
X142755357Y-58323979D01*
X142795989Y-58283489D01*
X142799062Y-58279213D01*
X142812169Y-58260973D01*
X142868164Y-58217326D01*
X142914491Y-58208500D01*
X144225786Y-58208500D01*
X144227106Y-58208507D01*
X144317221Y-58209451D01*
X144354713Y-58201345D01*
X144381340Y-58198499D01*
X144478746Y-58198499D01*
X144515937Y-58195573D01*
X144640408Y-58159411D01*
X144667487Y-58151544D01*
X144667489Y-58151543D01*
X144675100Y-58149332D01*
X144784014Y-58084921D01*
X144810942Y-58068996D01*
X144810943Y-58068996D01*
X144817763Y-58064962D01*
X144934962Y-57947763D01*
X144957872Y-57909025D01*
X145015297Y-57811923D01*
X145019332Y-57805100D01*
X145027567Y-57776757D01*
X145040355Y-57732738D01*
X145065573Y-57645937D01*
X145066077Y-57639532D01*
X145066078Y-57639527D01*
X145068307Y-57611203D01*
X145068307Y-57611195D01*
X145068500Y-57608747D01*
X145068499Y-57359500D01*
X145088501Y-57291380D01*
X145142156Y-57244887D01*
X145194499Y-57233500D01*
X145670500Y-57233500D01*
X145738621Y-57253502D01*
X145785114Y-57307158D01*
X145796500Y-57359500D01*
X145796500Y-57385419D01*
X145796499Y-57385859D01*
X145796228Y-57463598D01*
X145796143Y-57487870D01*
X145796411Y-57489070D01*
X145796500Y-57490707D01*
X145796500Y-58054002D01*
X145796693Y-58056450D01*
X145796693Y-58056458D01*
X145798771Y-58082852D01*
X145799438Y-58091331D01*
X145822018Y-58169051D01*
X145836043Y-58217326D01*
X145845855Y-58251101D01*
X145849892Y-58257927D01*
X145891453Y-58328203D01*
X145909000Y-58392342D01*
X145909000Y-59002885D01*
X145913475Y-59018124D01*
X145914865Y-59019329D01*
X145922548Y-59021000D01*
X146444884Y-59021000D01*
X146460123Y-59016525D01*
X146461328Y-59015135D01*
X146462999Y-59007452D01*
X146462999Y-58772000D01*
X146483001Y-58703879D01*
X146536657Y-58657386D01*
X146588999Y-58646000D01*
X146620500Y-58646000D01*
X146688621Y-58666002D01*
X146735114Y-58719658D01*
X146746500Y-58772000D01*
X146746500Y-61040500D01*
X146726498Y-61108621D01*
X146672842Y-61155114D01*
X146620500Y-61166500D01*
X145936866Y-61166500D01*
X145874684Y-61173255D01*
X145738295Y-61224385D01*
X145621739Y-61311739D01*
X145534385Y-61428295D01*
X145531233Y-61436703D01*
X145485112Y-61559730D01*
X145442470Y-61616494D01*
X145375909Y-61641194D01*
X145367130Y-61641500D01*
X145349214Y-61641500D01*
X145347894Y-61641493D01*
X145346819Y-61641482D01*
X145257779Y-61640549D01*
X145215403Y-61649711D01*
X145202837Y-61651769D01*
X145159745Y-61656603D01*
X145153094Y-61658919D01*
X145153090Y-61658920D01*
X145128070Y-61667633D01*
X145113258Y-61671796D01*
X145089981Y-61676829D01*
X145080490Y-61678881D01*
X145041187Y-61697208D01*
X145029411Y-61701990D01*
X144988448Y-61716255D01*
X144982473Y-61719989D01*
X144982470Y-61719990D01*
X144960005Y-61734027D01*
X144946488Y-61741366D01*
X144922486Y-61752559D01*
X144916098Y-61755538D01*
X144910533Y-61759855D01*
X144910531Y-61759856D01*
X144881847Y-61782106D01*
X144871388Y-61789402D01*
X144840596Y-61808642D01*
X144840593Y-61808644D01*
X144834624Y-61812374D01*
X144829629Y-61817334D01*
X144829628Y-61817335D01*
X144805821Y-61840976D01*
X144805196Y-61841561D01*
X144804530Y-61842078D01*
X144778540Y-61868068D01*
X144705918Y-61940185D01*
X144705260Y-61941222D01*
X144704157Y-61942451D01*
X144495122Y-62151486D01*
X144432810Y-62185512D01*
X144361995Y-62180447D01*
X144305159Y-62137900D01*
X144280764Y-62075996D01*
X144278771Y-62057648D01*
X144275145Y-62042396D01*
X144229990Y-61921946D01*
X144221452Y-61906351D01*
X144144951Y-61804276D01*
X144132390Y-61791715D01*
X144030315Y-61715214D01*
X144014720Y-61706676D01*
X143894272Y-61661522D01*
X143879017Y-61657895D01*
X143828152Y-61652369D01*
X143821338Y-61652000D01*
X143148781Y-61652000D01*
X143133542Y-61656475D01*
X143132337Y-61657865D01*
X143130666Y-61665548D01*
X143130666Y-65149884D01*
X143135141Y-65165123D01*
X143136531Y-65166328D01*
X143144214Y-65167999D01*
X143824754Y-65167999D01*
X143824754Y-65169558D01*
X143887848Y-65184466D01*
X143937147Y-65235555D01*
X143951500Y-65293959D01*
X143951500Y-65525538D01*
X143931498Y-65593659D01*
X143877842Y-65640152D01*
X143824800Y-65650193D01*
X143824800Y-65651500D01*
X141928532Y-65651500D01*
X141866350Y-65658255D01*
X141729961Y-65709385D01*
X141613405Y-65796739D01*
X141526051Y-65913295D01*
X141474921Y-66049684D01*
X141468166Y-66111866D01*
X141468166Y-66475500D01*
X141448164Y-66543621D01*
X141394508Y-66590114D01*
X141342166Y-66601500D01*
X138667082Y-66601500D01*
X138598961Y-66581498D01*
X138577987Y-66564595D01*
X136718061Y-64704669D01*
X141468667Y-64704669D01*
X141469037Y-64711490D01*
X141474561Y-64762352D01*
X141478187Y-64777604D01*
X141523342Y-64898054D01*
X141531880Y-64913649D01*
X141608381Y-65015724D01*
X141620942Y-65028285D01*
X141723017Y-65104786D01*
X141738612Y-65113324D01*
X141859060Y-65158478D01*
X141874315Y-65162105D01*
X141925180Y-65167631D01*
X141931994Y-65168000D01*
X142604551Y-65168000D01*
X142619790Y-65163525D01*
X142620995Y-65162135D01*
X142622666Y-65154452D01*
X142622666Y-63682115D01*
X142618191Y-63666876D01*
X142616801Y-63665671D01*
X142609118Y-63664000D01*
X141486782Y-63664000D01*
X141471543Y-63668475D01*
X141470338Y-63669865D01*
X141468667Y-63677548D01*
X141468667Y-64704669D01*
X136718061Y-64704669D01*
X136136987Y-64123595D01*
X136102961Y-64061283D01*
X136108026Y-63990468D01*
X136150573Y-63933632D01*
X136217093Y-63908821D01*
X136226082Y-63908500D01*
X136711467Y-63908500D01*
X136773649Y-63901745D01*
X136910038Y-63850615D01*
X137026594Y-63763261D01*
X137113948Y-63646705D01*
X137165078Y-63510316D01*
X137171833Y-63448134D01*
X137171833Y-63137885D01*
X141468666Y-63137885D01*
X141473141Y-63153124D01*
X141474531Y-63154329D01*
X141482214Y-63156000D01*
X142604551Y-63156000D01*
X142619790Y-63151525D01*
X142620995Y-63150135D01*
X142622666Y-63142452D01*
X142622666Y-61670116D01*
X142618191Y-61654877D01*
X142616801Y-61653672D01*
X142609118Y-61652001D01*
X141931997Y-61652001D01*
X141925176Y-61652371D01*
X141874314Y-61657895D01*
X141859062Y-61661521D01*
X141738612Y-61706676D01*
X141723017Y-61715214D01*
X141620942Y-61791715D01*
X141608381Y-61804276D01*
X141531880Y-61906351D01*
X141523342Y-61921946D01*
X141478188Y-62042394D01*
X141474561Y-62057649D01*
X141469035Y-62108514D01*
X141468666Y-62115328D01*
X141468666Y-63137885D01*
X137171833Y-63137885D01*
X137171833Y-60651866D01*
X137165078Y-60589684D01*
X137113948Y-60453295D01*
X137026594Y-60336739D01*
X136910038Y-60249385D01*
X136773649Y-60198255D01*
X136711467Y-60191500D01*
X133015199Y-60191500D01*
X132953017Y-60198255D01*
X132816628Y-60249385D01*
X132700072Y-60336739D01*
X132612718Y-60453295D01*
X132561588Y-60589684D01*
X132554833Y-60651866D01*
X132554833Y-63448134D01*
X132561588Y-63510316D01*
X132612718Y-63646705D01*
X132700072Y-63763261D01*
X132816628Y-63850615D01*
X132953017Y-63901745D01*
X133015199Y-63908500D01*
X133928305Y-63908500D01*
X133996426Y-63928502D01*
X134042919Y-63982158D01*
X134054298Y-64035819D01*
X134053882Y-64075554D01*
X134063044Y-64117930D01*
X134065102Y-64130496D01*
X134069936Y-64173588D01*
X134072252Y-64180239D01*
X134072253Y-64180243D01*
X134080966Y-64205263D01*
X134085129Y-64220075D01*
X134092214Y-64252843D01*
X134110541Y-64292146D01*
X134115323Y-64303922D01*
X134129588Y-64344885D01*
X134133322Y-64350860D01*
X134133323Y-64350863D01*
X134147360Y-64373328D01*
X134154699Y-64386845D01*
X134165892Y-64410847D01*
X134168871Y-64417235D01*
X134173188Y-64422800D01*
X134173189Y-64422802D01*
X134195439Y-64451486D01*
X134202735Y-64461945D01*
X134225707Y-64498709D01*
X134230667Y-64503704D01*
X134230668Y-64503705D01*
X134254309Y-64527512D01*
X134254894Y-64528137D01*
X134255411Y-64528803D01*
X134281401Y-64554793D01*
X134353518Y-64627415D01*
X134354555Y-64628073D01*
X134355784Y-64629176D01*
X137701766Y-67975158D01*
X137702694Y-67976095D01*
X137765771Y-68040507D01*
X137802221Y-68063998D01*
X137812546Y-68071417D01*
X137846443Y-68098476D01*
X137852784Y-68101541D01*
X137852785Y-68101542D01*
X137876637Y-68113072D01*
X137890054Y-68120601D01*
X137918238Y-68138765D01*
X137924855Y-68141173D01*
X137924860Y-68141176D01*
X137958973Y-68153592D01*
X137970716Y-68158553D01*
X138003400Y-68174353D01*
X138003409Y-68174356D01*
X138009749Y-68177421D01*
X138016614Y-68179006D01*
X138042428Y-68184966D01*
X138057168Y-68189332D01*
X138088685Y-68200803D01*
X138095670Y-68201685D01*
X138095677Y-68201687D01*
X138131692Y-68206237D01*
X138144243Y-68208472D01*
X138186485Y-68218225D01*
X138193529Y-68218250D01*
X138193533Y-68218250D01*
X138227072Y-68218367D01*
X138227942Y-68218396D01*
X138228769Y-68218500D01*
X138265258Y-68218500D01*
X138265697Y-68218501D01*
X138364343Y-68218845D01*
X138364348Y-68218845D01*
X138367870Y-68218857D01*
X138369070Y-68218589D01*
X138370708Y-68218500D01*
X141342166Y-68218500D01*
X141410287Y-68238502D01*
X141456780Y-68292158D01*
X141468166Y-68344500D01*
X141468166Y-68708134D01*
X141474921Y-68770316D01*
X141526051Y-68906705D01*
X141613405Y-69023261D01*
X141729961Y-69110615D01*
X141866350Y-69161745D01*
X141874203Y-69162598D01*
X141874207Y-69162599D01*
X141893993Y-69164748D01*
X141959556Y-69191990D01*
X141999982Y-69250353D01*
X142002438Y-69321307D01*
X141987648Y-69356123D01*
X141934551Y-69442262D01*
X141916709Y-69496054D01*
X141888536Y-69580995D01*
X141878869Y-69610139D01*
X141878169Y-69616975D01*
X141878168Y-69616978D01*
X141876778Y-69630548D01*
X141868166Y-69714600D01*
X141868166Y-70765400D01*
X141868503Y-70768646D01*
X141868503Y-70768650D01*
X141874062Y-70822221D01*
X141879140Y-70871166D01*
X141881320Y-70877699D01*
X141881322Y-70877710D01*
X141897308Y-70925623D01*
X141899894Y-70996573D01*
X141863710Y-71057657D01*
X141800246Y-71089482D01*
X141777785Y-71091500D01*
X141187082Y-71091500D01*
X141118961Y-71071498D01*
X141097987Y-71054595D01*
X139828234Y-69784842D01*
X139827306Y-69783905D01*
X139769157Y-69724525D01*
X139769156Y-69724524D01*
X139764229Y-69719493D01*
X139727779Y-69696002D01*
X139717454Y-69688583D01*
X139683557Y-69661524D01*
X139653362Y-69646927D01*
X139639945Y-69639398D01*
X139633301Y-69635116D01*
X139611762Y-69621235D01*
X139605145Y-69618827D01*
X139605140Y-69618824D01*
X139571027Y-69606408D01*
X139559284Y-69601447D01*
X139526597Y-69585646D01*
X139526592Y-69585644D01*
X139520251Y-69582579D01*
X139513393Y-69580996D01*
X139513391Y-69580995D01*
X139487574Y-69575035D01*
X139472831Y-69570668D01*
X139441315Y-69559197D01*
X139434325Y-69558314D01*
X139434317Y-69558312D01*
X139398299Y-69553762D01*
X139385747Y-69551526D01*
X139350386Y-69543362D01*
X139350383Y-69543362D01*
X139343515Y-69541776D01*
X139336469Y-69541751D01*
X139336466Y-69541751D01*
X139302944Y-69541634D01*
X139302062Y-69541605D01*
X139301231Y-69541500D01*
X139264581Y-69541500D01*
X139264141Y-69541499D01*
X139165657Y-69541155D01*
X139165652Y-69541155D01*
X139162130Y-69541143D01*
X139160930Y-69541411D01*
X139159293Y-69541500D01*
X137297833Y-69541500D01*
X137229712Y-69521498D01*
X137183219Y-69467842D01*
X137171833Y-69415500D01*
X137171833Y-68951866D01*
X137165078Y-68889684D01*
X137113948Y-68753295D01*
X137026594Y-68636739D01*
X136910038Y-68549385D01*
X136773649Y-68498255D01*
X136711467Y-68491500D01*
X133015199Y-68491500D01*
X132953017Y-68498255D01*
X132816628Y-68549385D01*
X132700072Y-68636739D01*
X132612718Y-68753295D01*
X132561588Y-68889684D01*
X132554833Y-68951866D01*
X132554833Y-70040500D01*
X132534831Y-70108621D01*
X132481175Y-70155114D01*
X132428833Y-70166500D01*
X129081291Y-70166500D01*
X129013170Y-70146498D01*
X128966677Y-70092842D01*
X128956028Y-70054108D01*
X128952598Y-70022540D01*
X128951745Y-70014684D01*
X128900615Y-69878295D01*
X128813261Y-69761739D01*
X128696705Y-69674385D01*
X128560316Y-69623255D01*
X128498134Y-69616500D01*
X127709289Y-69616500D01*
X127641168Y-69596498D01*
X127594675Y-69542842D01*
X127584571Y-69472568D01*
X127614065Y-69407988D01*
X127642986Y-69383356D01*
X127693120Y-69352332D01*
X127699348Y-69348478D01*
X127824305Y-69223303D01*
X127883122Y-69127885D01*
X127913275Y-69078968D01*
X127913276Y-69078966D01*
X127917115Y-69072738D01*
X127947922Y-68979857D01*
X127970632Y-68911389D01*
X127970632Y-68911387D01*
X127972797Y-68904861D01*
X127983500Y-68800400D01*
X127983500Y-68747000D01*
X128003502Y-68678879D01*
X128057158Y-68632386D01*
X128109500Y-68621000D01*
X129475444Y-68621000D01*
X129487300Y-68621559D01*
X129487303Y-68621559D01*
X129495037Y-68623288D01*
X129565869Y-68621062D01*
X129569827Y-68621000D01*
X129598932Y-68621000D01*
X129603332Y-68620444D01*
X129615164Y-68619512D01*
X129661331Y-68618062D01*
X129681921Y-68612080D01*
X129701282Y-68608070D01*
X129708270Y-68607188D01*
X129714704Y-68606375D01*
X129714705Y-68606375D01*
X129722564Y-68605382D01*
X129729929Y-68602466D01*
X129729933Y-68602465D01*
X129765521Y-68588374D01*
X129776731Y-68584535D01*
X129821100Y-68571645D01*
X129839565Y-68560725D01*
X129857305Y-68552034D01*
X129877256Y-68544135D01*
X129914629Y-68516982D01*
X129924548Y-68510467D01*
X129957477Y-68490993D01*
X129957481Y-68490990D01*
X129964307Y-68486953D01*
X129979471Y-68471789D01*
X129994505Y-68458948D01*
X130005443Y-68451001D01*
X130011857Y-68446341D01*
X130041303Y-68410747D01*
X130049292Y-68401968D01*
X130707605Y-67743655D01*
X130716385Y-67735665D01*
X130716387Y-67735663D01*
X130723080Y-67731416D01*
X130771605Y-67679742D01*
X130774359Y-67676901D01*
X130794927Y-67656333D01*
X130797647Y-67652826D01*
X130805353Y-67643804D01*
X130831544Y-67615913D01*
X130836972Y-67610133D01*
X130843004Y-67599161D01*
X130847303Y-67591342D01*
X130858157Y-67574818D01*
X130866445Y-67564132D01*
X130871304Y-67557868D01*
X130875820Y-67547432D01*
X130889654Y-67515465D01*
X130894876Y-67504805D01*
X130913305Y-67471284D01*
X130913306Y-67471282D01*
X130917124Y-67464337D01*
X130922459Y-67443559D01*
X130928858Y-67424869D01*
X130937380Y-67405176D01*
X130944606Y-67359552D01*
X130947013Y-67347929D01*
X130956528Y-67310868D01*
X130958500Y-67303188D01*
X130958500Y-67281741D01*
X130960051Y-67262031D01*
X130962166Y-67248677D01*
X130963406Y-67240848D01*
X130959059Y-67194859D01*
X130958500Y-67183004D01*
X130958500Y-59926484D01*
X144847001Y-59926484D01*
X144847195Y-59931420D01*
X144849430Y-59959836D01*
X144851730Y-59972431D01*
X144894107Y-60118290D01*
X144900352Y-60132721D01*
X144976911Y-60262178D01*
X144986551Y-60274604D01*
X145092896Y-60380949D01*
X145105322Y-60390589D01*
X145234779Y-60467148D01*
X145249210Y-60473393D01*
X145383605Y-60512439D01*
X145397706Y-60512399D01*
X145401000Y-60505130D01*
X145401000Y-60499378D01*
X145909000Y-60499378D01*
X145912973Y-60512909D01*
X145920871Y-60514044D01*
X146060790Y-60473393D01*
X146075221Y-60467148D01*
X146204678Y-60390589D01*
X146217104Y-60380949D01*
X146323449Y-60274604D01*
X146333089Y-60262178D01*
X146409648Y-60132721D01*
X146415893Y-60118290D01*
X146458269Y-59972435D01*
X146460570Y-59959833D01*
X146462807Y-59931416D01*
X146463000Y-59926486D01*
X146463000Y-59547115D01*
X146458525Y-59531876D01*
X146457135Y-59530671D01*
X146449452Y-59529000D01*
X145927115Y-59529000D01*
X145911876Y-59533475D01*
X145910671Y-59534865D01*
X145909000Y-59542548D01*
X145909000Y-60499378D01*
X145401000Y-60499378D01*
X145401000Y-59547115D01*
X145396525Y-59531876D01*
X145395135Y-59530671D01*
X145387452Y-59529000D01*
X144865116Y-59529000D01*
X144849877Y-59533475D01*
X144848672Y-59534865D01*
X144847001Y-59542548D01*
X144847001Y-59926484D01*
X130958500Y-59926484D01*
X130958500Y-59684951D01*
X130978502Y-59616830D01*
X130995404Y-59595856D01*
X131670854Y-58920405D01*
X131733167Y-58886380D01*
X131759950Y-58883500D01*
X133829290Y-58883500D01*
X133897411Y-58903502D01*
X133918385Y-58920405D01*
X133984619Y-58986639D01*
X134131301Y-59075472D01*
X134138548Y-59077743D01*
X134138550Y-59077744D01*
X134204836Y-59098517D01*
X134294938Y-59126753D01*
X134368365Y-59133500D01*
X134371263Y-59133500D01*
X134700860Y-59133499D01*
X135031634Y-59133499D01*
X135034492Y-59133236D01*
X135034501Y-59133236D01*
X135070004Y-59129974D01*
X135105062Y-59126753D01*
X135111447Y-59124752D01*
X135261450Y-59077744D01*
X135261452Y-59077743D01*
X135268699Y-59075472D01*
X135415381Y-58986639D01*
X135476779Y-58925241D01*
X135539091Y-58891215D01*
X135609906Y-58896280D01*
X135654891Y-58925162D01*
X135685079Y-58955297D01*
X135696491Y-58964310D01*
X135828291Y-59045553D01*
X135841468Y-59051697D01*
X135988843Y-59100579D01*
X136002210Y-59103445D01*
X136092270Y-59112672D01*
X136098685Y-59113000D01*
X136127885Y-59113000D01*
X136143124Y-59108525D01*
X136144329Y-59107135D01*
X136146000Y-59099452D01*
X136146000Y-59094885D01*
X136654000Y-59094885D01*
X136658475Y-59110124D01*
X136659865Y-59111329D01*
X136667548Y-59113000D01*
X136701266Y-59113000D01*
X136707782Y-59112663D01*
X136799021Y-59103196D01*
X136812417Y-59100303D01*
X136959687Y-59051170D01*
X136972866Y-59044996D01*
X137040917Y-59002885D01*
X144847000Y-59002885D01*
X144851475Y-59018124D01*
X144852865Y-59019329D01*
X144860548Y-59021000D01*
X145382885Y-59021000D01*
X145398124Y-59016525D01*
X145399329Y-59015135D01*
X145401000Y-59007452D01*
X145401000Y-58050622D01*
X145397027Y-58037091D01*
X145389129Y-58035956D01*
X145249210Y-58076607D01*
X145234779Y-58082852D01*
X145105322Y-58159411D01*
X145092896Y-58169051D01*
X144986551Y-58275396D01*
X144976911Y-58287822D01*
X144900352Y-58417279D01*
X144894107Y-58431710D01*
X144851731Y-58577565D01*
X144849430Y-58590167D01*
X144847193Y-58618584D01*
X144847000Y-58623514D01*
X144847000Y-59002885D01*
X137040917Y-59002885D01*
X137104514Y-58963530D01*
X137115915Y-58954494D01*
X137225298Y-58844920D01*
X137234310Y-58833509D01*
X137315553Y-58701709D01*
X137321697Y-58688532D01*
X137370579Y-58541157D01*
X137373445Y-58527790D01*
X137382614Y-58438300D01*
X137378525Y-58424376D01*
X137377135Y-58423171D01*
X137369452Y-58421500D01*
X136672115Y-58421500D01*
X136656876Y-58425975D01*
X136655671Y-58427365D01*
X136654000Y-58435048D01*
X136654000Y-59094885D01*
X136146000Y-59094885D01*
X136146000Y-58294669D01*
X137859894Y-58294669D01*
X137860264Y-58301490D01*
X137865788Y-58352352D01*
X137869414Y-58367604D01*
X137914569Y-58488054D01*
X137923107Y-58503649D01*
X137999608Y-58605724D01*
X138012169Y-58618285D01*
X138114244Y-58694786D01*
X138129839Y-58703324D01*
X138250287Y-58748478D01*
X138265542Y-58752105D01*
X138316407Y-58757631D01*
X138323221Y-58758000D01*
X138945778Y-58758000D01*
X138961017Y-58753525D01*
X138962222Y-58752135D01*
X138963893Y-58744452D01*
X138963893Y-57672115D01*
X138959418Y-57656876D01*
X138958028Y-57655671D01*
X138950345Y-57654000D01*
X137878009Y-57654000D01*
X137862770Y-57658475D01*
X137861565Y-57659865D01*
X137859894Y-57667548D01*
X137859894Y-58294669D01*
X136146000Y-58294669D01*
X136146000Y-58039500D01*
X136166002Y-57971379D01*
X136219658Y-57924886D01*
X136272000Y-57913500D01*
X137364885Y-57913500D01*
X137380124Y-57909025D01*
X137381329Y-57907635D01*
X137382842Y-57900679D01*
X137382663Y-57897218D01*
X137373196Y-57805979D01*
X137370303Y-57792583D01*
X137321170Y-57645313D01*
X137314996Y-57632134D01*
X137233530Y-57500486D01*
X137224494Y-57489085D01*
X137204842Y-57469467D01*
X137170763Y-57407184D01*
X137175766Y-57336364D01*
X137204686Y-57291277D01*
X137225692Y-57270234D01*
X137230864Y-57265053D01*
X137243295Y-57244887D01*
X137265489Y-57208880D01*
X137315415Y-57127885D01*
X137859893Y-57127885D01*
X137864368Y-57143124D01*
X137865758Y-57144329D01*
X137873441Y-57146000D01*
X138945778Y-57146000D01*
X138961017Y-57141525D01*
X138962222Y-57140135D01*
X138963893Y-57132452D01*
X138963893Y-56060116D01*
X138959418Y-56044877D01*
X138958028Y-56043672D01*
X138950345Y-56042001D01*
X138323224Y-56042001D01*
X138316403Y-56042371D01*
X138265541Y-56047895D01*
X138250289Y-56051521D01*
X138129839Y-56096676D01*
X138114244Y-56105214D01*
X138012169Y-56181715D01*
X137999608Y-56194276D01*
X137923107Y-56296351D01*
X137914569Y-56311946D01*
X137869415Y-56432394D01*
X137865788Y-56447649D01*
X137860262Y-56498514D01*
X137859893Y-56505328D01*
X137859893Y-57127885D01*
X137315415Y-57127885D01*
X137319849Y-57120692D01*
X137364505Y-56986060D01*
X137371072Y-56966262D01*
X137371072Y-56966260D01*
X137373238Y-56959731D01*
X137383500Y-56859572D01*
X137383500Y-56325428D01*
X137383067Y-56321249D01*
X137378563Y-56277842D01*
X137372978Y-56224018D01*
X137319308Y-56063151D01*
X137230071Y-55918945D01*
X137110053Y-55799136D01*
X137096238Y-55790620D01*
X137058817Y-55767554D01*
X136965692Y-55710151D01*
X136923737Y-55696235D01*
X136811262Y-55658928D01*
X136811260Y-55658928D01*
X136804731Y-55656762D01*
X136704572Y-55646500D01*
X136095428Y-55646500D01*
X136092182Y-55646837D01*
X136092178Y-55646837D01*
X136061358Y-55650035D01*
X135994018Y-55657022D01*
X135833151Y-55710692D01*
X135688945Y-55799929D01*
X135683776Y-55805107D01*
X135634667Y-55854302D01*
X135572385Y-55888381D01*
X135501565Y-55883378D01*
X135456399Y-55854379D01*
X135415381Y-55813361D01*
X135268699Y-55724528D01*
X135261452Y-55722257D01*
X135261450Y-55722256D01*
X135170723Y-55693824D01*
X135105062Y-55673247D01*
X135031635Y-55666500D01*
X135028737Y-55666500D01*
X134699140Y-55666501D01*
X134368366Y-55666501D01*
X134365508Y-55666764D01*
X134365499Y-55666764D01*
X134329996Y-55670026D01*
X134294938Y-55673247D01*
X134288560Y-55675246D01*
X134288559Y-55675246D01*
X134138550Y-55722256D01*
X134138548Y-55722257D01*
X134131301Y-55724528D01*
X133984619Y-55813361D01*
X133863361Y-55934619D01*
X133774528Y-56081301D01*
X133772257Y-56088548D01*
X133772256Y-56088550D01*
X133769457Y-56097481D01*
X133723247Y-56244938D01*
X133716500Y-56318365D01*
X133716501Y-56831634D01*
X133723247Y-56905062D01*
X133774528Y-57068699D01*
X133863361Y-57215381D01*
X133958885Y-57310905D01*
X133992911Y-57373217D01*
X133987846Y-57444032D01*
X133958885Y-57489095D01*
X133918385Y-57529595D01*
X133856073Y-57563621D01*
X133829290Y-57566500D01*
X131517056Y-57566500D01*
X131505200Y-57565941D01*
X131505197Y-57565941D01*
X131497463Y-57564212D01*
X131442446Y-57565941D01*
X131426631Y-57566438D01*
X131422673Y-57566500D01*
X131393568Y-57566500D01*
X131389168Y-57567056D01*
X131377336Y-57567988D01*
X131331169Y-57569438D01*
X131310579Y-57575420D01*
X131291218Y-57579430D01*
X131284230Y-57580312D01*
X131277796Y-57581125D01*
X131277795Y-57581125D01*
X131269936Y-57582118D01*
X131262571Y-57585034D01*
X131262567Y-57585035D01*
X131226979Y-57599126D01*
X131215769Y-57602965D01*
X131171400Y-57615855D01*
X131152943Y-57626771D01*
X131135193Y-57635466D01*
X131115244Y-57643365D01*
X131108833Y-57648023D01*
X131108831Y-57648024D01*
X131077864Y-57670523D01*
X131067946Y-57677038D01*
X131028193Y-57700548D01*
X131013032Y-57715709D01*
X130998000Y-57728548D01*
X130980643Y-57741159D01*
X130975590Y-57747267D01*
X130951194Y-57776757D01*
X130943204Y-57785537D01*
X129892396Y-58836345D01*
X129883613Y-58844337D01*
X129876920Y-58848584D01*
X129871494Y-58854362D01*
X129828395Y-58900258D01*
X129825640Y-58903100D01*
X129805073Y-58923667D01*
X129802356Y-58927170D01*
X129794648Y-58936195D01*
X129763028Y-58969867D01*
X129759207Y-58976818D01*
X129759206Y-58976819D01*
X129752697Y-58988658D01*
X129741843Y-59005182D01*
X129739266Y-59008505D01*
X129728696Y-59022132D01*
X129725549Y-59029404D01*
X129725548Y-59029406D01*
X129710346Y-59064535D01*
X129705124Y-59075195D01*
X129682876Y-59115663D01*
X129677541Y-59136441D01*
X129671142Y-59155131D01*
X129662620Y-59174824D01*
X129658006Y-59203958D01*
X129655394Y-59220448D01*
X129652987Y-59232071D01*
X129649950Y-59243901D01*
X129641500Y-59276812D01*
X129641500Y-59298259D01*
X129639949Y-59317969D01*
X129636594Y-59339152D01*
X129637340Y-59347043D01*
X129640941Y-59385138D01*
X129641500Y-59396996D01*
X129641500Y-66895050D01*
X129621498Y-66963171D01*
X129604595Y-66984145D01*
X129321645Y-67267095D01*
X129259333Y-67301121D01*
X129232550Y-67304000D01*
X128109500Y-67304000D01*
X128041379Y-67283998D01*
X127994886Y-67230342D01*
X127983500Y-67178000D01*
X127983500Y-67124600D01*
X127980399Y-67094714D01*
X127973238Y-67025692D01*
X127973237Y-67025688D01*
X127972526Y-67018834D01*
X127963083Y-66990528D01*
X127921228Y-66865076D01*
X127916550Y-66851054D01*
X127823478Y-66700652D01*
X127698303Y-66575695D01*
X127600954Y-66515688D01*
X127553968Y-66486725D01*
X127553966Y-66486724D01*
X127547738Y-66482885D01*
X127387254Y-66429655D01*
X127386389Y-66429368D01*
X127386387Y-66429368D01*
X127379861Y-66427203D01*
X127373025Y-66426503D01*
X127373022Y-66426502D01*
X127329969Y-66422091D01*
X127275400Y-66416500D01*
X125124600Y-66416500D01*
X125121354Y-66416837D01*
X125121350Y-66416837D01*
X125025692Y-66426762D01*
X125025688Y-66426763D01*
X125018834Y-66427474D01*
X125012298Y-66429655D01*
X125012296Y-66429655D01*
X124980881Y-66440136D01*
X124851054Y-66483450D01*
X124700652Y-66576522D01*
X124695479Y-66581704D01*
X124656020Y-66621232D01*
X124575695Y-66701697D01*
X124571855Y-66707927D01*
X124571854Y-66707928D01*
X124489404Y-66841687D01*
X124482885Y-66852262D01*
X124480581Y-66859209D01*
X124435588Y-66994860D01*
X124427203Y-67020139D01*
X124426503Y-67026975D01*
X124426502Y-67026978D01*
X124422091Y-67070031D01*
X124416500Y-67124600D01*
X124416500Y-68800400D01*
X124416837Y-68803646D01*
X124416837Y-68803650D01*
X124426658Y-68898297D01*
X124427474Y-68906166D01*
X124483450Y-69073946D01*
X124576522Y-69224348D01*
X124701697Y-69349305D01*
X124707927Y-69353145D01*
X124707928Y-69353146D01*
X124777744Y-69396181D01*
X124825237Y-69448953D01*
X124836661Y-69519025D01*
X124808387Y-69584149D01*
X124763969Y-69613288D01*
X124755671Y-69622865D01*
X124754000Y-69630548D01*
X124754000Y-72314884D01*
X124758475Y-72330123D01*
X124759865Y-72331328D01*
X124767548Y-72332999D01*
X125094669Y-72332999D01*
X125101490Y-72332629D01*
X125152352Y-72327105D01*
X125167604Y-72323479D01*
X125288054Y-72278324D01*
X125303649Y-72269786D01*
X125405724Y-72193285D01*
X125418285Y-72180724D01*
X125494786Y-72078649D01*
X125503324Y-72063054D01*
X125548478Y-71942606D01*
X125552105Y-71927351D01*
X125557631Y-71876486D01*
X125558000Y-71869672D01*
X125558000Y-71545582D01*
X125578002Y-71477461D01*
X125631658Y-71430968D01*
X125701932Y-71420864D01*
X125766512Y-71450358D01*
X125773095Y-71456487D01*
X125838773Y-71522165D01*
X125848696Y-71533341D01*
X125859792Y-71547441D01*
X125870684Y-71561283D01*
X125876162Y-71565719D01*
X125906819Y-71590545D01*
X125909063Y-71592455D01*
X125910555Y-71593947D01*
X125913301Y-71596139D01*
X125913302Y-71596140D01*
X125943034Y-71619876D01*
X125943716Y-71620425D01*
X126006615Y-71671358D01*
X126006618Y-71671360D01*
X126011648Y-71675433D01*
X126014211Y-71676694D01*
X126016443Y-71678476D01*
X126066909Y-71702873D01*
X126095147Y-71716524D01*
X126095936Y-71716909D01*
X126136507Y-71736872D01*
X126174397Y-71755516D01*
X126177178Y-71756178D01*
X126179748Y-71757421D01*
X126186062Y-71758879D01*
X126186063Y-71758879D01*
X126264945Y-71777090D01*
X126265801Y-71777291D01*
X126318746Y-71789904D01*
X126350845Y-71797551D01*
X126353699Y-71797581D01*
X126356485Y-71798224D01*
X126362950Y-71798247D01*
X126362953Y-71798247D01*
X126403879Y-71798390D01*
X126444028Y-71798530D01*
X126444677Y-71798534D01*
X126532221Y-71799451D01*
X126535014Y-71798847D01*
X126537870Y-71798857D01*
X126592995Y-71786535D01*
X126620481Y-71783500D01*
X126718709Y-71783500D01*
X126786830Y-71803502D01*
X126833323Y-71857158D01*
X126843972Y-71895892D01*
X126848255Y-71935316D01*
X126899385Y-72071705D01*
X126986739Y-72188261D01*
X127041065Y-72228976D01*
X127083580Y-72285835D01*
X127091500Y-72329802D01*
X127091500Y-74322918D01*
X127071498Y-74391039D01*
X127054595Y-74412013D01*
X127034842Y-74431766D01*
X127033905Y-74432694D01*
X126969493Y-74495771D01*
X126956221Y-74516365D01*
X126939409Y-74537199D01*
X125347276Y-76129332D01*
X125284964Y-76163358D01*
X125238524Y-76164237D01*
X125238519Y-76164287D01*
X125238076Y-76164245D01*
X125236081Y-76164283D01*
X125228284Y-76162894D01*
X125154452Y-76161992D01*
X125010081Y-76160228D01*
X125010079Y-76160228D01*
X125004911Y-76160165D01*
X124784091Y-76193955D01*
X124571756Y-76263357D01*
X124542663Y-76278502D01*
X124381516Y-76362390D01*
X124373607Y-76366507D01*
X124369474Y-76369610D01*
X124369471Y-76369612D01*
X124199100Y-76497530D01*
X124194965Y-76500635D01*
X124191393Y-76504373D01*
X124054292Y-76647841D01*
X124040629Y-76662138D01*
X124037715Y-76666410D01*
X124037714Y-76666411D01*
X123936929Y-76814156D01*
X123882018Y-76859159D01*
X123865974Y-76863755D01*
X123866172Y-76864437D01*
X123866169Y-76864438D01*
X123845579Y-76870420D01*
X123826218Y-76874430D01*
X123819230Y-76875312D01*
X123812796Y-76876125D01*
X123812795Y-76876125D01*
X123804936Y-76877118D01*
X123797571Y-76880034D01*
X123797567Y-76880035D01*
X123761979Y-76894126D01*
X123750769Y-76897965D01*
X123706400Y-76910855D01*
X123698640Y-76915444D01*
X123697807Y-76915656D01*
X123692299Y-76918039D01*
X123691915Y-76917151D01*
X123629825Y-76932904D01*
X123562493Y-76910388D01*
X123518023Y-76855045D01*
X123508500Y-76806991D01*
X123508500Y-72379572D01*
X123528502Y-72311451D01*
X123582158Y-72264958D01*
X123652432Y-72254854D01*
X123695008Y-72269052D01*
X123711939Y-72278321D01*
X123832394Y-72323478D01*
X123847649Y-72327105D01*
X123898514Y-72332631D01*
X123905328Y-72333000D01*
X124227885Y-72333000D01*
X124243124Y-72328525D01*
X124244329Y-72327135D01*
X124246000Y-72319452D01*
X124246000Y-69635116D01*
X124241525Y-69619877D01*
X124240135Y-69618672D01*
X124232452Y-69617001D01*
X123905331Y-69617001D01*
X123898510Y-69617371D01*
X123847648Y-69622895D01*
X123832396Y-69626521D01*
X123711939Y-69671679D01*
X123695008Y-69680948D01*
X123625651Y-69696117D01*
X123559103Y-69671380D01*
X123516493Y-69614592D01*
X123508500Y-69570428D01*
X123508500Y-62572095D01*
X124417001Y-62572095D01*
X124417338Y-62578614D01*
X124427257Y-62674206D01*
X124430149Y-62687600D01*
X124481588Y-62841784D01*
X124487761Y-62854962D01*
X124573063Y-62992807D01*
X124582099Y-63004208D01*
X124696829Y-63118739D01*
X124708240Y-63127751D01*
X124846243Y-63212816D01*
X124859424Y-63218963D01*
X125013710Y-63270138D01*
X125027086Y-63273005D01*
X125121438Y-63282672D01*
X125127854Y-63283000D01*
X125927885Y-63283000D01*
X125943124Y-63278525D01*
X125944329Y-63277135D01*
X125946000Y-63269452D01*
X125946000Y-63264884D01*
X126454000Y-63264884D01*
X126458475Y-63280123D01*
X126459865Y-63281328D01*
X126467548Y-63282999D01*
X127272095Y-63282999D01*
X127278614Y-63282662D01*
X127374206Y-63272743D01*
X127387600Y-63269851D01*
X127541784Y-63218412D01*
X127554962Y-63212239D01*
X127692807Y-63126937D01*
X127704208Y-63117901D01*
X127818739Y-63003171D01*
X127827751Y-62991760D01*
X127912816Y-62853757D01*
X127918963Y-62840576D01*
X127970138Y-62686290D01*
X127973005Y-62672914D01*
X127982672Y-62578562D01*
X127983000Y-62572146D01*
X127983000Y-62009615D01*
X127978525Y-61994376D01*
X127977135Y-61993171D01*
X127969452Y-61991500D01*
X126472115Y-61991500D01*
X126456876Y-61995975D01*
X126455671Y-61997365D01*
X126454000Y-62005048D01*
X126454000Y-63264884D01*
X125946000Y-63264884D01*
X125946000Y-62009615D01*
X125941525Y-61994376D01*
X125940135Y-61993171D01*
X125932452Y-61991500D01*
X124435116Y-61991500D01*
X124419877Y-61995975D01*
X124418672Y-61997365D01*
X124417001Y-62005048D01*
X124417001Y-62572095D01*
X123508500Y-62572095D01*
X123508500Y-61465385D01*
X124417000Y-61465385D01*
X124421475Y-61480624D01*
X124422865Y-61481829D01*
X124430548Y-61483500D01*
X125927885Y-61483500D01*
X125943124Y-61479025D01*
X125944329Y-61477635D01*
X125946000Y-61469952D01*
X125946000Y-61465385D01*
X126454000Y-61465385D01*
X126458475Y-61480624D01*
X126459865Y-61481829D01*
X126467548Y-61483500D01*
X127964884Y-61483500D01*
X127980123Y-61479025D01*
X127981328Y-61477635D01*
X127982999Y-61469952D01*
X127982999Y-60902905D01*
X127982662Y-60896386D01*
X127972743Y-60800794D01*
X127969851Y-60787400D01*
X127918412Y-60633216D01*
X127912239Y-60620038D01*
X127826937Y-60482193D01*
X127817901Y-60470792D01*
X127703171Y-60356261D01*
X127691760Y-60347249D01*
X127553757Y-60262184D01*
X127540576Y-60256037D01*
X127386290Y-60204862D01*
X127372914Y-60201995D01*
X127278562Y-60192328D01*
X127272145Y-60192000D01*
X126472115Y-60192000D01*
X126456876Y-60196475D01*
X126455671Y-60197865D01*
X126454000Y-60205548D01*
X126454000Y-61465385D01*
X125946000Y-61465385D01*
X125946000Y-60210116D01*
X125941525Y-60194877D01*
X125940135Y-60193672D01*
X125932452Y-60192001D01*
X125127905Y-60192001D01*
X125121386Y-60192338D01*
X125025794Y-60202257D01*
X125012400Y-60205149D01*
X124858216Y-60256588D01*
X124845038Y-60262761D01*
X124707193Y-60348063D01*
X124695792Y-60357099D01*
X124581261Y-60471829D01*
X124572249Y-60483240D01*
X124487184Y-60621243D01*
X124481037Y-60634424D01*
X124429862Y-60788710D01*
X124426995Y-60802086D01*
X124417328Y-60896438D01*
X124417000Y-60902855D01*
X124417000Y-61465385D01*
X123508500Y-61465385D01*
X123508500Y-58644514D01*
X123528502Y-58576393D01*
X123582158Y-58529900D01*
X123652432Y-58519796D01*
X123717012Y-58549290D01*
X123724754Y-58556592D01*
X123763772Y-58596645D01*
X123773814Y-58606953D01*
X123893462Y-58703324D01*
X124025196Y-58809431D01*
X124025201Y-58809435D01*
X124028149Y-58811809D01*
X124305253Y-58984627D01*
X124601112Y-59122903D01*
X124632633Y-59133236D01*
X124898671Y-59220448D01*
X124911440Y-59224634D01*
X125231742Y-59288346D01*
X125235514Y-59288633D01*
X125235522Y-59288634D01*
X125553602Y-59312829D01*
X125553607Y-59312829D01*
X125557379Y-59313116D01*
X125883633Y-59298586D01*
X125943425Y-59288634D01*
X126202037Y-59245590D01*
X126202042Y-59245589D01*
X126205778Y-59244967D01*
X126519149Y-59153034D01*
X126522616Y-59151544D01*
X126522620Y-59151543D01*
X126815721Y-59025616D01*
X126815723Y-59025615D01*
X126819205Y-59024119D01*
X127101601Y-58860091D01*
X127362245Y-58663324D01*
X127488974Y-58541157D01*
X127594632Y-58439303D01*
X127594635Y-58439300D01*
X127597363Y-58436670D01*
X127776123Y-58217098D01*
X127801155Y-58186351D01*
X127801158Y-58186347D01*
X127803549Y-58183410D01*
X127823655Y-58151544D01*
X127975788Y-57910428D01*
X127975790Y-57910425D01*
X127977815Y-57907215D01*
X127983632Y-57894938D01*
X128062460Y-57728551D01*
X128117638Y-57612084D01*
X128125101Y-57589715D01*
X128219790Y-57305897D01*
X128219792Y-57305891D01*
X128220992Y-57302293D01*
X128286381Y-56982329D01*
X128296106Y-56862771D01*
X128312674Y-56659061D01*
X128312856Y-56656826D01*
X128313451Y-56600000D01*
X128311539Y-56568277D01*
X128294026Y-56277793D01*
X128294026Y-56277789D01*
X128293798Y-56274015D01*
X128292079Y-56264598D01*
X128235805Y-55956473D01*
X128235804Y-55956469D01*
X128235125Y-55952751D01*
X128226560Y-55925165D01*
X128159081Y-55707846D01*
X128138282Y-55640863D01*
X128004670Y-55342869D01*
X127836226Y-55063084D01*
X127833899Y-55060100D01*
X127833894Y-55060093D01*
X127637726Y-54808558D01*
X127637724Y-54808556D01*
X127635390Y-54805563D01*
X127553618Y-54723361D01*
X127519756Y-54660961D01*
X127525006Y-54590159D01*
X127567701Y-54533435D01*
X127634286Y-54508798D01*
X127642946Y-54508500D01*
X152981932Y-54508500D01*
X153050053Y-54528502D01*
G37*
%TD.AperFunction*%
%TA.AperFunction,Conductor*%
G36*
X138467012Y-79759386D02*
G01*
X138473595Y-79765515D01*
X139667983Y-80959902D01*
X139675973Y-80968682D01*
X139680222Y-80975377D01*
X139686000Y-80980803D01*
X139686001Y-80980804D01*
X139731895Y-81023901D01*
X139734737Y-81026656D01*
X139755305Y-81047224D01*
X139758808Y-81049941D01*
X139767833Y-81057649D01*
X139801505Y-81089269D01*
X139808451Y-81093087D01*
X139808453Y-81093089D01*
X139813651Y-81095946D01*
X139816531Y-81097529D01*
X139816678Y-81097610D01*
X139866738Y-81147954D01*
X139881633Y-81217370D01*
X139856634Y-81283820D01*
X139849619Y-81292334D01*
X139830960Y-81313056D01*
X139735473Y-81478444D01*
X139733431Y-81484729D01*
X139693745Y-81606870D01*
X139676458Y-81660072D01*
X139676249Y-81662065D01*
X139643328Y-81723037D01*
X139581177Y-81757356D01*
X139510339Y-81752625D01*
X139464718Y-81723458D01*
X138295405Y-80554145D01*
X138261379Y-80491833D01*
X138258500Y-80465050D01*
X138258500Y-79854610D01*
X138278502Y-79786489D01*
X138332158Y-79739996D01*
X138402432Y-79729892D01*
X138467012Y-79759386D01*
G37*
%TD.AperFunction*%
%TA.AperFunction,Conductor*%
G36*
X130573819Y-71803502D02*
G01*
X130620312Y-71857158D01*
X130630416Y-71927432D01*
X130600922Y-71992012D01*
X130554101Y-72022002D01*
X130555489Y-72025210D01*
X130533780Y-72034604D01*
X130406501Y-72109876D01*
X130394074Y-72119516D01*
X130289516Y-72224074D01*
X130279876Y-72236501D01*
X130204604Y-72363780D01*
X130198357Y-72378216D01*
X130156688Y-72521641D01*
X130155232Y-72529609D01*
X130158052Y-72543031D01*
X130169513Y-72546000D01*
X130985500Y-72546000D01*
X131053621Y-72566002D01*
X131100114Y-72619658D01*
X131111500Y-72672000D01*
X131111500Y-72928000D01*
X131091498Y-72996121D01*
X131037842Y-73042614D01*
X130985500Y-73054000D01*
X130171576Y-73054000D01*
X130156781Y-73058344D01*
X130154937Y-73068775D01*
X130156688Y-73078359D01*
X130198357Y-73221784D01*
X130204607Y-73236226D01*
X130269822Y-73346499D01*
X130287282Y-73415315D01*
X130262194Y-73486204D01*
X130254771Y-73496108D01*
X130254770Y-73496110D01*
X130249385Y-73503295D01*
X130198255Y-73639684D01*
X130191500Y-73701866D01*
X130191500Y-75798134D01*
X130198255Y-75860316D01*
X130249385Y-75996705D01*
X130336739Y-76113261D01*
X130453295Y-76200615D01*
X130589684Y-76251745D01*
X130651866Y-76258500D01*
X132826050Y-76258500D01*
X132894171Y-76278502D01*
X132940664Y-76332158D01*
X132950768Y-76402432D01*
X132921274Y-76467012D01*
X132915149Y-76473591D01*
X132484144Y-76904596D01*
X132421832Y-76938621D01*
X132395049Y-76941500D01*
X130651866Y-76941500D01*
X130589684Y-76948255D01*
X130453295Y-76999385D01*
X130336739Y-77086739D01*
X130249385Y-77203295D01*
X130198255Y-77339684D01*
X130191500Y-77401866D01*
X130191500Y-79498134D01*
X130198255Y-79560316D01*
X130249385Y-79696705D01*
X130254770Y-79703890D01*
X130254771Y-79703892D01*
X130262194Y-79713796D01*
X130287043Y-79780302D01*
X130269822Y-79853501D01*
X130204607Y-79963774D01*
X130198357Y-79978216D01*
X130156688Y-80121641D01*
X130155232Y-80129609D01*
X130158052Y-80143031D01*
X130169513Y-80146000D01*
X130985500Y-80146000D01*
X131053621Y-80166002D01*
X131100114Y-80219658D01*
X131111500Y-80272000D01*
X131111500Y-80455500D01*
X131091498Y-80523621D01*
X131037842Y-80570114D01*
X130985500Y-80581500D01*
X128984950Y-80581500D01*
X128916829Y-80561498D01*
X128895855Y-80544595D01*
X128835405Y-80484145D01*
X128801379Y-80421833D01*
X128798500Y-80395050D01*
X128798500Y-75632056D01*
X128799059Y-75620200D01*
X128799059Y-75620197D01*
X128800788Y-75612463D01*
X128798562Y-75541631D01*
X128798500Y-75537673D01*
X128798500Y-75508568D01*
X128797944Y-75504168D01*
X128797012Y-75492330D01*
X128795811Y-75454094D01*
X128795562Y-75446169D01*
X128789580Y-75425579D01*
X128785570Y-75406216D01*
X128783875Y-75392796D01*
X128783875Y-75392795D01*
X128782882Y-75384936D01*
X128779966Y-75377571D01*
X128779965Y-75377567D01*
X128765874Y-75341979D01*
X128762035Y-75330769D01*
X128749145Y-75286400D01*
X128738229Y-75267943D01*
X128729534Y-75250193D01*
X128721635Y-75230244D01*
X128694477Y-75192864D01*
X128687960Y-75182943D01*
X128664452Y-75143193D01*
X128663975Y-75142716D01*
X128639207Y-75079634D01*
X128651273Y-75013657D01*
X128664356Y-74986593D01*
X128664358Y-74986587D01*
X128667421Y-74980251D01*
X128674965Y-74947572D01*
X128679332Y-74932831D01*
X128690803Y-74901315D01*
X128691686Y-74894325D01*
X128691688Y-74894317D01*
X128696238Y-74858299D01*
X128698474Y-74845747D01*
X128706638Y-74810386D01*
X128706638Y-74810383D01*
X128708224Y-74803515D01*
X128708366Y-74762944D01*
X128708395Y-74762062D01*
X128708500Y-74761231D01*
X128708500Y-74724428D01*
X128708730Y-74658502D01*
X128708845Y-74625657D01*
X128708845Y-74625652D01*
X128708857Y-74622130D01*
X128708589Y-74620930D01*
X128708500Y-74619293D01*
X128708500Y-72329802D01*
X128728502Y-72261681D01*
X128758935Y-72228976D01*
X128813261Y-72188261D01*
X128900615Y-72071705D01*
X128951745Y-71935316D01*
X128956028Y-71895892D01*
X128983270Y-71830330D01*
X129041634Y-71789904D01*
X129081291Y-71783500D01*
X130505698Y-71783500D01*
X130573819Y-71803502D01*
G37*
%TD.AperFunction*%
%TA.AperFunction,Conductor*%
G36*
X140536925Y-76435580D02*
G01*
X140581988Y-76464541D01*
X140690702Y-76573255D01*
X140693980Y-76575770D01*
X140781988Y-76643301D01*
X140781199Y-76644329D01*
X140813076Y-76676206D01*
X140814494Y-76675118D01*
X140850863Y-76722516D01*
X140862456Y-76730981D01*
X140880079Y-76721221D01*
X140949362Y-76705717D01*
X140957563Y-76706524D01*
X140975230Y-76708850D01*
X140991452Y-76710986D01*
X141056379Y-76739709D01*
X141095470Y-76798974D01*
X141099926Y-76819457D01*
X141104403Y-76853458D01*
X141093464Y-76923605D01*
X141090067Y-76930292D01*
X141079955Y-76948810D01*
X141088093Y-76959816D01*
X141135795Y-76996419D01*
X141134707Y-76997837D01*
X141166582Y-77029713D01*
X141167611Y-77028924D01*
X141237657Y-77120210D01*
X141397809Y-77280362D01*
X141465477Y-77332285D01*
X141489095Y-77350408D01*
X141488145Y-77351645D01*
X141519928Y-77383428D01*
X141521165Y-77382478D01*
X141591211Y-77473764D01*
X141751363Y-77633916D01*
X141763006Y-77642850D01*
X141842649Y-77703962D01*
X141841700Y-77705198D01*
X141873482Y-77736980D01*
X141874718Y-77736031D01*
X141944764Y-77827317D01*
X142104916Y-77987469D01*
X142149672Y-78021811D01*
X142196202Y-78057515D01*
X142195253Y-78058751D01*
X142227035Y-78090533D01*
X142228271Y-78089584D01*
X142298317Y-78180870D01*
X142458469Y-78341022D01*
X142474881Y-78353615D01*
X142549755Y-78411068D01*
X142548805Y-78412305D01*
X142580588Y-78444088D01*
X142581825Y-78443138D01*
X142651871Y-78534424D01*
X142812023Y-78694576D01*
X142903309Y-78764622D01*
X142902360Y-78765858D01*
X142934142Y-78797640D01*
X142935378Y-78796691D01*
X143005424Y-78887977D01*
X143165576Y-79048129D01*
X143168854Y-79050644D01*
X143256862Y-79118175D01*
X143255913Y-79119411D01*
X143287695Y-79151193D01*
X143288931Y-79150244D01*
X143358977Y-79241530D01*
X143519129Y-79401682D01*
X143554079Y-79428500D01*
X143610415Y-79471728D01*
X143609465Y-79472965D01*
X143641248Y-79504748D01*
X143642485Y-79503798D01*
X143712531Y-79595084D01*
X143796149Y-79678702D01*
X143830175Y-79741014D01*
X143825110Y-79811829D01*
X143782563Y-79868665D01*
X143716043Y-79893476D01*
X143707054Y-79893797D01*
X140516587Y-79893797D01*
X140448466Y-79873795D01*
X140427492Y-79856892D01*
X139614973Y-79044373D01*
X138799814Y-78229215D01*
X138765789Y-78166903D01*
X138770853Y-78096088D01*
X138812206Y-78040157D01*
X138877585Y-77989990D01*
X138877592Y-77989984D01*
X138880870Y-77987469D01*
X139041022Y-77827317D01*
X139111068Y-77736031D01*
X139112304Y-77736980D01*
X139144086Y-77705198D01*
X139143137Y-77703962D01*
X139222780Y-77642850D01*
X139234423Y-77633916D01*
X139394575Y-77473764D01*
X139464621Y-77382478D01*
X139465858Y-77383428D01*
X139497641Y-77351645D01*
X139496691Y-77350408D01*
X139520309Y-77332285D01*
X139587977Y-77280362D01*
X139748129Y-77120210D01*
X139818175Y-77028924D01*
X139819411Y-77029873D01*
X139851193Y-76998091D01*
X139850244Y-76996855D01*
X139883290Y-76971498D01*
X139941530Y-76926809D01*
X140101682Y-76766657D01*
X140171728Y-76675371D01*
X140172965Y-76676321D01*
X140204748Y-76644538D01*
X140203798Y-76643301D01*
X140291806Y-76575770D01*
X140295084Y-76573255D01*
X140403798Y-76464541D01*
X140466110Y-76430515D01*
X140536925Y-76435580D01*
G37*
%TD.AperFunction*%
%TA.AperFunction,Conductor*%
G36*
X135969618Y-76558502D02*
G01*
X135990592Y-76575405D01*
X136299664Y-76884477D01*
X136333690Y-76946789D01*
X136328625Y-77017604D01*
X136287273Y-77073534D01*
X136239201Y-77110421D01*
X136172981Y-77136022D01*
X136131163Y-77132501D01*
X136099758Y-77124438D01*
X136088315Y-77121500D01*
X136066868Y-77121500D01*
X136047158Y-77119949D01*
X136033804Y-77117834D01*
X136025975Y-77116594D01*
X135979986Y-77120941D01*
X135968131Y-77121500D01*
X135704881Y-77121500D01*
X135636760Y-77101498D01*
X135617412Y-77082205D01*
X135599309Y-77074000D01*
X135321379Y-77074000D01*
X135257240Y-77056454D01*
X135236420Y-77044141D01*
X135236419Y-77044141D01*
X135229597Y-77040106D01*
X135221986Y-77037895D01*
X135221984Y-77037894D01*
X135171005Y-77023084D01*
X135072254Y-76994394D01*
X135065849Y-76993890D01*
X135065844Y-76993889D01*
X135037940Y-76991693D01*
X135037932Y-76991693D01*
X135035484Y-76991500D01*
X134672000Y-76991500D01*
X134603879Y-76971498D01*
X134557386Y-76917842D01*
X134546000Y-76865500D01*
X134546000Y-76757449D01*
X134566002Y-76689328D01*
X134582905Y-76668354D01*
X134648354Y-76602905D01*
X134710666Y-76568879D01*
X134737449Y-76566000D01*
X135593558Y-76566000D01*
X135634775Y-76553898D01*
X135650792Y-76543604D01*
X135686291Y-76538500D01*
X135901497Y-76538500D01*
X135969618Y-76558502D01*
G37*
%TD.AperFunction*%
%TA.AperFunction,Conductor*%
G36*
X138931039Y-71178502D02*
G01*
X138952013Y-71195405D01*
X140221766Y-72465158D01*
X140222694Y-72466095D01*
X140277089Y-72521641D01*
X140285771Y-72530507D01*
X140322221Y-72553998D01*
X140332546Y-72561417D01*
X140366443Y-72588476D01*
X140372784Y-72591541D01*
X140372785Y-72591542D01*
X140396637Y-72603072D01*
X140410054Y-72610601D01*
X140438238Y-72628765D01*
X140444855Y-72631173D01*
X140444860Y-72631176D01*
X140478973Y-72643592D01*
X140490716Y-72648553D01*
X140523403Y-72664354D01*
X140523408Y-72664356D01*
X140529749Y-72667421D01*
X140536607Y-72669004D01*
X140536609Y-72669005D01*
X140562426Y-72674965D01*
X140577169Y-72679332D01*
X140608685Y-72690803D01*
X140615675Y-72691686D01*
X140615683Y-72691688D01*
X140651701Y-72696238D01*
X140664253Y-72698474D01*
X140699614Y-72706638D01*
X140699617Y-72706638D01*
X140706485Y-72708224D01*
X140713531Y-72708249D01*
X140713534Y-72708249D01*
X140747056Y-72708366D01*
X140747938Y-72708395D01*
X140748769Y-72708500D01*
X140785419Y-72708500D01*
X140785859Y-72708501D01*
X140884343Y-72708845D01*
X140884348Y-72708845D01*
X140887870Y-72708857D01*
X140889070Y-72708589D01*
X140890707Y-72708500D01*
X141288652Y-72708500D01*
X141356773Y-72728502D01*
X141389117Y-72760754D01*
X141400691Y-72766000D01*
X142328000Y-72766000D01*
X142396121Y-72786002D01*
X142442614Y-72839658D01*
X142454000Y-72892000D01*
X142454000Y-73065500D01*
X142433998Y-73133621D01*
X142380342Y-73180114D01*
X142328000Y-73191500D01*
X141964516Y-73191500D01*
X141962068Y-73191693D01*
X141962060Y-73191693D01*
X141934156Y-73193889D01*
X141934151Y-73193890D01*
X141927746Y-73194394D01*
X141846586Y-73217973D01*
X141778016Y-73237894D01*
X141778014Y-73237895D01*
X141770403Y-73240106D01*
X141763581Y-73244141D01*
X141763580Y-73244141D01*
X141742760Y-73256454D01*
X141678621Y-73274000D01*
X141406442Y-73274000D01*
X141390616Y-73278647D01*
X141331878Y-73316396D01*
X141296379Y-73321500D01*
X139704881Y-73321500D01*
X139636760Y-73301498D01*
X139617412Y-73282205D01*
X139599309Y-73274000D01*
X139321379Y-73274000D01*
X139257240Y-73256454D01*
X139236420Y-73244141D01*
X139236419Y-73244141D01*
X139229597Y-73240106D01*
X139221986Y-73237895D01*
X139221984Y-73237894D01*
X139153414Y-73217973D01*
X139072254Y-73194394D01*
X139065849Y-73193890D01*
X139065844Y-73193889D01*
X139037940Y-73191693D01*
X139037932Y-73191693D01*
X139035484Y-73191500D01*
X138564516Y-73191500D01*
X138562068Y-73191693D01*
X138562060Y-73191693D01*
X138534156Y-73193889D01*
X138534151Y-73193890D01*
X138527746Y-73194394D01*
X138446586Y-73217973D01*
X138378016Y-73237894D01*
X138378014Y-73237895D01*
X138370403Y-73240106D01*
X138363581Y-73244141D01*
X138363580Y-73244141D01*
X138342760Y-73256454D01*
X138278621Y-73274000D01*
X138006442Y-73274000D01*
X137992911Y-73277973D01*
X137991776Y-73285871D01*
X138028357Y-73411784D01*
X138034605Y-73426222D01*
X138040016Y-73435372D01*
X138057474Y-73504188D01*
X138040015Y-73563647D01*
X138030106Y-73580403D01*
X137984394Y-73737746D01*
X137981500Y-73774516D01*
X137981500Y-74185484D01*
X137981693Y-74187932D01*
X137981693Y-74187940D01*
X137982497Y-74198148D01*
X137984394Y-74222254D01*
X137986188Y-74228430D01*
X137986189Y-74228434D01*
X137996176Y-74262810D01*
X137995973Y-74333806D01*
X137957418Y-74393422D01*
X137892754Y-74422730D01*
X137822509Y-74412425D01*
X137786084Y-74387057D01*
X137104311Y-73705283D01*
X136147633Y-72748605D01*
X137993381Y-72748605D01*
X137993421Y-72762705D01*
X138000691Y-72766000D01*
X138527885Y-72766000D01*
X138543124Y-72761525D01*
X138544329Y-72760135D01*
X138546000Y-72752452D01*
X138546000Y-72747885D01*
X139054000Y-72747885D01*
X139058475Y-72763124D01*
X139059865Y-72764329D01*
X139067548Y-72766000D01*
X139593558Y-72766000D01*
X139607089Y-72762027D01*
X139608224Y-72754129D01*
X139571643Y-72628216D01*
X139565396Y-72613780D01*
X139490124Y-72486501D01*
X139480484Y-72474074D01*
X139375926Y-72369516D01*
X139363499Y-72359876D01*
X139236220Y-72284604D01*
X139221784Y-72278357D01*
X139078359Y-72236688D01*
X139070391Y-72235232D01*
X139056969Y-72238052D01*
X139054000Y-72249513D01*
X139054000Y-72747885D01*
X138546000Y-72747885D01*
X138546000Y-72251576D01*
X138541656Y-72236781D01*
X138531225Y-72234937D01*
X138521641Y-72236688D01*
X138378216Y-72278357D01*
X138363780Y-72284604D01*
X138236501Y-72359876D01*
X138224074Y-72369516D01*
X138119516Y-72474074D01*
X138109876Y-72486501D01*
X138034604Y-72613780D01*
X138028357Y-72628216D01*
X137993381Y-72748605D01*
X136147633Y-72748605D01*
X136125581Y-72726553D01*
X136091555Y-72664241D01*
X136089366Y-72650629D01*
X136074232Y-72506634D01*
X136074231Y-72506631D01*
X136073542Y-72500072D01*
X136032395Y-72373435D01*
X136030367Y-72302469D01*
X136067030Y-72241671D01*
X136130742Y-72210345D01*
X136152228Y-72208500D01*
X136711467Y-72208500D01*
X136773649Y-72201745D01*
X136910038Y-72150615D01*
X137026594Y-72063261D01*
X137113948Y-71946705D01*
X137165078Y-71810316D01*
X137171833Y-71748134D01*
X137171833Y-71284500D01*
X137191835Y-71216379D01*
X137245491Y-71169886D01*
X137297833Y-71158500D01*
X138862918Y-71158500D01*
X138931039Y-71178502D01*
G37*
%TD.AperFunction*%
%TA.AperFunction,Conductor*%
G36*
X148362032Y-63546857D02*
G01*
X148418868Y-63589404D01*
X148443679Y-63655924D01*
X148444000Y-63664913D01*
X148444000Y-63778632D01*
X148447973Y-63792162D01*
X148457150Y-63793481D01*
X148521731Y-63822974D01*
X148528315Y-63829104D01*
X148877189Y-64177979D01*
X148891132Y-64185592D01*
X148892966Y-64185461D01*
X148899579Y-64181210D01*
X149220925Y-63859864D01*
X149283238Y-63825839D01*
X149354053Y-63830903D01*
X149399115Y-63859862D01*
X149427192Y-63887938D01*
X149441128Y-63895548D01*
X149442966Y-63895417D01*
X149449581Y-63891166D01*
X149480885Y-63859862D01*
X149543197Y-63825838D01*
X149614013Y-63830904D01*
X149659075Y-63859864D01*
X149990000Y-64190790D01*
X150682400Y-64883189D01*
X150705862Y-64896000D01*
X150929885Y-64896000D01*
X150973214Y-64883278D01*
X151044210Y-64883278D01*
X151103936Y-64921662D01*
X151115855Y-64937871D01*
X151141522Y-64979348D01*
X151266697Y-65104305D01*
X151272925Y-65108144D01*
X151272930Y-65108148D01*
X151321617Y-65138159D01*
X151369110Y-65190931D01*
X151381500Y-65245418D01*
X151381500Y-66692706D01*
X151361498Y-66760827D01*
X151343659Y-66782728D01*
X151289493Y-66835771D01*
X151266002Y-66872221D01*
X151258583Y-66882546D01*
X151231524Y-66916443D01*
X151228459Y-66922784D01*
X151228458Y-66922785D01*
X151216928Y-66946637D01*
X151209399Y-66960054D01*
X151191235Y-66988238D01*
X151188827Y-66994855D01*
X151188824Y-66994860D01*
X151176408Y-67028973D01*
X151171447Y-67040716D01*
X151155646Y-67073403D01*
X151155644Y-67073408D01*
X151152579Y-67079749D01*
X151150995Y-67086609D01*
X151148654Y-67093257D01*
X151145956Y-67092307D01*
X151117456Y-67142960D01*
X151054716Y-67176190D01*
X150983971Y-67170226D01*
X150927680Y-67126960D01*
X150903717Y-67060130D01*
X150903500Y-67052739D01*
X150903500Y-67026866D01*
X150896745Y-66964684D01*
X150892565Y-66953534D01*
X150892336Y-66950409D01*
X150892144Y-66949600D01*
X150892275Y-66949569D01*
X150887383Y-66882726D01*
X150892566Y-66865076D01*
X150938478Y-66742606D01*
X150942105Y-66727351D01*
X150947631Y-66676486D01*
X150948000Y-66669672D01*
X150948000Y-65422115D01*
X150943525Y-65406876D01*
X150942135Y-65405671D01*
X150934452Y-65404000D01*
X150713326Y-65404000D01*
X150687681Y-65411530D01*
X150349210Y-65750000D01*
X149990000Y-66109210D01*
X149659074Y-66440137D01*
X149596762Y-66474162D01*
X149525946Y-66469097D01*
X149480885Y-66440138D01*
X149452808Y-66412062D01*
X149438872Y-66404452D01*
X149437034Y-66404583D01*
X149430419Y-66408834D01*
X149399115Y-66440138D01*
X149336803Y-66474162D01*
X149265987Y-66469096D01*
X149220925Y-66440136D01*
X148902811Y-66122021D01*
X148888868Y-66114408D01*
X148887034Y-66114539D01*
X148880421Y-66118790D01*
X148527681Y-66471530D01*
X148465368Y-66505555D01*
X148447638Y-66508105D01*
X148444810Y-66515688D01*
X148402264Y-66572524D01*
X148370984Y-66589637D01*
X148339341Y-66601500D01*
X148286705Y-66621232D01*
X148286704Y-66621233D01*
X148278295Y-66624385D01*
X148265565Y-66633926D01*
X148199061Y-66658774D01*
X148129678Y-66643722D01*
X148114441Y-66633930D01*
X148101705Y-66624385D01*
X148083581Y-66617591D01*
X148017770Y-66592919D01*
X147961006Y-66550277D01*
X147936306Y-66483716D01*
X147936000Y-66474937D01*
X147936000Y-66473326D01*
X147928470Y-66447681D01*
X147299464Y-65818674D01*
X148444000Y-65818674D01*
X148447237Y-65829699D01*
X148454328Y-65826461D01*
X148517982Y-65762808D01*
X148524358Y-65751130D01*
X149254408Y-65751130D01*
X149254539Y-65752966D01*
X149258789Y-65759579D01*
X149427192Y-65927981D01*
X149441130Y-65935592D01*
X149442966Y-65935460D01*
X149449579Y-65931211D01*
X149617981Y-65762808D01*
X149625592Y-65748870D01*
X149625461Y-65747034D01*
X149621211Y-65740421D01*
X149452808Y-65572019D01*
X149438870Y-65564408D01*
X149437034Y-65564540D01*
X149430421Y-65568789D01*
X149262019Y-65737192D01*
X149254408Y-65751130D01*
X148524358Y-65751130D01*
X148525592Y-65748870D01*
X148525461Y-65747034D01*
X148521211Y-65740421D01*
X148456808Y-65676019D01*
X148446724Y-65670512D01*
X148444000Y-65677815D01*
X148444000Y-65818674D01*
X147299464Y-65818674D01*
X147230790Y-65750000D01*
X147002811Y-65522022D01*
X146988868Y-65514409D01*
X146987033Y-65514540D01*
X146980423Y-65518788D01*
X146749210Y-65750000D01*
X146479095Y-66020116D01*
X146416783Y-66054141D01*
X146345967Y-66049076D01*
X146300905Y-66020115D01*
X146030790Y-65750000D01*
X145699863Y-65419074D01*
X145665837Y-65356762D01*
X145670902Y-65285947D01*
X145699863Y-65240884D01*
X145777937Y-65162810D01*
X145785549Y-65148870D01*
X145785417Y-65147034D01*
X145781168Y-65140422D01*
X145699863Y-65059117D01*
X145665837Y-64996805D01*
X145670902Y-64925990D01*
X145699863Y-64880926D01*
X146300905Y-64279885D01*
X146363217Y-64245860D01*
X146434033Y-64250925D01*
X146479095Y-64279885D01*
X146977192Y-64777981D01*
X146991130Y-64785592D01*
X146992966Y-64785460D01*
X146999578Y-64781211D01*
X147162115Y-64618674D01*
X148444000Y-64618674D01*
X148447237Y-64629699D01*
X148454328Y-64626461D01*
X148517982Y-64562808D01*
X148524358Y-64551130D01*
X149254408Y-64551130D01*
X149254539Y-64552966D01*
X149258789Y-64559579D01*
X149427192Y-64727981D01*
X149441130Y-64735592D01*
X149442966Y-64735460D01*
X149449579Y-64731211D01*
X149617981Y-64562808D01*
X149625592Y-64548870D01*
X149625461Y-64547034D01*
X149621211Y-64540421D01*
X149452808Y-64372019D01*
X149438870Y-64364408D01*
X149437034Y-64364540D01*
X149430421Y-64368789D01*
X149262019Y-64537192D01*
X149254408Y-64551130D01*
X148524358Y-64551130D01*
X148525592Y-64548870D01*
X148525461Y-64547034D01*
X148521211Y-64540421D01*
X148456808Y-64476019D01*
X148446724Y-64470512D01*
X148444000Y-64477815D01*
X148444000Y-64618674D01*
X147162115Y-64618674D01*
X147590000Y-64190790D01*
X147923189Y-63857600D01*
X147936000Y-63834138D01*
X147936000Y-63825063D01*
X147956002Y-63756942D01*
X148009658Y-63710449D01*
X148017770Y-63707081D01*
X148093297Y-63678767D01*
X148101705Y-63675615D01*
X148218261Y-63588261D01*
X148223642Y-63581081D01*
X148228905Y-63575818D01*
X148291217Y-63541792D01*
X148362032Y-63546857D01*
G37*
%TD.AperFunction*%
%TD*%
M02*
