%TF.GenerationSoftware,KiCad,Pcbnew,(6.0.8)*%
%TF.CreationDate,2022-12-02T21:09:01+01:00*%
%TF.ProjectId,mcudev,6d637564-6576-42e6-9b69-6361645f7063,rev?*%
%TF.SameCoordinates,Original*%
%TF.FileFunction,Soldermask,Top*%
%TF.FilePolarity,Negative*%
%FSLAX46Y46*%
G04 Gerber Fmt 4.6, Leading zero omitted, Abs format (unit mm)*
G04 Created by KiCad (PCBNEW (6.0.8)) date 2022-12-02 21:09:01*
%MOMM*%
%LPD*%
G01*
G04 APERTURE LIST*
G04 Aperture macros list*
%AMRoundRect*
0 Rectangle with rounded corners*
0 $1 Rounding radius*
0 $2 $3 $4 $5 $6 $7 $8 $9 X,Y pos of 4 corners*
0 Add a 4 corners polygon primitive as box body*
4,1,4,$2,$3,$4,$5,$6,$7,$8,$9,$2,$3,0*
0 Add four circle primitives for the rounded corners*
1,1,$1+$1,$2,$3*
1,1,$1+$1,$4,$5*
1,1,$1+$1,$6,$7*
1,1,$1+$1,$8,$9*
0 Add four rect primitives between the rounded corners*
20,1,$1+$1,$2,$3,$4,$5,0*
20,1,$1+$1,$4,$5,$6,$7,0*
20,1,$1+$1,$6,$7,$8,$9,0*
20,1,$1+$1,$8,$9,$2,$3,0*%
G04 Aperture macros list end*
%ADD10C,4.400000*%
%ADD11C,0.700000*%
%ADD12RoundRect,0.225000X-0.250000X0.225000X-0.250000X-0.225000X0.250000X-0.225000X0.250000X0.225000X0*%
%ADD13RoundRect,0.200000X-0.275000X0.200000X-0.275000X-0.200000X0.275000X-0.200000X0.275000X0.200000X0*%
%ADD14R,3.600000X2.700000*%
%ADD15R,2.800000X1.000000*%
%ADD16RoundRect,0.140000X0.170000X-0.140000X0.170000X0.140000X-0.170000X0.140000X-0.170000X-0.140000X0*%
%ADD17RoundRect,0.147500X0.172500X-0.147500X0.172500X0.147500X-0.172500X0.147500X-0.172500X-0.147500X0*%
%ADD18RoundRect,0.250000X-0.262500X-0.450000X0.262500X-0.450000X0.262500X0.450000X-0.262500X0.450000X0*%
%ADD19C,0.800000*%
%ADD20C,5.000000*%
%ADD21R,1.700000X1.700000*%
%ADD22O,1.700000X1.700000*%
%ADD23RoundRect,0.140000X0.140000X0.170000X-0.140000X0.170000X-0.140000X-0.170000X0.140000X-0.170000X0*%
%ADD24RoundRect,0.150000X0.150000X-0.587500X0.150000X0.587500X-0.150000X0.587500X-0.150000X-0.587500X0*%
%ADD25R,2.400000X2.000000*%
%ADD26R,1.800000X2.500000*%
%ADD27RoundRect,0.200000X0.275000X-0.200000X0.275000X0.200000X-0.275000X0.200000X-0.275000X-0.200000X0*%
%ADD28RoundRect,0.135000X0.135000X0.185000X-0.135000X0.185000X-0.135000X-0.185000X0.135000X-0.185000X0*%
%ADD29RoundRect,0.250000X-0.475000X0.250000X-0.475000X-0.250000X0.475000X-0.250000X0.475000X0.250000X0*%
%ADD30RoundRect,0.250000X0.450000X-0.262500X0.450000X0.262500X-0.450000X0.262500X-0.450000X-0.262500X0*%
%ADD31RoundRect,0.140000X-0.170000X0.140000X-0.170000X-0.140000X0.170000X-0.140000X0.170000X0.140000X0*%
%ADD32RoundRect,0.250000X1.025000X-0.787500X1.025000X0.787500X-1.025000X0.787500X-1.025000X-0.787500X0*%
%ADD33RoundRect,0.075000X-0.521491X0.415425X0.415425X-0.521491X0.521491X-0.415425X-0.415425X0.521491X0*%
%ADD34RoundRect,0.075000X-0.521491X-0.415425X-0.415425X-0.521491X0.521491X0.415425X0.415425X0.521491X0*%
%ADD35R,0.600000X1.550000*%
%ADD36R,3.100000X2.600000*%
%ADD37RoundRect,0.218750X0.256250X-0.218750X0.256250X0.218750X-0.256250X0.218750X-0.256250X-0.218750X0*%
%ADD38R,1.100000X1.700000*%
%ADD39RoundRect,0.218750X-0.256250X0.218750X-0.256250X-0.218750X0.256250X-0.218750X0.256250X0.218750X0*%
%ADD40RoundRect,0.250000X0.250000X0.475000X-0.250000X0.475000X-0.250000X-0.475000X0.250000X-0.475000X0*%
G04 APERTURE END LIST*
D10*
%TO.C,H3*%
X125600000Y-56600000D03*
D11*
X123950000Y-56600000D03*
X127250000Y-56600000D03*
X124433274Y-55433274D03*
X125600000Y-58250000D03*
X126766726Y-57766726D03*
X126766726Y-55433274D03*
X125600000Y-54950000D03*
X124433274Y-57766726D03*
%TD*%
D12*
%TO.C,U1*%
X138300000Y-87275000D03*
X138300000Y-88825000D03*
%TD*%
D13*
%TO.C,R6*%
X136087500Y-91265000D03*
X136087500Y-92915000D03*
%TD*%
D14*
%TO.C,L1*%
X134863333Y-62050000D03*
X134863333Y-70350000D03*
%TD*%
D15*
%TO.C,SW1*%
X150741666Y-98800000D03*
X144941666Y-98800000D03*
X144941666Y-102800000D03*
X150741666Y-102800000D03*
%TD*%
D16*
%TO.C,U11*%
X139012500Y-93140000D03*
X139012500Y-92180000D03*
%TD*%
D17*
%TO.C,F1*%
X144240000Y-57395000D03*
X144240000Y-56425000D03*
%TD*%
D18*
%TO.C,R10*%
X150095000Y-70270000D03*
X151920000Y-70270000D03*
%TD*%
D15*
%TO.C,SW2*%
X130470000Y-102810000D03*
X136270000Y-102810000D03*
X136270000Y-98810000D03*
X130470000Y-98810000D03*
%TD*%
D13*
%TO.C,R1*%
X143615000Y-91265000D03*
X143615000Y-92915000D03*
%TD*%
D19*
%TO.C,H2*%
X156485825Y-102814175D03*
X155160000Y-106015000D03*
X157035000Y-104140000D03*
X153834175Y-102814175D03*
X156485825Y-105465825D03*
X153285000Y-104140000D03*
X155160000Y-102265000D03*
D20*
X155160000Y-104140000D03*
D19*
X153834175Y-105465825D03*
%TD*%
D13*
%TO.C,R2*%
X142017500Y-91265000D03*
X142017500Y-92915000D03*
%TD*%
D21*
%TO.C,J1*%
X155900000Y-95300000D03*
D22*
X155900000Y-92760000D03*
X155900000Y-90220000D03*
X155900000Y-87680000D03*
X155900000Y-85140000D03*
X155900000Y-82600000D03*
X155900000Y-80060000D03*
X155900000Y-77520000D03*
%TD*%
D23*
%TO.C,U8*%
X131900000Y-72800000D03*
X130940000Y-72800000D03*
%TD*%
D24*
%TO.C,Q1*%
X145655000Y-59275000D03*
X147555000Y-59275000D03*
X146605000Y-57400000D03*
%TD*%
D19*
%TO.C,H1*%
X125870000Y-102245000D03*
X125870000Y-105995000D03*
X127195825Y-102794175D03*
X127195825Y-105445825D03*
X124544175Y-105445825D03*
X124544175Y-102794175D03*
X123995000Y-104120000D03*
D20*
X125870000Y-104120000D03*
D19*
X127745000Y-104120000D03*
%TD*%
D25*
%TO.C,U7*%
X131900000Y-74750000D03*
X131900000Y-78450000D03*
%TD*%
D21*
%TO.C,J2*%
X125100000Y-95300000D03*
D22*
X125100000Y-92760000D03*
X125100000Y-90220000D03*
X125100000Y-87680000D03*
X125100000Y-85140000D03*
X125100000Y-82600000D03*
X125100000Y-80060000D03*
X125100000Y-77520000D03*
%TD*%
D16*
%TO.C,U6*%
X146620000Y-93140000D03*
X146620000Y-92180000D03*
%TD*%
D18*
%TO.C,R9*%
X146514583Y-70270000D03*
X148339583Y-70270000D03*
%TD*%
D26*
%TO.C,D3*%
X142876666Y-67410000D03*
X142876666Y-63410000D03*
%TD*%
D16*
%TO.C,U3*%
X134800000Y-77780000D03*
X134800000Y-76820000D03*
%TD*%
D27*
%TO.C,R7*%
X137685000Y-92915000D03*
X137685000Y-91265000D03*
%TD*%
%TO.C,R8*%
X134700000Y-58225000D03*
X134700000Y-56575000D03*
%TD*%
D16*
%TO.C,U2*%
X142200000Y-73980000D03*
X142200000Y-73020000D03*
%TD*%
D28*
%TO.C,R3*%
X145770000Y-76060000D03*
X144750000Y-76060000D03*
%TD*%
D29*
%TO.C,U15*%
X150430000Y-57160000D03*
X150430000Y-59060000D03*
%TD*%
D30*
%TO.C,R11*%
X152190000Y-64242500D03*
X152190000Y-62417500D03*
%TD*%
D16*
%TO.C,U5*%
X138800000Y-73980000D03*
X138800000Y-73020000D03*
%TD*%
D31*
%TO.C,U12*%
X134760000Y-92180000D03*
X134760000Y-93140000D03*
%TD*%
D19*
%TO.C,H4*%
X156475825Y-55574175D03*
X155150000Y-58775000D03*
X153824175Y-55574175D03*
X153275000Y-56900000D03*
D20*
X155150000Y-56900000D03*
D19*
X157025000Y-56900000D03*
X153824175Y-58225825D03*
X155150000Y-55025000D03*
X156475825Y-58225825D03*
%TD*%
D32*
%TO.C,C1*%
X126200000Y-67962500D03*
X126200000Y-61737500D03*
%TD*%
D33*
%TO.C,STM32F30*%
X139494105Y-75612124D03*
X139140551Y-75965678D03*
X138786998Y-76319231D03*
X138433444Y-76672785D03*
X138079891Y-77026338D03*
X137726338Y-77379891D03*
X137372784Y-77733445D03*
X137019231Y-78086998D03*
X136665678Y-78440551D03*
X136312124Y-78794105D03*
X135958571Y-79147658D03*
X135605017Y-79501212D03*
D34*
X135605017Y-81498788D03*
X135958571Y-81852342D03*
X136312124Y-82205895D03*
X136665678Y-82559449D03*
X137019231Y-82913002D03*
X137372784Y-83266555D03*
X137726338Y-83620109D03*
X138079891Y-83973662D03*
X138433444Y-84327215D03*
X138786998Y-84680769D03*
X139140551Y-85034322D03*
X139494105Y-85387876D03*
D33*
X141491681Y-85387876D03*
X141845235Y-85034322D03*
X142198788Y-84680769D03*
X142552342Y-84327215D03*
X142905895Y-83973662D03*
X143259448Y-83620109D03*
X143613002Y-83266555D03*
X143966555Y-82913002D03*
X144320108Y-82559449D03*
X144673662Y-82205895D03*
X145027215Y-81852342D03*
X145380769Y-81498788D03*
D34*
X145380769Y-79501212D03*
X145027215Y-79147658D03*
X144673662Y-78794105D03*
X144320108Y-78440551D03*
X143966555Y-78086998D03*
X143613002Y-77733445D03*
X143259448Y-77379891D03*
X142905895Y-77026338D03*
X142552342Y-76672785D03*
X142198788Y-76319231D03*
X141845235Y-75965678D03*
X141491681Y-75612124D03*
%TD*%
D35*
%TO.C,U14*%
X146285000Y-67850000D03*
X147555000Y-67850000D03*
X148825000Y-67850000D03*
X150095000Y-67850000D03*
X150095000Y-62450000D03*
X148825000Y-62450000D03*
X147555000Y-62450000D03*
X146285000Y-62450000D03*
D36*
X148190000Y-65150000D03*
%TD*%
D21*
%TO.C,J4*%
X139217893Y-57400000D03*
D22*
X141757893Y-57400000D03*
%TD*%
D37*
%TO.C,D4*%
X136400000Y-58167500D03*
X136400000Y-56592500D03*
%TD*%
D31*
%TO.C,U4*%
X139700000Y-87020000D03*
X139700000Y-87980000D03*
%TD*%
D38*
%TO.C,D5*%
X127900000Y-70975000D03*
X124500000Y-70975000D03*
%TD*%
D39*
%TO.C,D2*%
X140380000Y-91302500D03*
X140380000Y-92877500D03*
%TD*%
D23*
%TO.C,U9*%
X131900000Y-80400000D03*
X130940000Y-80400000D03*
%TD*%
D39*
%TO.C,D1*%
X145252500Y-91302500D03*
X145252500Y-92877500D03*
%TD*%
D40*
%TO.C,U13*%
X144776666Y-70240000D03*
X142876666Y-70240000D03*
%TD*%
M02*
