%TF.GenerationSoftware,KiCad,Pcbnew,(6.0.8)*%
%TF.CreationDate,2022-12-02T21:09:01+01:00*%
%TF.ProjectId,mcudev,6d637564-6576-42e6-9b69-6361645f7063,rev?*%
%TF.SameCoordinates,Original*%
%TF.FileFunction,Legend,Top*%
%TF.FilePolarity,Positive*%
%FSLAX46Y46*%
G04 Gerber Fmt 4.6, Leading zero omitted, Abs format (unit mm)*
G04 Created by KiCad (PCBNEW (6.0.8)) date 2022-12-02 21:09:01*
%MOMM*%
%LPD*%
G01*
G04 APERTURE LIST*
%ADD10C,0.150000*%
%ADD11C,0.200000*%
%ADD12C,0.120000*%
G04 APERTURE END LIST*
D10*
X126914286Y-88132380D02*
X126914286Y-87132380D01*
X127295238Y-87132380D01*
X127390476Y-87180000D01*
X127438095Y-87227619D01*
X127485714Y-87322857D01*
X127485714Y-87465714D01*
X127438095Y-87560952D01*
X127390476Y-87608571D01*
X127295238Y-87656190D01*
X126914286Y-87656190D01*
X127866667Y-87846666D02*
X128342857Y-87846666D01*
X127771429Y-88132380D02*
X128104762Y-87132380D01*
X128438095Y-88132380D01*
X129247619Y-87132380D02*
X128771429Y-87132380D01*
X128723810Y-87608571D01*
X128771429Y-87560952D01*
X128866667Y-87513333D01*
X129104762Y-87513333D01*
X129200000Y-87560952D01*
X129247619Y-87608571D01*
X129295238Y-87703809D01*
X129295238Y-87941904D01*
X129247619Y-88037142D01*
X129200000Y-88084761D01*
X129104762Y-88132380D01*
X128866667Y-88132380D01*
X128771429Y-88084761D01*
X128723810Y-88037142D01*
D11*
X138626464Y-54867142D02*
X139769321Y-54867142D01*
D10*
X126914286Y-93212380D02*
X126914286Y-92212380D01*
X127295238Y-92212380D01*
X127390476Y-92260000D01*
X127438095Y-92307619D01*
X127485714Y-92402857D01*
X127485714Y-92545714D01*
X127438095Y-92640952D01*
X127390476Y-92688571D01*
X127295238Y-92736190D01*
X126914286Y-92736190D01*
X127866667Y-92926666D02*
X128342857Y-92926666D01*
X127771429Y-93212380D02*
X128104762Y-92212380D01*
X128438095Y-93212380D01*
X128676191Y-92212380D02*
X129342857Y-92212380D01*
X128914286Y-93212380D01*
X127438095Y-94800000D02*
X127342857Y-94752380D01*
X127200000Y-94752380D01*
X127057142Y-94800000D01*
X126961904Y-94895238D01*
X126914285Y-94990476D01*
X126866666Y-95180952D01*
X126866666Y-95323809D01*
X126914285Y-95514285D01*
X126961904Y-95609523D01*
X127057142Y-95704761D01*
X127200000Y-95752380D01*
X127295238Y-95752380D01*
X127438095Y-95704761D01*
X127485714Y-95657142D01*
X127485714Y-95323809D01*
X127295238Y-95323809D01*
X127914285Y-95752380D02*
X127914285Y-94752380D01*
X128485714Y-95752380D01*
X128485714Y-94752380D01*
X128961904Y-95752380D02*
X128961904Y-94752380D01*
X129200000Y-94752380D01*
X129342857Y-94800000D01*
X129438095Y-94895238D01*
X129485714Y-94990476D01*
X129533333Y-95180952D01*
X129533333Y-95323809D01*
X129485714Y-95514285D01*
X129438095Y-95609523D01*
X129342857Y-95704761D01*
X129200000Y-95752380D01*
X128961904Y-95752380D01*
X155049761Y-72828571D02*
X155097380Y-72685714D01*
X155097380Y-72447619D01*
X155049761Y-72352380D01*
X155002142Y-72304761D01*
X154906904Y-72257142D01*
X154811666Y-72257142D01*
X154716428Y-72304761D01*
X154668809Y-72352380D01*
X154621190Y-72447619D01*
X154573571Y-72638095D01*
X154525952Y-72733333D01*
X154478333Y-72780952D01*
X154383095Y-72828571D01*
X154287857Y-72828571D01*
X154192619Y-72780952D01*
X154145000Y-72733333D01*
X154097380Y-72638095D01*
X154097380Y-72400000D01*
X154145000Y-72257142D01*
X154097380Y-71971428D02*
X154097380Y-71400000D01*
X155097380Y-71685714D02*
X154097380Y-71685714D01*
X155097380Y-71066666D02*
X154097380Y-71066666D01*
X154811666Y-70733333D01*
X154097380Y-70400000D01*
X155097380Y-70400000D01*
X154097380Y-70019047D02*
X154097380Y-69400000D01*
X154478333Y-69733333D01*
X154478333Y-69590476D01*
X154525952Y-69495238D01*
X154573571Y-69447619D01*
X154668809Y-69400000D01*
X154906904Y-69400000D01*
X155002142Y-69447619D01*
X155049761Y-69495238D01*
X155097380Y-69590476D01*
X155097380Y-69876190D01*
X155049761Y-69971428D01*
X155002142Y-70019047D01*
X154192619Y-69019047D02*
X154145000Y-68971428D01*
X154097380Y-68876190D01*
X154097380Y-68638095D01*
X154145000Y-68542857D01*
X154192619Y-68495238D01*
X154287857Y-68447619D01*
X154383095Y-68447619D01*
X154525952Y-68495238D01*
X155097380Y-69066666D01*
X155097380Y-68447619D01*
X154573571Y-67685714D02*
X154573571Y-68019047D01*
X155097380Y-68019047D02*
X154097380Y-68019047D01*
X154097380Y-67542857D01*
X154097380Y-66971428D02*
X154097380Y-66876190D01*
X154145000Y-66780952D01*
X154192619Y-66733333D01*
X154287857Y-66685714D01*
X154478333Y-66638095D01*
X154716428Y-66638095D01*
X154906904Y-66685714D01*
X155002142Y-66733333D01*
X155049761Y-66780952D01*
X155097380Y-66876190D01*
X155097380Y-66971428D01*
X155049761Y-67066666D01*
X155002142Y-67114285D01*
X154906904Y-67161904D01*
X154716428Y-67209523D01*
X154478333Y-67209523D01*
X154287857Y-67161904D01*
X154192619Y-67114285D01*
X154145000Y-67066666D01*
X154097380Y-66971428D01*
X154716428Y-66209523D02*
X154716428Y-65447619D01*
X155049761Y-65019047D02*
X155097380Y-64876190D01*
X155097380Y-64638095D01*
X155049761Y-64542857D01*
X155002142Y-64495238D01*
X154906904Y-64447619D01*
X154811666Y-64447619D01*
X154716428Y-64495238D01*
X154668809Y-64542857D01*
X154621190Y-64638095D01*
X154573571Y-64828571D01*
X154525952Y-64923809D01*
X154478333Y-64971428D01*
X154383095Y-65019047D01*
X154287857Y-65019047D01*
X154192619Y-64971428D01*
X154145000Y-64923809D01*
X154097380Y-64828571D01*
X154097380Y-64590476D01*
X154145000Y-64447619D01*
X155097380Y-64019047D02*
X154097380Y-64019047D01*
X155097380Y-63542857D02*
X154097380Y-63542857D01*
X154811666Y-63209523D01*
X154097380Y-62876190D01*
X155097380Y-62876190D01*
X154525952Y-62257142D02*
X154478333Y-62352380D01*
X154430714Y-62400000D01*
X154335476Y-62447619D01*
X154287857Y-62447619D01*
X154192619Y-62400000D01*
X154145000Y-62352380D01*
X154097380Y-62257142D01*
X154097380Y-62066666D01*
X154145000Y-61971428D01*
X154192619Y-61923809D01*
X154287857Y-61876190D01*
X154335476Y-61876190D01*
X154430714Y-61923809D01*
X154478333Y-61971428D01*
X154525952Y-62066666D01*
X154525952Y-62257142D01*
X154573571Y-62352380D01*
X154621190Y-62400000D01*
X154716428Y-62447619D01*
X154906904Y-62447619D01*
X155002142Y-62400000D01*
X155049761Y-62352380D01*
X155097380Y-62257142D01*
X155097380Y-62066666D01*
X155049761Y-61971428D01*
X155002142Y-61923809D01*
X154906904Y-61876190D01*
X154716428Y-61876190D01*
X154621190Y-61923809D01*
X154573571Y-61971428D01*
X154525952Y-62066666D01*
X154097380Y-61257142D02*
X154097380Y-61161904D01*
X154145000Y-61066666D01*
X154192619Y-61019047D01*
X154287857Y-60971428D01*
X154478333Y-60923809D01*
X154716428Y-60923809D01*
X154906904Y-60971428D01*
X155002142Y-61019047D01*
X155049761Y-61066666D01*
X155097380Y-61161904D01*
X155097380Y-61257142D01*
X155049761Y-61352380D01*
X155002142Y-61400000D01*
X154906904Y-61447619D01*
X154716428Y-61495238D01*
X154478333Y-61495238D01*
X154287857Y-61447619D01*
X154192619Y-61400000D01*
X154145000Y-61352380D01*
X154097380Y-61257142D01*
X154525952Y-60352380D02*
X154478333Y-60447619D01*
X154430714Y-60495238D01*
X154335476Y-60542857D01*
X154287857Y-60542857D01*
X154192619Y-60495238D01*
X154145000Y-60447619D01*
X154097380Y-60352380D01*
X154097380Y-60161904D01*
X154145000Y-60066666D01*
X154192619Y-60019047D01*
X154287857Y-59971428D01*
X154335476Y-59971428D01*
X154430714Y-60019047D01*
X154478333Y-60066666D01*
X154525952Y-60161904D01*
X154525952Y-60352380D01*
X154573571Y-60447619D01*
X154621190Y-60495238D01*
X154716428Y-60542857D01*
X154906904Y-60542857D01*
X155002142Y-60495238D01*
X155049761Y-60447619D01*
X155097380Y-60352380D01*
X155097380Y-60161904D01*
X155049761Y-60066666D01*
X155002142Y-60019047D01*
X154906904Y-59971428D01*
X154716428Y-59971428D01*
X154621190Y-60019047D01*
X154573571Y-60066666D01*
X154525952Y-60161904D01*
X156707380Y-69471428D02*
X155707380Y-69471428D01*
X156707380Y-68852380D02*
X156659761Y-68947619D01*
X156612142Y-68995238D01*
X156516904Y-69042857D01*
X156231190Y-69042857D01*
X156135952Y-68995238D01*
X156088333Y-68947619D01*
X156040714Y-68852380D01*
X156040714Y-68709523D01*
X156088333Y-68614285D01*
X156135952Y-68566666D01*
X156231190Y-68519047D01*
X156516904Y-68519047D01*
X156612142Y-68566666D01*
X156659761Y-68614285D01*
X156707380Y-68709523D01*
X156707380Y-68852380D01*
X155707380Y-68233333D02*
X155707380Y-67661904D01*
X156707380Y-67947619D02*
X155707380Y-67947619D01*
X156707380Y-66566666D02*
X155707380Y-66566666D01*
X156707380Y-65995238D01*
X155707380Y-65995238D01*
X156707380Y-65376190D02*
X156659761Y-65471428D01*
X156612142Y-65519047D01*
X156516904Y-65566666D01*
X156231190Y-65566666D01*
X156135952Y-65519047D01*
X156088333Y-65471428D01*
X156040714Y-65376190D01*
X156040714Y-65233333D01*
X156088333Y-65138095D01*
X156135952Y-65090476D01*
X156231190Y-65042857D01*
X156516904Y-65042857D01*
X156612142Y-65090476D01*
X156659761Y-65138095D01*
X156707380Y-65233333D01*
X156707380Y-65376190D01*
X156707380Y-64185714D02*
X155707380Y-64185714D01*
X156659761Y-64185714D02*
X156707380Y-64280952D01*
X156707380Y-64471428D01*
X156659761Y-64566666D01*
X156612142Y-64614285D01*
X156516904Y-64661904D01*
X156231190Y-64661904D01*
X156135952Y-64614285D01*
X156088333Y-64566666D01*
X156040714Y-64471428D01*
X156040714Y-64280952D01*
X156088333Y-64185714D01*
X156659761Y-63328571D02*
X156707380Y-63423809D01*
X156707380Y-63614285D01*
X156659761Y-63709523D01*
X156564523Y-63757142D01*
X156183571Y-63757142D01*
X156088333Y-63709523D01*
X156040714Y-63614285D01*
X156040714Y-63423809D01*
X156088333Y-63328571D01*
X156183571Y-63280952D01*
X156278809Y-63280952D01*
X156374047Y-63757142D01*
X147965238Y-77904761D02*
X148108096Y-77952380D01*
X148346191Y-77952380D01*
X148441429Y-77904761D01*
X148489048Y-77857142D01*
X148536667Y-77761904D01*
X148536667Y-77666666D01*
X148489048Y-77571428D01*
X148441429Y-77523809D01*
X148346191Y-77476190D01*
X148155715Y-77428571D01*
X148060477Y-77380952D01*
X148012858Y-77333333D01*
X147965238Y-77238095D01*
X147965238Y-77142857D01*
X148012858Y-77047619D01*
X148060477Y-77000000D01*
X148155715Y-76952380D01*
X148393810Y-76952380D01*
X148536667Y-77000000D01*
X148965238Y-77952380D02*
X148965238Y-76952380D01*
X149441429Y-77952380D02*
X149441429Y-76952380D01*
X149774762Y-77666666D01*
X150108096Y-76952380D01*
X150108096Y-77952380D01*
X150346191Y-78047619D02*
X151108096Y-78047619D01*
X151346191Y-77952380D02*
X151346191Y-76952380D01*
X151727143Y-76952380D01*
X151822381Y-77000000D01*
X151870000Y-77047619D01*
X151917619Y-77142857D01*
X151917619Y-77285714D01*
X151870000Y-77380952D01*
X151822381Y-77428571D01*
X151727143Y-77476190D01*
X151346191Y-77476190D01*
X152250953Y-76952380D02*
X152489048Y-77952380D01*
X152679524Y-77238095D01*
X152870000Y-77952380D01*
X153108096Y-76952380D01*
X154060477Y-77952380D02*
X153727143Y-77476190D01*
X153489048Y-77952380D02*
X153489048Y-76952380D01*
X153870000Y-76952380D01*
X153965238Y-77000000D01*
X154012858Y-77047619D01*
X154060477Y-77142857D01*
X154060477Y-77285714D01*
X154012858Y-77380952D01*
X153965238Y-77428571D01*
X153870000Y-77476190D01*
X153489048Y-77476190D01*
X146584285Y-85524761D02*
X146727142Y-85572380D01*
X146965238Y-85572380D01*
X147060476Y-85524761D01*
X147108095Y-85477142D01*
X147155714Y-85381904D01*
X147155714Y-85286666D01*
X147108095Y-85191428D01*
X147060476Y-85143809D01*
X146965238Y-85096190D01*
X146774761Y-85048571D01*
X146679523Y-85000952D01*
X146631904Y-84953333D01*
X146584285Y-84858095D01*
X146584285Y-84762857D01*
X146631904Y-84667619D01*
X146679523Y-84620000D01*
X146774761Y-84572380D01*
X147012857Y-84572380D01*
X147155714Y-84620000D01*
X147584285Y-85572380D02*
X147584285Y-84572380D01*
X148060476Y-85572380D02*
X148060476Y-84572380D01*
X148393809Y-85286666D01*
X148727142Y-84572380D01*
X148727142Y-85572380D01*
X148965238Y-85667619D02*
X149727142Y-85667619D01*
X150536666Y-85572380D02*
X150203333Y-85096190D01*
X149965238Y-85572380D02*
X149965238Y-84572380D01*
X150346190Y-84572380D01*
X150441428Y-84620000D01*
X150489047Y-84667619D01*
X150536666Y-84762857D01*
X150536666Y-84905714D01*
X150489047Y-85000952D01*
X150441428Y-85048571D01*
X150346190Y-85096190D01*
X149965238Y-85096190D01*
X150965238Y-85048571D02*
X151298571Y-85048571D01*
X151441428Y-85572380D02*
X150965238Y-85572380D01*
X150965238Y-84572380D01*
X151441428Y-84572380D01*
X151822381Y-85524761D02*
X151965238Y-85572380D01*
X152203333Y-85572380D01*
X152298571Y-85524761D01*
X152346190Y-85477142D01*
X152393809Y-85381904D01*
X152393809Y-85286666D01*
X152346190Y-85191428D01*
X152298571Y-85143809D01*
X152203333Y-85096190D01*
X152012857Y-85048571D01*
X151917619Y-85000952D01*
X151870000Y-84953333D01*
X151822381Y-84858095D01*
X151822381Y-84762857D01*
X151870000Y-84667619D01*
X151917619Y-84620000D01*
X152012857Y-84572380D01*
X152250952Y-84572380D01*
X152393809Y-84620000D01*
X152822381Y-85048571D02*
X153155714Y-85048571D01*
X153298571Y-85572380D02*
X152822381Y-85572380D01*
X152822381Y-84572380D01*
X153298571Y-84572380D01*
X153584285Y-84572380D02*
X154155714Y-84572380D01*
X153870000Y-85572380D02*
X153870000Y-84572380D01*
X149393809Y-80444761D02*
X149536666Y-80492380D01*
X149774762Y-80492380D01*
X149870000Y-80444761D01*
X149917619Y-80397142D01*
X149965238Y-80301904D01*
X149965238Y-80206666D01*
X149917619Y-80111428D01*
X149870000Y-80063809D01*
X149774762Y-80016190D01*
X149584285Y-79968571D01*
X149489047Y-79920952D01*
X149441428Y-79873333D01*
X149393809Y-79778095D01*
X149393809Y-79682857D01*
X149441428Y-79587619D01*
X149489047Y-79540000D01*
X149584285Y-79492380D01*
X149822381Y-79492380D01*
X149965238Y-79540000D01*
X150393809Y-80492380D02*
X150393809Y-79492380D01*
X150870000Y-80492380D02*
X150870000Y-79492380D01*
X151203333Y-80206666D01*
X151536666Y-79492380D01*
X151536666Y-80492380D01*
X151774762Y-80587619D02*
X152536666Y-80587619D01*
X152631904Y-79492380D02*
X153203333Y-79492380D01*
X152917619Y-80492380D02*
X152917619Y-79492380D01*
X153441428Y-79492380D02*
X154108095Y-80492380D01*
X154108095Y-79492380D02*
X153441428Y-80492380D01*
X149155715Y-82984761D02*
X149298572Y-83032380D01*
X149536667Y-83032380D01*
X149631905Y-82984761D01*
X149679524Y-82937142D01*
X149727143Y-82841904D01*
X149727143Y-82746666D01*
X149679524Y-82651428D01*
X149631905Y-82603809D01*
X149536667Y-82556190D01*
X149346191Y-82508571D01*
X149250953Y-82460952D01*
X149203334Y-82413333D01*
X149155715Y-82318095D01*
X149155715Y-82222857D01*
X149203334Y-82127619D01*
X149250953Y-82080000D01*
X149346191Y-82032380D01*
X149584286Y-82032380D01*
X149727143Y-82080000D01*
X150155715Y-83032380D02*
X150155715Y-82032380D01*
X150631905Y-83032380D02*
X150631905Y-82032380D01*
X150965238Y-82746666D01*
X151298572Y-82032380D01*
X151298572Y-83032380D01*
X151536667Y-83127619D02*
X152298572Y-83127619D01*
X153108096Y-83032380D02*
X152774762Y-82556190D01*
X152536667Y-83032380D02*
X152536667Y-82032380D01*
X152917619Y-82032380D01*
X153012857Y-82080000D01*
X153060476Y-82127619D01*
X153108096Y-82222857D01*
X153108096Y-82365714D01*
X153060476Y-82460952D01*
X153012857Y-82508571D01*
X152917619Y-82556190D01*
X152536667Y-82556190D01*
X153441429Y-82032380D02*
X154108096Y-83032380D01*
X154108096Y-82032380D02*
X153441429Y-83032380D01*
X131444047Y-104852380D02*
X131444047Y-105661904D01*
X131491666Y-105757142D01*
X131539285Y-105804761D01*
X131634523Y-105852380D01*
X131824999Y-105852380D01*
X131920237Y-105804761D01*
X131967856Y-105757142D01*
X132015475Y-105661904D01*
X132015475Y-104852380D01*
X132444047Y-105804761D02*
X132586904Y-105852380D01*
X132824999Y-105852380D01*
X132920237Y-105804761D01*
X132967856Y-105757142D01*
X133015475Y-105661904D01*
X133015475Y-105566666D01*
X132967856Y-105471428D01*
X132920237Y-105423809D01*
X132824999Y-105376190D01*
X132634523Y-105328571D01*
X132539285Y-105280952D01*
X132491666Y-105233333D01*
X132444047Y-105138095D01*
X132444047Y-105042857D01*
X132491666Y-104947619D01*
X132539285Y-104900000D01*
X132634523Y-104852380D01*
X132872618Y-104852380D01*
X133015475Y-104900000D01*
X133444047Y-105328571D02*
X133777380Y-105328571D01*
X133920237Y-105852380D02*
X133444047Y-105852380D01*
X133444047Y-104852380D01*
X133920237Y-104852380D01*
X134920237Y-105852380D02*
X134586904Y-105376190D01*
X134348809Y-105852380D02*
X134348809Y-104852380D01*
X134729761Y-104852380D01*
X134824999Y-104900000D01*
X134872618Y-104947619D01*
X134920237Y-105042857D01*
X134920237Y-105185714D01*
X134872618Y-105280952D01*
X134824999Y-105328571D01*
X134729761Y-105376190D01*
X134348809Y-105376190D01*
X129745238Y-54422380D02*
X129269047Y-54422380D01*
X129221428Y-54898571D01*
X129269047Y-54850952D01*
X129364285Y-54803333D01*
X129602380Y-54803333D01*
X129697619Y-54850952D01*
X129745238Y-54898571D01*
X129792857Y-54993809D01*
X129792857Y-55231904D01*
X129745238Y-55327142D01*
X129697619Y-55374761D01*
X129602380Y-55422380D01*
X129364285Y-55422380D01*
X129269047Y-55374761D01*
X129221428Y-55327142D01*
X130221428Y-55327142D02*
X130269047Y-55374761D01*
X130221428Y-55422380D01*
X130173809Y-55374761D01*
X130221428Y-55327142D01*
X130221428Y-55422380D01*
X131173809Y-54422380D02*
X130697619Y-54422380D01*
X130650000Y-54898571D01*
X130697619Y-54850952D01*
X130792857Y-54803333D01*
X131030952Y-54803333D01*
X131126190Y-54850952D01*
X131173809Y-54898571D01*
X131221428Y-54993809D01*
X131221428Y-55231904D01*
X131173809Y-55327142D01*
X131126190Y-55374761D01*
X131030952Y-55422380D01*
X130792857Y-55422380D01*
X130697619Y-55374761D01*
X130650000Y-55327142D01*
X131507142Y-54422380D02*
X131840476Y-55422380D01*
X132173809Y-54422380D01*
X132507142Y-55041428D02*
X133269047Y-55041428D01*
X133697619Y-54517619D02*
X133745238Y-54470000D01*
X133840476Y-54422380D01*
X134078571Y-54422380D01*
X134173809Y-54470000D01*
X134221428Y-54517619D01*
X134269047Y-54612857D01*
X134269047Y-54708095D01*
X134221428Y-54850952D01*
X133650000Y-55422380D01*
X134269047Y-55422380D01*
X134888095Y-54422380D02*
X134983333Y-54422380D01*
X135078571Y-54470000D01*
X135126190Y-54517619D01*
X135173809Y-54612857D01*
X135221428Y-54803333D01*
X135221428Y-55041428D01*
X135173809Y-55231904D01*
X135126190Y-55327142D01*
X135078571Y-55374761D01*
X134983333Y-55422380D01*
X134888095Y-55422380D01*
X134792857Y-55374761D01*
X134745238Y-55327142D01*
X134697619Y-55231904D01*
X134650000Y-55041428D01*
X134650000Y-54803333D01*
X134697619Y-54612857D01*
X134745238Y-54517619D01*
X134792857Y-54470000D01*
X134888095Y-54422380D01*
X135507142Y-54422380D02*
X135840476Y-55422380D01*
X136173809Y-54422380D01*
X151965238Y-94780000D02*
X151870000Y-94732380D01*
X151727143Y-94732380D01*
X151584285Y-94780000D01*
X151489047Y-94875238D01*
X151441428Y-94970476D01*
X151393809Y-95160952D01*
X151393809Y-95303809D01*
X151441428Y-95494285D01*
X151489047Y-95589523D01*
X151584285Y-95684761D01*
X151727143Y-95732380D01*
X151822381Y-95732380D01*
X151965238Y-95684761D01*
X152012857Y-95637142D01*
X152012857Y-95303809D01*
X151822381Y-95303809D01*
X152441428Y-95732380D02*
X152441428Y-94732380D01*
X153012857Y-95732380D01*
X153012857Y-94732380D01*
X153489047Y-95732380D02*
X153489047Y-94732380D01*
X153727143Y-94732380D01*
X153870000Y-94780000D01*
X153965238Y-94875238D01*
X154012857Y-94970476D01*
X154060476Y-95160952D01*
X154060476Y-95303809D01*
X154012857Y-95494285D01*
X153965238Y-95589523D01*
X153870000Y-95684761D01*
X153727143Y-95732380D01*
X153489047Y-95732380D01*
X149822381Y-93144761D02*
X149965238Y-93192380D01*
X150203333Y-93192380D01*
X150298571Y-93144761D01*
X150346190Y-93097142D01*
X150393809Y-93001904D01*
X150393809Y-92906666D01*
X150346190Y-92811428D01*
X150298571Y-92763809D01*
X150203333Y-92716190D01*
X150012857Y-92668571D01*
X149917619Y-92620952D01*
X149870000Y-92573333D01*
X149822381Y-92478095D01*
X149822381Y-92382857D01*
X149870000Y-92287619D01*
X149917619Y-92240000D01*
X150012857Y-92192380D01*
X150250952Y-92192380D01*
X150393809Y-92240000D01*
X150727143Y-92192380D02*
X150965238Y-93192380D01*
X151155714Y-92478095D01*
X151346190Y-93192380D01*
X151584286Y-92192380D01*
X151965238Y-93192380D02*
X151965238Y-92192380D01*
X152203333Y-92192380D01*
X152346190Y-92240000D01*
X152441429Y-92335238D01*
X152489048Y-92430476D01*
X152536667Y-92620952D01*
X152536667Y-92763809D01*
X152489048Y-92954285D01*
X152441429Y-93049523D01*
X152346190Y-93144761D01*
X152203333Y-93192380D01*
X151965238Y-93192380D01*
X152965238Y-93192380D02*
X152965238Y-92192380D01*
X153631905Y-92192380D02*
X153822381Y-92192380D01*
X153917619Y-92240000D01*
X154012857Y-92335238D01*
X154060476Y-92525714D01*
X154060476Y-92859047D01*
X154012857Y-93049523D01*
X153917619Y-93144761D01*
X153822381Y-93192380D01*
X153631905Y-93192380D01*
X153536667Y-93144761D01*
X153441429Y-93049523D01*
X153393809Y-92859047D01*
X153393809Y-92525714D01*
X153441429Y-92335238D01*
X153536667Y-92240000D01*
X153631905Y-92192380D01*
X127485714Y-83052380D02*
X127152381Y-82576190D01*
X126914286Y-83052380D02*
X126914286Y-82052380D01*
X127295238Y-82052380D01*
X127390476Y-82100000D01*
X127438095Y-82147619D01*
X127485714Y-82242857D01*
X127485714Y-82385714D01*
X127438095Y-82480952D01*
X127390476Y-82528571D01*
X127295238Y-82576190D01*
X126914286Y-82576190D01*
X127819048Y-82052380D02*
X128485714Y-83052380D01*
X128485714Y-82052380D02*
X127819048Y-83052380D01*
X128819048Y-82147619D02*
X128866667Y-82100000D01*
X128961905Y-82052380D01*
X129200000Y-82052380D01*
X129295238Y-82100000D01*
X129342857Y-82147619D01*
X129390476Y-82242857D01*
X129390476Y-82338095D01*
X129342857Y-82480952D01*
X128771429Y-83052380D01*
X129390476Y-83052380D01*
X146389285Y-105852380D02*
X146055951Y-105376190D01*
X145817856Y-105852380D02*
X145817856Y-104852380D01*
X146198808Y-104852380D01*
X146294046Y-104900000D01*
X146341666Y-104947619D01*
X146389285Y-105042857D01*
X146389285Y-105185714D01*
X146341666Y-105280952D01*
X146294046Y-105328571D01*
X146198808Y-105376190D01*
X145817856Y-105376190D01*
X146817856Y-105328571D02*
X147151189Y-105328571D01*
X147294046Y-105852380D02*
X146817856Y-105852380D01*
X146817856Y-104852380D01*
X147294046Y-104852380D01*
X147674999Y-105804761D02*
X147817856Y-105852380D01*
X148055951Y-105852380D01*
X148151189Y-105804761D01*
X148198808Y-105757142D01*
X148246427Y-105661904D01*
X148246427Y-105566666D01*
X148198808Y-105471428D01*
X148151189Y-105423809D01*
X148055951Y-105376190D01*
X147865475Y-105328571D01*
X147770237Y-105280952D01*
X147722618Y-105233333D01*
X147674999Y-105138095D01*
X147674999Y-105042857D01*
X147722618Y-104947619D01*
X147770237Y-104900000D01*
X147865475Y-104852380D01*
X148103570Y-104852380D01*
X148246427Y-104900000D01*
X148674999Y-105328571D02*
X149008332Y-105328571D01*
X149151189Y-105852380D02*
X148674999Y-105852380D01*
X148674999Y-104852380D01*
X149151189Y-104852380D01*
X149436904Y-104852380D02*
X150008332Y-104852380D01*
X149722618Y-105852380D02*
X149722618Y-104852380D01*
D11*
X141148571Y-54860000D02*
X142291428Y-54860000D01*
X141720000Y-55393333D02*
X141720000Y-54326666D01*
D10*
X126823809Y-76972380D02*
X127442857Y-76972380D01*
X127109523Y-77353333D01*
X127252380Y-77353333D01*
X127347619Y-77400952D01*
X127395238Y-77448571D01*
X127442857Y-77543809D01*
X127442857Y-77781904D01*
X127395238Y-77877142D01*
X127347619Y-77924761D01*
X127252380Y-77972380D01*
X126966666Y-77972380D01*
X126871428Y-77924761D01*
X126823809Y-77877142D01*
X127871428Y-77877142D02*
X127919047Y-77924761D01*
X127871428Y-77972380D01*
X127823809Y-77924761D01*
X127871428Y-77877142D01*
X127871428Y-77972380D01*
X128776190Y-76972380D02*
X128585714Y-76972380D01*
X128490476Y-77020000D01*
X128442857Y-77067619D01*
X128347619Y-77210476D01*
X128300000Y-77400952D01*
X128300000Y-77781904D01*
X128347619Y-77877142D01*
X128395238Y-77924761D01*
X128490476Y-77972380D01*
X128680952Y-77972380D01*
X128776190Y-77924761D01*
X128823809Y-77877142D01*
X128871428Y-77781904D01*
X128871428Y-77543809D01*
X128823809Y-77448571D01*
X128776190Y-77400952D01*
X128680952Y-77353333D01*
X128490476Y-77353333D01*
X128395238Y-77400952D01*
X128347619Y-77448571D01*
X128300000Y-77543809D01*
X129157142Y-76972380D02*
X129490476Y-77972380D01*
X129823809Y-76972380D01*
X148536667Y-88064761D02*
X148679524Y-88112380D01*
X148917619Y-88112380D01*
X149012857Y-88064761D01*
X149060476Y-88017142D01*
X149108095Y-87921904D01*
X149108095Y-87826666D01*
X149060476Y-87731428D01*
X149012857Y-87683809D01*
X148917619Y-87636190D01*
X148727143Y-87588571D01*
X148631905Y-87540952D01*
X148584286Y-87493333D01*
X148536667Y-87398095D01*
X148536667Y-87302857D01*
X148584286Y-87207619D01*
X148631905Y-87160000D01*
X148727143Y-87112380D01*
X148965238Y-87112380D01*
X149108095Y-87160000D01*
X149441429Y-87112380D02*
X149679524Y-88112380D01*
X149870000Y-87398095D01*
X150060476Y-88112380D01*
X150298572Y-87112380D01*
X150679524Y-88112380D02*
X150679524Y-87112380D01*
X150917619Y-87112380D01*
X151060476Y-87160000D01*
X151155714Y-87255238D01*
X151203333Y-87350476D01*
X151250952Y-87540952D01*
X151250952Y-87683809D01*
X151203333Y-87874285D01*
X151155714Y-87969523D01*
X151060476Y-88064761D01*
X150917619Y-88112380D01*
X150679524Y-88112380D01*
X152250952Y-88017142D02*
X152203333Y-88064761D01*
X152060476Y-88112380D01*
X151965238Y-88112380D01*
X151822381Y-88064761D01*
X151727143Y-87969523D01*
X151679524Y-87874285D01*
X151631905Y-87683809D01*
X151631905Y-87540952D01*
X151679524Y-87350476D01*
X151727143Y-87255238D01*
X151822381Y-87160000D01*
X151965238Y-87112380D01*
X152060476Y-87112380D01*
X152203333Y-87160000D01*
X152250952Y-87207619D01*
X153155714Y-88112380D02*
X152679524Y-88112380D01*
X152679524Y-87112380D01*
X153489048Y-88112380D02*
X153489048Y-87112380D01*
X154060476Y-88112380D02*
X153631905Y-87540952D01*
X154060476Y-87112380D02*
X153489048Y-87683809D01*
X126771428Y-79512380D02*
X127342857Y-79512380D01*
X127057143Y-80512380D02*
X127057143Y-79512380D01*
X127580952Y-79512380D02*
X128247619Y-80512380D01*
X128247619Y-79512380D02*
X127580952Y-80512380D01*
X128580952Y-79607619D02*
X128628571Y-79560000D01*
X128723809Y-79512380D01*
X128961904Y-79512380D01*
X129057143Y-79560000D01*
X129104762Y-79607619D01*
X129152381Y-79702857D01*
X129152381Y-79798095D01*
X129104762Y-79940952D01*
X128533333Y-80512380D01*
X129152381Y-80512380D01*
X126914286Y-85592380D02*
X126914286Y-84592380D01*
X127295238Y-84592380D01*
X127390476Y-84640000D01*
X127438095Y-84687619D01*
X127485714Y-84782857D01*
X127485714Y-84925714D01*
X127438095Y-85020952D01*
X127390476Y-85068571D01*
X127295238Y-85116190D01*
X126914286Y-85116190D01*
X127866667Y-85306666D02*
X128342857Y-85306666D01*
X127771429Y-85592380D02*
X128104762Y-84592380D01*
X128438095Y-85592380D01*
X129200000Y-84925714D02*
X129200000Y-85592380D01*
X128961905Y-84544761D02*
X128723810Y-85259047D01*
X129342857Y-85259047D01*
X126914286Y-90672380D02*
X126914286Y-89672380D01*
X127295238Y-89672380D01*
X127390476Y-89720000D01*
X127438095Y-89767619D01*
X127485714Y-89862857D01*
X127485714Y-90005714D01*
X127438095Y-90100952D01*
X127390476Y-90148571D01*
X127295238Y-90196190D01*
X126914286Y-90196190D01*
X127866667Y-90386666D02*
X128342857Y-90386666D01*
X127771429Y-90672380D02*
X128104762Y-89672380D01*
X128438095Y-90672380D01*
X129200000Y-89672380D02*
X129009524Y-89672380D01*
X128914286Y-89720000D01*
X128866667Y-89767619D01*
X128771429Y-89910476D01*
X128723810Y-90100952D01*
X128723810Y-90481904D01*
X128771429Y-90577142D01*
X128819048Y-90624761D01*
X128914286Y-90672380D01*
X129104762Y-90672380D01*
X129200000Y-90624761D01*
X129247619Y-90577142D01*
X129295238Y-90481904D01*
X129295238Y-90243809D01*
X129247619Y-90148571D01*
X129200000Y-90100952D01*
X129104762Y-90053333D01*
X128914286Y-90053333D01*
X128819048Y-90100952D01*
X128771429Y-90148571D01*
X128723810Y-90243809D01*
X150727142Y-90652380D02*
X150727142Y-89652380D01*
X151298571Y-90652380D01*
X151298571Y-89652380D01*
X152346190Y-90652380D02*
X152012857Y-90176190D01*
X151774761Y-90652380D02*
X151774761Y-89652380D01*
X152155714Y-89652380D01*
X152250952Y-89700000D01*
X152298571Y-89747619D01*
X152346190Y-89842857D01*
X152346190Y-89985714D01*
X152298571Y-90080952D01*
X152250952Y-90128571D01*
X152155714Y-90176190D01*
X151774761Y-90176190D01*
X152727142Y-90604761D02*
X152870000Y-90652380D01*
X153108095Y-90652380D01*
X153203333Y-90604761D01*
X153250952Y-90557142D01*
X153298571Y-90461904D01*
X153298571Y-90366666D01*
X153250952Y-90271428D01*
X153203333Y-90223809D01*
X153108095Y-90176190D01*
X152917619Y-90128571D01*
X152822380Y-90080952D01*
X152774761Y-90033333D01*
X152727142Y-89938095D01*
X152727142Y-89842857D01*
X152774761Y-89747619D01*
X152822380Y-89700000D01*
X152917619Y-89652380D01*
X153155714Y-89652380D01*
X153298571Y-89700000D01*
X153584285Y-89652380D02*
X154155714Y-89652380D01*
X153870000Y-90652380D02*
X153870000Y-89652380D01*
D12*
%TO.C,U1*%
X137790000Y-87909420D02*
X137790000Y-88190580D01*
X138810000Y-87909420D02*
X138810000Y-88190580D01*
%TO.C,R6*%
X136610000Y-91852742D02*
X136610000Y-92327258D01*
X135565000Y-91852742D02*
X135565000Y-92327258D01*
%TO.C,L1*%
X140163333Y-71500000D02*
X136963333Y-71500000D01*
X129563333Y-60900000D02*
X132763333Y-60900000D01*
X132763333Y-71500000D02*
X129563333Y-71500000D01*
X136963333Y-60900000D02*
X140163333Y-60900000D01*
X140163333Y-60900000D02*
X140163333Y-71500000D01*
X129563333Y-71500000D02*
X129563333Y-60900000D01*
%TO.C,SW1*%
X151051666Y-104010000D02*
X151051666Y-103730000D01*
X144631666Y-99600000D02*
X144631666Y-102000000D01*
X151051666Y-97590000D02*
X144631666Y-97590000D01*
X144631666Y-103600000D02*
X144631666Y-104010000D01*
X151051666Y-98000000D02*
X151051666Y-97590000D01*
X144631666Y-97590000D02*
X144631666Y-98000000D01*
X151051666Y-102000000D02*
X151051666Y-99600000D01*
X144631666Y-104010000D02*
X151051666Y-104010000D01*
%TO.C,U11*%
X138652500Y-92767836D02*
X138652500Y-92552164D01*
X139372500Y-92767836D02*
X139372500Y-92552164D01*
%TO.C,R10*%
X150780436Y-69535000D02*
X151234564Y-69535000D01*
X150780436Y-71005000D02*
X151234564Y-71005000D01*
%TO.C,SW2*%
X136580000Y-104020000D02*
X136580000Y-103610000D01*
X136580000Y-98010000D02*
X136580000Y-97600000D01*
X130160000Y-104020000D02*
X136580000Y-104020000D01*
X136580000Y-102010000D02*
X136580000Y-99610000D01*
X130160000Y-103610000D02*
X130160000Y-104020000D01*
X136580000Y-97600000D02*
X130160000Y-97600000D01*
X130160000Y-97600000D02*
X130160000Y-97880000D01*
X130160000Y-99610000D02*
X130160000Y-102010000D01*
%TO.C,R1*%
X144137500Y-91852742D02*
X144137500Y-92327258D01*
X143092500Y-91852742D02*
X143092500Y-92327258D01*
%TO.C,R2*%
X142540000Y-91852742D02*
X142540000Y-92327258D01*
X141495000Y-91852742D02*
X141495000Y-92327258D01*
%TO.C,J1*%
X157230000Y-95300000D02*
X157230000Y-96630000D01*
X157230000Y-76190000D02*
X154570000Y-76190000D01*
X157230000Y-96630000D02*
X155900000Y-96630000D01*
X154570000Y-94030000D02*
X154570000Y-76190000D01*
X157230000Y-94030000D02*
X157230000Y-76190000D01*
X157230000Y-94030000D02*
X154570000Y-94030000D01*
%TO.C,U8*%
X131527836Y-72440000D02*
X131312164Y-72440000D01*
X131527836Y-73160000D02*
X131312164Y-73160000D01*
%TO.C,U7*%
X133700000Y-73550000D02*
X130100000Y-73550000D01*
X133700000Y-79300000D02*
X133700000Y-73550000D01*
X130100000Y-73550000D02*
X130100000Y-79300000D01*
%TO.C,J2*%
X126430000Y-94030000D02*
X123770000Y-94030000D01*
X123770000Y-94030000D02*
X123770000Y-76190000D01*
X126430000Y-95300000D02*
X126430000Y-96630000D01*
X126430000Y-76190000D02*
X123770000Y-76190000D01*
X126430000Y-96630000D02*
X125100000Y-96630000D01*
X126430000Y-94030000D02*
X126430000Y-76190000D01*
%TO.C,U6*%
X146980000Y-92767836D02*
X146980000Y-92552164D01*
X146260000Y-92767836D02*
X146260000Y-92552164D01*
%TO.C,R9*%
X147200019Y-69535000D02*
X147654147Y-69535000D01*
X147200019Y-71005000D02*
X147654147Y-71005000D01*
%TO.C,D3*%
X141226666Y-68810000D02*
X141226666Y-63410000D01*
X144526666Y-68810000D02*
X144526666Y-63410000D01*
X141226666Y-68810000D02*
X144526666Y-68810000D01*
%TO.C,U3*%
X135160000Y-77407836D02*
X135160000Y-77192164D01*
X134440000Y-77407836D02*
X134440000Y-77192164D01*
%TO.C,R7*%
X138207500Y-92327258D02*
X138207500Y-91852742D01*
X137162500Y-92327258D02*
X137162500Y-91852742D01*
%TO.C,R8*%
X135222500Y-57637258D02*
X135222500Y-57162742D01*
X134177500Y-57637258D02*
X134177500Y-57162742D01*
%TO.C,U2*%
X141840000Y-73607836D02*
X141840000Y-73392164D01*
X142560000Y-73607836D02*
X142560000Y-73392164D01*
%TO.C,R3*%
X145413641Y-75680000D02*
X145106359Y-75680000D01*
X145413641Y-76440000D02*
X145106359Y-76440000D01*
%TO.C,U15*%
X151165000Y-57848748D02*
X151165000Y-58371252D01*
X149695000Y-57848748D02*
X149695000Y-58371252D01*
%TO.C,R11*%
X152925000Y-63557064D02*
X152925000Y-63102936D01*
X151455000Y-63557064D02*
X151455000Y-63102936D01*
%TO.C,U5*%
X138440000Y-73607836D02*
X138440000Y-73392164D01*
X139160000Y-73607836D02*
X139160000Y-73392164D01*
%TO.C,U12*%
X135120000Y-92552164D02*
X135120000Y-92767836D01*
X134400000Y-92552164D02*
X134400000Y-92767836D01*
%TO.C,C1*%
X123940000Y-61200000D02*
X123940000Y-69260000D01*
X123940000Y-69260000D02*
X128460000Y-69260000D01*
X128460000Y-69260000D02*
X128460000Y-61200000D01*
%TO.C,STM32F30*%
X135387582Y-80500000D02*
X135705780Y-80181802D01*
X140811091Y-75712887D02*
X140492893Y-75394689D01*
X140174695Y-85287113D02*
X140492893Y-85605311D01*
X140174695Y-75712887D02*
X139262527Y-74800719D01*
X145280006Y-80181802D02*
X145598204Y-80500000D01*
X135705780Y-80818198D02*
X135387582Y-80500000D01*
X140492893Y-85605311D02*
X140811091Y-85287113D01*
X145598204Y-80500000D02*
X145280006Y-80818198D01*
X140492893Y-75394689D02*
X140174695Y-75712887D01*
D10*
%TO.C,U14*%
X150765000Y-63075000D02*
X150620000Y-63075000D01*
X145665000Y-67225000D02*
X145665000Y-68625000D01*
X145615000Y-67225000D02*
X145615000Y-63075000D01*
X150765000Y-67225000D02*
X150765000Y-63075000D01*
X145615000Y-67225000D02*
X145665000Y-67225000D01*
X150765000Y-67225000D02*
X150620000Y-67225000D01*
X145615000Y-63075000D02*
X145760000Y-63075000D01*
D12*
%TO.C,J4*%
X137887893Y-58730000D02*
X137887893Y-57400000D01*
X140487893Y-58730000D02*
X143087893Y-58730000D01*
X140487893Y-56070000D02*
X143087893Y-56070000D01*
X143087893Y-58730000D02*
X143087893Y-56070000D01*
X139217893Y-58730000D02*
X137887893Y-58730000D01*
X140487893Y-58730000D02*
X140487893Y-56070000D01*
%TO.C,D4*%
X137135000Y-58865000D02*
X137135000Y-56580000D01*
X135665000Y-58865000D02*
X137135000Y-58865000D01*
X135665000Y-56580000D02*
X135665000Y-58865000D01*
%TO.C,U4*%
X139340000Y-87392164D02*
X139340000Y-87607836D01*
X140060000Y-87392164D02*
X140060000Y-87607836D01*
%TO.C,D5*%
X128535000Y-71915000D02*
X124465000Y-71915000D01*
X128535000Y-70035000D02*
X124475000Y-70035000D01*
X128535000Y-71915000D02*
X128535000Y-70035000D01*
%TO.C,D2*%
X139645000Y-90605000D02*
X139645000Y-92890000D01*
X141115000Y-92890000D02*
X141115000Y-90605000D01*
X141115000Y-90605000D02*
X139645000Y-90605000D01*
%TO.C,U9*%
X131527836Y-80760000D02*
X131312164Y-80760000D01*
X131527836Y-80040000D02*
X131312164Y-80040000D01*
%TO.C,D1*%
X145987500Y-92890000D02*
X145987500Y-90605000D01*
X145987500Y-90605000D02*
X144517500Y-90605000D01*
X144517500Y-90605000D02*
X144517500Y-92890000D01*
%TO.C,U13*%
X144087918Y-69505000D02*
X143565414Y-69505000D01*
X144087918Y-70975000D02*
X143565414Y-70975000D01*
%TD*%
M02*
