M48
; DRILL file {KiCad (6.0.8)} date Fri Dec  2 21:14:30 2022
; FORMAT={-:-/ absolute / metric / decimal}
; #@! TF.CreationDate,2022-12-02T21:14:30+01:00
; #@! TF.GenerationSoftware,Kicad,Pcbnew,(6.0.8)
; #@! TF.FileFunction,Plated,1,2,PTH
FMAT,2
METRIC
; #@! TA.AperFunction,Plated,PTH,ViaDrill
T1C0.300
; #@! TA.AperFunction,Plated,PTH,ComponentDrill
T2C0.300
; #@! TA.AperFunction,Plated,PTH,ViaDrill
T3C0.400
; #@! TA.AperFunction,Plated,PTH,ComponentDrill
T4C0.400
; #@! TA.AperFunction,Plated,PTH,ComponentDrill
T5C0.500
; #@! TA.AperFunction,Plated,PTH,ComponentDrill
T6C1.000
; #@! TA.AperFunction,Plated,PTH,ComponentDrill
T7C2.200
; #@! TA.AperFunction,Plated,PTH,ComponentDrill
T8C2.500
%
G90
G05
T1
X132.51Y-100.98
X155.57Y-68.69
T2
X146.39Y-64.55
X146.39Y-65.75
X147.59Y-64.55
X147.59Y-65.75
X148.89Y-64.55
X148.89Y-65.75
X149.99Y-64.55
X149.99Y-65.75
T3
X130.04Y-72.79
X130.04Y-80.4
X131.35Y-95.3
X133.2Y-95.3
X134.2Y-96.5
X135.18Y-72.69
X137.3Y-95.3
X137.3Y-96.5
X139.0Y-80.7
X139.353Y-102.9
X140.19Y-77.57
X140.3Y-89.58
X140.57Y-81.85
X140.58Y-72.91
X141.37Y-82.78
X141.647Y-102.9
X141.882Y-95.3
X145.001Y-95.3
X146.12Y-74.77
X146.74Y-82.92
X148.52Y-89.58
X149.87Y-89.58
X149.88Y-73.84
X154.6Y-99.45
X155.78Y-74.74
T4
X123.95Y-56.6
X124.433Y-55.433
X124.433Y-57.767
X125.6Y-54.95
X125.6Y-58.25
X126.767Y-55.433
X126.767Y-57.767
X127.25Y-56.6
T5
X123.995Y-104.12
X124.544Y-102.794
X124.544Y-105.446
X125.87Y-102.245
X125.87Y-105.995
X127.196Y-102.794
X127.196Y-105.446
X127.745Y-104.12
X153.275Y-56.9
X153.285Y-104.14
X153.824Y-55.574
X153.824Y-58.226
X153.834Y-102.814
X153.834Y-105.466
X155.15Y-55.025
X155.15Y-58.775
X155.16Y-102.265
X155.16Y-106.015
X156.476Y-55.574
X156.476Y-58.226
X156.486Y-102.814
X156.486Y-105.466
X157.025Y-56.9
X157.035Y-104.14
T6
X125.1Y-77.52
X125.1Y-80.06
X125.1Y-82.6
X125.1Y-85.14
X125.1Y-87.68
X125.1Y-90.22
X125.1Y-92.76
X125.1Y-95.3
X139.218Y-57.4
X141.758Y-57.4
X155.9Y-77.52
X155.9Y-80.06
X155.9Y-82.6
X155.9Y-85.14
X155.9Y-87.68
X155.9Y-90.22
X155.9Y-92.76
X155.9Y-95.3
T7
X125.6Y-56.6
T8
X125.87Y-104.12
X155.15Y-56.9
X155.16Y-104.14
T0
M30
