%TF.GenerationSoftware,KiCad,Pcbnew,(6.0.8)*%
%TF.CreationDate,2022-12-02T21:09:01+01:00*%
%TF.ProjectId,mcudev,6d637564-6576-42e6-9b69-6361645f7063,rev?*%
%TF.SameCoordinates,Original*%
%TF.FileFunction,Legend,Bot*%
%TF.FilePolarity,Positive*%
%FSLAX46Y46*%
G04 Gerber Fmt 4.6, Leading zero omitted, Abs format (unit mm)*
G04 Created by KiCad (PCBNEW (6.0.8)) date 2022-12-02 21:09:01*
%MOMM*%
%LPD*%
G01*
G04 APERTURE LIST*
%ADD10C,0.150000*%
%ADD11C,0.120000*%
%ADD12C,0.127000*%
%ADD13C,0.200000*%
%ADD14C,0.152400*%
%ADD15C,0.254000*%
G04 APERTURE END LIST*
D10*
X137153333Y-58337380D02*
X137153333Y-57337380D01*
X136915238Y-57337380D01*
X136772380Y-57385000D01*
X136677142Y-57480238D01*
X136629523Y-57575476D01*
X136581904Y-57765952D01*
X136581904Y-57908809D01*
X136629523Y-58099285D01*
X136677142Y-58194523D01*
X136772380Y-58289761D01*
X136915238Y-58337380D01*
X137153333Y-58337380D01*
X135772380Y-58289761D02*
X135867619Y-58337380D01*
X136058095Y-58337380D01*
X136153333Y-58289761D01*
X136200952Y-58194523D01*
X136200952Y-57813571D01*
X136153333Y-57718333D01*
X136058095Y-57670714D01*
X135867619Y-57670714D01*
X135772380Y-57718333D01*
X135724761Y-57813571D01*
X135724761Y-57908809D01*
X136200952Y-58004047D01*
X135343809Y-58289761D02*
X135248571Y-58337380D01*
X135058095Y-58337380D01*
X134962857Y-58289761D01*
X134915238Y-58194523D01*
X134915238Y-58146904D01*
X134962857Y-58051666D01*
X135058095Y-58004047D01*
X135200952Y-58004047D01*
X135296190Y-57956428D01*
X135343809Y-57861190D01*
X135343809Y-57813571D01*
X135296190Y-57718333D01*
X135200952Y-57670714D01*
X135058095Y-57670714D01*
X134962857Y-57718333D01*
X134486666Y-58337380D02*
X134486666Y-57670714D01*
X134486666Y-57337380D02*
X134534285Y-57385000D01*
X134486666Y-57432619D01*
X134439047Y-57385000D01*
X134486666Y-57337380D01*
X134486666Y-57432619D01*
X133581904Y-57670714D02*
X133581904Y-58480238D01*
X133629523Y-58575476D01*
X133677142Y-58623095D01*
X133772380Y-58670714D01*
X133915238Y-58670714D01*
X134010476Y-58623095D01*
X133581904Y-58289761D02*
X133677142Y-58337380D01*
X133867619Y-58337380D01*
X133962857Y-58289761D01*
X134010476Y-58242142D01*
X134058095Y-58146904D01*
X134058095Y-57861190D01*
X134010476Y-57765952D01*
X133962857Y-57718333D01*
X133867619Y-57670714D01*
X133677142Y-57670714D01*
X133581904Y-57718333D01*
X133105714Y-57670714D02*
X133105714Y-58337380D01*
X133105714Y-57765952D02*
X133058095Y-57718333D01*
X132962857Y-57670714D01*
X132820000Y-57670714D01*
X132724761Y-57718333D01*
X132677142Y-57813571D01*
X132677142Y-58337380D01*
X131820000Y-58289761D02*
X131915238Y-58337380D01*
X132105714Y-58337380D01*
X132200952Y-58289761D01*
X132248571Y-58194523D01*
X132248571Y-57813571D01*
X132200952Y-57718333D01*
X132105714Y-57670714D01*
X131915238Y-57670714D01*
X131820000Y-57718333D01*
X131772380Y-57813571D01*
X131772380Y-57908809D01*
X132248571Y-58004047D01*
X130915238Y-58337380D02*
X130915238Y-57337380D01*
X130915238Y-58289761D02*
X131010476Y-58337380D01*
X131200952Y-58337380D01*
X131296190Y-58289761D01*
X131343809Y-58242142D01*
X131391428Y-58146904D01*
X131391428Y-57861190D01*
X131343809Y-57765952D01*
X131296190Y-57718333D01*
X131200952Y-57670714D01*
X131010476Y-57670714D01*
X130915238Y-57718333D01*
X129677142Y-58337380D02*
X129677142Y-57337380D01*
X129677142Y-57718333D02*
X129581904Y-57670714D01*
X129391428Y-57670714D01*
X129296190Y-57718333D01*
X129248571Y-57765952D01*
X129200952Y-57861190D01*
X129200952Y-58146904D01*
X129248571Y-58242142D01*
X129296190Y-58289761D01*
X129391428Y-58337380D01*
X129581904Y-58337380D01*
X129677142Y-58289761D01*
X128867619Y-57670714D02*
X128629523Y-58337380D01*
X128391428Y-57670714D02*
X128629523Y-58337380D01*
X128724761Y-58575476D01*
X128772380Y-58623095D01*
X128867619Y-58670714D01*
X139891428Y-59947380D02*
X139891428Y-58947380D01*
X139558095Y-59661666D01*
X139224761Y-58947380D01*
X139224761Y-59947380D01*
X138605714Y-59947380D02*
X138700952Y-59899761D01*
X138748571Y-59852142D01*
X138796190Y-59756904D01*
X138796190Y-59471190D01*
X138748571Y-59375952D01*
X138700952Y-59328333D01*
X138605714Y-59280714D01*
X138462857Y-59280714D01*
X138367619Y-59328333D01*
X138320000Y-59375952D01*
X138272380Y-59471190D01*
X138272380Y-59756904D01*
X138320000Y-59852142D01*
X138367619Y-59899761D01*
X138462857Y-59947380D01*
X138605714Y-59947380D01*
X137843809Y-59947380D02*
X137843809Y-58947380D01*
X137415238Y-59947380D02*
X137415238Y-59423571D01*
X137462857Y-59328333D01*
X137558095Y-59280714D01*
X137700952Y-59280714D01*
X137796190Y-59328333D01*
X137843809Y-59375952D01*
X136510476Y-59947380D02*
X136510476Y-59423571D01*
X136558095Y-59328333D01*
X136653333Y-59280714D01*
X136843809Y-59280714D01*
X136939047Y-59328333D01*
X136510476Y-59899761D02*
X136605714Y-59947380D01*
X136843809Y-59947380D01*
X136939047Y-59899761D01*
X136986666Y-59804523D01*
X136986666Y-59709285D01*
X136939047Y-59614047D01*
X136843809Y-59566428D01*
X136605714Y-59566428D01*
X136510476Y-59518809D01*
X136034285Y-59947380D02*
X136034285Y-59280714D01*
X136034285Y-59375952D02*
X135986666Y-59328333D01*
X135891428Y-59280714D01*
X135748571Y-59280714D01*
X135653333Y-59328333D01*
X135605714Y-59423571D01*
X135605714Y-59947380D01*
X135605714Y-59423571D02*
X135558095Y-59328333D01*
X135462857Y-59280714D01*
X135320000Y-59280714D01*
X135224761Y-59328333D01*
X135177142Y-59423571D01*
X135177142Y-59947380D01*
X134320000Y-59899761D02*
X134415238Y-59947380D01*
X134605714Y-59947380D01*
X134700952Y-59899761D01*
X134748571Y-59804523D01*
X134748571Y-59423571D01*
X134700952Y-59328333D01*
X134605714Y-59280714D01*
X134415238Y-59280714D01*
X134320000Y-59328333D01*
X134272380Y-59423571D01*
X134272380Y-59518809D01*
X134748571Y-59614047D01*
X133415238Y-59947380D02*
X133415238Y-58947380D01*
X133415238Y-59899761D02*
X133510476Y-59947380D01*
X133700952Y-59947380D01*
X133796190Y-59899761D01*
X133843809Y-59852142D01*
X133891428Y-59756904D01*
X133891428Y-59471190D01*
X133843809Y-59375952D01*
X133796190Y-59328333D01*
X133700952Y-59280714D01*
X133510476Y-59280714D01*
X133415238Y-59328333D01*
X131843809Y-59423571D02*
X131700952Y-59471190D01*
X131653333Y-59518809D01*
X131605714Y-59614047D01*
X131605714Y-59756904D01*
X131653333Y-59852142D01*
X131700952Y-59899761D01*
X131796190Y-59947380D01*
X132177142Y-59947380D01*
X132177142Y-58947380D01*
X131843809Y-58947380D01*
X131748571Y-58995000D01*
X131700952Y-59042619D01*
X131653333Y-59137857D01*
X131653333Y-59233095D01*
X131700952Y-59328333D01*
X131748571Y-59375952D01*
X131843809Y-59423571D01*
X132177142Y-59423571D01*
X131034285Y-59947380D02*
X131129523Y-59899761D01*
X131177142Y-59852142D01*
X131224761Y-59756904D01*
X131224761Y-59471190D01*
X131177142Y-59375952D01*
X131129523Y-59328333D01*
X131034285Y-59280714D01*
X130891428Y-59280714D01*
X130796190Y-59328333D01*
X130748571Y-59375952D01*
X130700952Y-59471190D01*
X130700952Y-59756904D01*
X130748571Y-59852142D01*
X130796190Y-59899761D01*
X130891428Y-59947380D01*
X131034285Y-59947380D01*
X129843809Y-59280714D02*
X129843809Y-59947380D01*
X130272380Y-59280714D02*
X130272380Y-59804523D01*
X130224761Y-59899761D01*
X130129523Y-59947380D01*
X129986666Y-59947380D01*
X129891428Y-59899761D01*
X129843809Y-59852142D01*
X129367619Y-59947380D02*
X129367619Y-58947380D01*
X129367619Y-59328333D02*
X129272380Y-59280714D01*
X129081904Y-59280714D01*
X128986666Y-59328333D01*
X128939047Y-59375952D01*
X128891428Y-59471190D01*
X128891428Y-59756904D01*
X128939047Y-59852142D01*
X128986666Y-59899761D01*
X129081904Y-59947380D01*
X129272380Y-59947380D01*
X129367619Y-59899761D01*
X128034285Y-59947380D02*
X128034285Y-59423571D01*
X128081904Y-59328333D01*
X128177142Y-59280714D01*
X128367619Y-59280714D01*
X128462857Y-59328333D01*
X128034285Y-59899761D02*
X128129523Y-59947380D01*
X128367619Y-59947380D01*
X128462857Y-59899761D01*
X128510476Y-59804523D01*
X128510476Y-59709285D01*
X128462857Y-59614047D01*
X128367619Y-59566428D01*
X128129523Y-59566428D01*
X128034285Y-59518809D01*
X127558095Y-59947380D02*
X127558095Y-58947380D01*
X127462857Y-59566428D02*
X127177142Y-59947380D01*
X127177142Y-59280714D02*
X127558095Y-59661666D01*
X126367619Y-59899761D02*
X126462857Y-59947380D01*
X126653333Y-59947380D01*
X126748571Y-59899761D01*
X126796190Y-59804523D01*
X126796190Y-59423571D01*
X126748571Y-59328333D01*
X126653333Y-59280714D01*
X126462857Y-59280714D01*
X126367619Y-59328333D01*
X126320000Y-59423571D01*
X126320000Y-59518809D01*
X126796190Y-59614047D01*
X125891428Y-59947380D02*
X125891428Y-59280714D01*
X125891428Y-59471190D02*
X125843809Y-59375952D01*
X125796190Y-59328333D01*
X125700952Y-59280714D01*
X125605714Y-59280714D01*
X144969047Y-68142380D02*
X144969047Y-68856666D01*
X145016666Y-68999523D01*
X145111904Y-69094761D01*
X145254761Y-69142380D01*
X145350000Y-69142380D01*
X144016666Y-69142380D02*
X144492857Y-69142380D01*
X144492857Y-68142380D01*
X143111904Y-69047142D02*
X143159523Y-69094761D01*
X143302380Y-69142380D01*
X143397619Y-69142380D01*
X143540476Y-69094761D01*
X143635714Y-68999523D01*
X143683333Y-68904285D01*
X143730952Y-68713809D01*
X143730952Y-68570952D01*
X143683333Y-68380476D01*
X143635714Y-68285238D01*
X143540476Y-68190000D01*
X143397619Y-68142380D01*
X143302380Y-68142380D01*
X143159523Y-68190000D01*
X143111904Y-68237619D01*
X142397619Y-68142380D02*
X142397619Y-68856666D01*
X142445238Y-68999523D01*
X142540476Y-69094761D01*
X142683333Y-69142380D01*
X142778571Y-69142380D01*
X141445238Y-69142380D02*
X141921428Y-69142380D01*
X141921428Y-68142380D01*
X140540476Y-69047142D02*
X140588095Y-69094761D01*
X140730952Y-69142380D01*
X140826190Y-69142380D01*
X140969047Y-69094761D01*
X141064285Y-68999523D01*
X141111904Y-68904285D01*
X141159523Y-68713809D01*
X141159523Y-68570952D01*
X141111904Y-68380476D01*
X141064285Y-68285238D01*
X140969047Y-68190000D01*
X140826190Y-68142380D01*
X140730952Y-68142380D01*
X140588095Y-68190000D01*
X140540476Y-68237619D01*
X139826190Y-68142380D02*
X139826190Y-68856666D01*
X139873809Y-68999523D01*
X139969047Y-69094761D01*
X140111904Y-69142380D01*
X140207142Y-69142380D01*
X138873809Y-69142380D02*
X139350000Y-69142380D01*
X139350000Y-68142380D01*
X137969047Y-69047142D02*
X138016666Y-69094761D01*
X138159523Y-69142380D01*
X138254761Y-69142380D01*
X138397619Y-69094761D01*
X138492857Y-68999523D01*
X138540476Y-68904285D01*
X138588095Y-68713809D01*
X138588095Y-68570952D01*
X138540476Y-68380476D01*
X138492857Y-68285238D01*
X138397619Y-68190000D01*
X138254761Y-68142380D01*
X138159523Y-68142380D01*
X138016666Y-68190000D01*
X137969047Y-68237619D01*
X137254761Y-68142380D02*
X137254761Y-68856666D01*
X137302380Y-68999523D01*
X137397619Y-69094761D01*
X137540476Y-69142380D01*
X137635714Y-69142380D01*
X136302380Y-69142380D02*
X136778571Y-69142380D01*
X136778571Y-68142380D01*
X135397619Y-69047142D02*
X135445238Y-69094761D01*
X135588095Y-69142380D01*
X135683333Y-69142380D01*
X135826190Y-69094761D01*
X135921428Y-68999523D01*
X135969047Y-68904285D01*
X136016666Y-68713809D01*
X136016666Y-68570952D01*
X135969047Y-68380476D01*
X135921428Y-68285238D01*
X135826190Y-68190000D01*
X135683333Y-68142380D01*
X135588095Y-68142380D01*
X135445238Y-68190000D01*
X135397619Y-68237619D01*
X132222023Y-98369761D02*
X132079166Y-98417380D01*
X131841071Y-98417380D01*
X131745833Y-98369761D01*
X131698214Y-98322142D01*
X131650595Y-98226904D01*
X131650595Y-98131666D01*
X131698214Y-98036428D01*
X131745833Y-97988809D01*
X131841071Y-97941190D01*
X132031547Y-97893571D01*
X132126785Y-97845952D01*
X132174404Y-97798333D01*
X132222023Y-97703095D01*
X132222023Y-97607857D01*
X132174404Y-97512619D01*
X132126785Y-97465000D01*
X132031547Y-97417380D01*
X131793452Y-97417380D01*
X131650595Y-97465000D01*
X131222023Y-98417380D02*
X131222023Y-97417380D01*
X130745833Y-98417380D02*
X130745833Y-97417380D01*
X130412500Y-98131666D01*
X130079166Y-97417380D01*
X130079166Y-98417380D01*
X128269642Y-98322142D02*
X128317261Y-98369761D01*
X128460119Y-98417380D01*
X128555357Y-98417380D01*
X128698214Y-98369761D01*
X128793452Y-98274523D01*
X128841071Y-98179285D01*
X128888690Y-97988809D01*
X128888690Y-97845952D01*
X128841071Y-97655476D01*
X128793452Y-97560238D01*
X128698214Y-97465000D01*
X128555357Y-97417380D01*
X128460119Y-97417380D01*
X128317261Y-97465000D01*
X128269642Y-97512619D01*
X127888690Y-98131666D02*
X127412500Y-98131666D01*
X127983928Y-98417380D02*
X127650595Y-97417380D01*
X127317261Y-98417380D01*
X126412500Y-98417380D02*
X126745833Y-97941190D01*
X126983928Y-98417380D02*
X126983928Y-97417380D01*
X126602976Y-97417380D01*
X126507738Y-97465000D01*
X126460119Y-97512619D01*
X126412500Y-97607857D01*
X126412500Y-97750714D01*
X126460119Y-97845952D01*
X126507738Y-97893571D01*
X126602976Y-97941190D01*
X126983928Y-97941190D01*
X125983928Y-98417380D02*
X125983928Y-97417380D01*
X125745833Y-97417380D01*
X125602976Y-97465000D01*
X125507738Y-97560238D01*
X125460119Y-97655476D01*
X125412500Y-97845952D01*
X125412500Y-97988809D01*
X125460119Y-98179285D01*
X125507738Y-98274523D01*
X125602976Y-98369761D01*
X125745833Y-98417380D01*
X125983928Y-98417380D01*
X132174404Y-100027380D02*
X132174404Y-99027380D01*
X132174404Y-99503571D02*
X131602976Y-99503571D01*
X131602976Y-100027380D02*
X131602976Y-99027380D01*
X130983928Y-100027380D02*
X131079166Y-99979761D01*
X131126785Y-99932142D01*
X131174404Y-99836904D01*
X131174404Y-99551190D01*
X131126785Y-99455952D01*
X131079166Y-99408333D01*
X130983928Y-99360714D01*
X130841071Y-99360714D01*
X130745833Y-99408333D01*
X130698214Y-99455952D01*
X130650595Y-99551190D01*
X130650595Y-99836904D01*
X130698214Y-99932142D01*
X130745833Y-99979761D01*
X130841071Y-100027380D01*
X130983928Y-100027380D01*
X130079166Y-100027380D02*
X130174404Y-99979761D01*
X130222023Y-99884523D01*
X130222023Y-99027380D01*
X129269642Y-100027380D02*
X129269642Y-99027380D01*
X129269642Y-99979761D02*
X129364880Y-100027380D01*
X129555357Y-100027380D01*
X129650595Y-99979761D01*
X129698214Y-99932142D01*
X129745833Y-99836904D01*
X129745833Y-99551190D01*
X129698214Y-99455952D01*
X129650595Y-99408333D01*
X129555357Y-99360714D01*
X129364880Y-99360714D01*
X129269642Y-99408333D01*
X128412500Y-99979761D02*
X128507738Y-100027380D01*
X128698214Y-100027380D01*
X128793452Y-99979761D01*
X128841071Y-99884523D01*
X128841071Y-99503571D01*
X128793452Y-99408333D01*
X128698214Y-99360714D01*
X128507738Y-99360714D01*
X128412500Y-99408333D01*
X128364880Y-99503571D01*
X128364880Y-99598809D01*
X128841071Y-99694047D01*
X127936309Y-100027380D02*
X127936309Y-99360714D01*
X127936309Y-99551190D02*
X127888690Y-99455952D01*
X127841071Y-99408333D01*
X127745833Y-99360714D01*
X127650595Y-99360714D01*
%TO.C,GPS1*%
X130731380Y-92548669D02*
X130807697Y-92510510D01*
X130922173Y-92510510D01*
X131036649Y-92548669D01*
X131112966Y-92624986D01*
X131151125Y-92701303D01*
X131189283Y-92853938D01*
X131189283Y-92968414D01*
X131151125Y-93121048D01*
X131112966Y-93197366D01*
X131036649Y-93273683D01*
X130922173Y-93311841D01*
X130845856Y-93311841D01*
X130731380Y-93273683D01*
X130693221Y-93235524D01*
X130693221Y-92968414D01*
X130845856Y-92968414D01*
X130349794Y-93311841D02*
X130349794Y-92510510D01*
X130044525Y-92510510D01*
X129968208Y-92548669D01*
X129930049Y-92586828D01*
X129891890Y-92663145D01*
X129891890Y-92777621D01*
X129930049Y-92853938D01*
X129968208Y-92892097D01*
X130044525Y-92930255D01*
X130349794Y-92930255D01*
X129586621Y-93273683D02*
X129472146Y-93311841D01*
X129281352Y-93311841D01*
X129205035Y-93273683D01*
X129166877Y-93235524D01*
X129128718Y-93159207D01*
X129128718Y-93082890D01*
X129166877Y-93006572D01*
X129205035Y-92968414D01*
X129281352Y-92930255D01*
X129433987Y-92892097D01*
X129510304Y-92853938D01*
X129548463Y-92815779D01*
X129586621Y-92739462D01*
X129586621Y-92663145D01*
X129548463Y-92586828D01*
X129510304Y-92548669D01*
X129433987Y-92510510D01*
X129243194Y-92510510D01*
X129128718Y-92548669D01*
X128365546Y-93311841D02*
X128823449Y-93311841D01*
X128594497Y-93311841D02*
X128594497Y-92510510D01*
X128670815Y-92624986D01*
X128747132Y-92701303D01*
X128823449Y-92739462D01*
%TO.C,GSM1*%
X151301203Y-56469334D02*
X151377520Y-56431175D01*
X151491996Y-56431175D01*
X151606472Y-56469334D01*
X151682789Y-56545651D01*
X151720948Y-56621968D01*
X151759106Y-56774603D01*
X151759106Y-56889079D01*
X151720948Y-57041713D01*
X151682789Y-57118031D01*
X151606472Y-57194348D01*
X151491996Y-57232506D01*
X151415679Y-57232506D01*
X151301203Y-57194348D01*
X151263044Y-57156189D01*
X151263044Y-56889079D01*
X151415679Y-56889079D01*
X150957775Y-57194348D02*
X150843299Y-57232506D01*
X150652506Y-57232506D01*
X150576189Y-57194348D01*
X150538031Y-57156189D01*
X150499872Y-57079872D01*
X150499872Y-57003555D01*
X150538031Y-56927237D01*
X150576189Y-56889079D01*
X150652506Y-56850920D01*
X150805141Y-56812762D01*
X150881458Y-56774603D01*
X150919617Y-56736444D01*
X150957775Y-56660127D01*
X150957775Y-56583810D01*
X150919617Y-56507493D01*
X150881458Y-56469334D01*
X150805141Y-56431175D01*
X150614348Y-56431175D01*
X150499872Y-56469334D01*
X150156444Y-57232506D02*
X150156444Y-56431175D01*
X149889334Y-57003555D01*
X149622224Y-56431175D01*
X149622224Y-57232506D01*
X148820893Y-57232506D02*
X149278796Y-57232506D01*
X149049844Y-57232506D02*
X149049844Y-56431175D01*
X149126162Y-56545651D01*
X149202479Y-56621968D01*
X149278796Y-56660127D01*
D11*
%TO.C,U21*%
X155152164Y-70060000D02*
X155367836Y-70060000D01*
X155152164Y-69340000D02*
X155367836Y-69340000D01*
D12*
%TO.C,GPS1*%
X128317500Y-90837500D02*
X128317500Y-90287500D01*
X128317500Y-88787500D02*
X128317500Y-88237500D01*
X131157500Y-90837500D02*
X131157500Y-88237500D01*
D10*
X127312500Y-89537500D02*
G75*
G03*
X127312500Y-89537500I-75000J0D01*
G01*
D12*
%TO.C,U16*%
X128125000Y-61625000D02*
X128125000Y-65080000D01*
X152275000Y-85775000D02*
X152275000Y-82320000D01*
X128125000Y-82320000D02*
X128125000Y-85775000D01*
X152275000Y-61625000D02*
X148820000Y-61625000D01*
X148820000Y-85775000D02*
X152275000Y-85775000D01*
X152275000Y-65080000D02*
X152275000Y-61625000D01*
X131580000Y-61625000D02*
X128125000Y-61625000D01*
X128125000Y-85775000D02*
X131580000Y-85775000D01*
D13*
X154300000Y-65700000D02*
G75*
G03*
X154300000Y-65700000I-100000J0D01*
G01*
D11*
%TO.C,U17*%
X152710000Y-87959420D02*
X152710000Y-88240580D01*
X151690000Y-87959420D02*
X151690000Y-88240580D01*
%TO.C,U19*%
X137507500Y-88482164D02*
X137507500Y-88697836D01*
X136787500Y-88482164D02*
X136787500Y-88697836D01*
D14*
%TO.C,U23*%
X153500000Y-98716000D02*
X153500000Y-100076000D01*
X151300000Y-100076000D02*
X151300000Y-98716000D01*
D15*
%TO.C,P1*%
X133586500Y-102601000D02*
X132900500Y-102601000D01*
X132900500Y-103480000D02*
X132900500Y-105512000D01*
X149121500Y-91170000D02*
X149121500Y-94180000D01*
X149161500Y-102060000D02*
X149161500Y-105740000D01*
X132991500Y-91210000D02*
X136899500Y-91210000D01*
X132900500Y-105462000D02*
X132901500Y-105720000D01*
X133586500Y-94199000D02*
X132900500Y-94199000D01*
X132911500Y-105750000D02*
X136931500Y-105750000D01*
X133586500Y-94199000D02*
X133586500Y-102601000D01*
X132900500Y-91210000D02*
X132900500Y-94199000D01*
X132900500Y-102601000D02*
X132900500Y-103480000D01*
X139081500Y-105750000D02*
X149141500Y-105750000D01*
X133586500Y-94199000D02*
X133586500Y-102601000D01*
X139057500Y-91170000D02*
X149121500Y-91170000D01*
D11*
%TO.C,U22*%
X155152164Y-70340000D02*
X155367836Y-70340000D01*
X155152164Y-71060000D02*
X155367836Y-71060000D01*
%TO.C,R5*%
X134820000Y-88446359D02*
X134820000Y-88753641D01*
X135580000Y-88446359D02*
X135580000Y-88753641D01*
%TO.C,U18*%
X150040000Y-95633164D02*
X150040000Y-95848836D01*
X150760000Y-95633164D02*
X150760000Y-95848836D01*
D12*
%TO.C,GSM1*%
X147500000Y-55442500D02*
X144900000Y-55442500D01*
X145450000Y-58282500D02*
X144900000Y-58282500D01*
X147500000Y-58282500D02*
X146950000Y-58282500D01*
D10*
X146275000Y-59362500D02*
G75*
G03*
X146275000Y-59362500I-75000J0D01*
G01*
D11*
%TO.C,R13*%
X155126359Y-71320000D02*
X155433641Y-71320000D01*
X155126359Y-72080000D02*
X155433641Y-72080000D01*
%TO.C,U20*%
X154670000Y-66561252D02*
X154670000Y-65138748D01*
X156490000Y-66561252D02*
X156490000Y-65138748D01*
%TO.C,R12*%
X136580000Y-88446359D02*
X136580000Y-88753641D01*
X135820000Y-88446359D02*
X135820000Y-88753641D01*
%TO.C,R4*%
X134580000Y-88446359D02*
X134580000Y-88753641D01*
X133820000Y-88446359D02*
X133820000Y-88753641D01*
%TD*%
M02*
