%TF.GenerationSoftware,KiCad,Pcbnew,(6.0.8)*%
%TF.CreationDate,2022-12-02T21:09:01+01:00*%
%TF.ProjectId,mcudev,6d637564-6576-42e6-9b69-6361645f7063,rev?*%
%TF.SameCoordinates,Original*%
%TF.FileFunction,Paste,Bot*%
%TF.FilePolarity,Positive*%
%FSLAX46Y46*%
G04 Gerber Fmt 4.6, Leading zero omitted, Abs format (unit mm)*
G04 Created by KiCad (PCBNEW (6.0.8)) date 2022-12-02 21:09:01*
%MOMM*%
%LPD*%
G01*
G04 APERTURE LIST*
G04 Aperture macros list*
%AMRoundRect*
0 Rectangle with rounded corners*
0 $1 Rounding radius*
0 $2 $3 $4 $5 $6 $7 $8 $9 X,Y pos of 4 corners*
0 Add a 4 corners polygon primitive as box body*
4,1,4,$2,$3,$4,$5,$6,$7,$8,$9,$2,$3,0*
0 Add four circle primitives for the rounded corners*
1,1,$1+$1,$2,$3*
1,1,$1+$1,$4,$5*
1,1,$1+$1,$6,$7*
1,1,$1+$1,$8,$9*
0 Add four rect primitives between the rounded corners*
20,1,$1+$1,$2,$3,$4,$5,0*
20,1,$1+$1,$4,$5,$6,$7,0*
20,1,$1+$1,$6,$7,$8,$9,0*
20,1,$1+$1,$8,$9,$2,$3,0*%
G04 Aperture macros list end*
%ADD10RoundRect,0.140000X-0.140000X-0.170000X0.140000X-0.170000X0.140000X0.170000X-0.140000X0.170000X0*%
%ADD11R,1.050000X1.000000*%
%ADD12R,2.200000X1.050000*%
%ADD13O,1.600000X0.600000*%
%ADD14O,0.600000X1.600000*%
%ADD15RoundRect,0.225000X-0.250000X0.225000X-0.250000X-0.225000X0.250000X-0.225000X0.250000X0.225000X0*%
%ADD16RoundRect,0.140000X-0.170000X0.140000X-0.170000X-0.140000X0.170000X-0.140000X0.170000X0.140000X0*%
%ADD17RoundRect,0.039000X0.156000X-0.491000X0.156000X0.491000X-0.156000X0.491000X-0.156000X-0.491000X0*%
%ADD18R,1.700000X1.500000*%
%ADD19R,1.200000X1.000000*%
%ADD20RoundRect,0.135000X-0.185000X0.135000X-0.185000X-0.135000X0.185000X-0.135000X0.185000X0.135000X0*%
%ADD21R,1.000000X1.050000*%
%ADD22R,1.050000X2.200000*%
%ADD23RoundRect,0.135000X-0.135000X-0.185000X0.135000X-0.185000X0.135000X0.185000X-0.135000X0.185000X0*%
%ADD24RoundRect,0.250000X0.650000X-0.325000X0.650000X0.325000X-0.650000X0.325000X-0.650000X-0.325000X0*%
G04 APERTURE END LIST*
D10*
%TO.C,U21*%
X154780000Y-69700000D03*
X155740000Y-69700000D03*
%TD*%
D11*
%TO.C,GPS1*%
X128212500Y-89537500D03*
D12*
X129737500Y-91012500D03*
X129737500Y-88062500D03*
%TD*%
D13*
%TO.C,U16*%
X152200000Y-65700000D03*
X152200000Y-66700000D03*
X152200000Y-67700000D03*
X152200000Y-68700000D03*
X152200000Y-69700000D03*
X152200000Y-70700000D03*
X152200000Y-71700000D03*
X152200000Y-72700000D03*
X152200000Y-73700000D03*
X152200000Y-74700000D03*
X152200000Y-75700000D03*
X152200000Y-76700000D03*
X152200000Y-77700000D03*
X152200000Y-78700000D03*
X152200000Y-79700000D03*
X152200000Y-80700000D03*
X152200000Y-81700000D03*
D14*
X148200000Y-85700000D03*
X147200000Y-85700000D03*
X146200000Y-85700000D03*
X145200000Y-85700000D03*
X144200000Y-85700000D03*
X143200000Y-85700000D03*
X142200000Y-85700000D03*
X141200000Y-85700000D03*
X140200000Y-85700000D03*
X139200000Y-85700000D03*
X138200000Y-85700000D03*
X137200000Y-85700000D03*
X136200000Y-85700000D03*
X135200000Y-85700000D03*
X134200000Y-85700000D03*
X133200000Y-85700000D03*
X132200000Y-85700000D03*
D13*
X128200000Y-81700000D03*
X128200000Y-80700000D03*
X128200000Y-79700000D03*
X128200000Y-78700000D03*
X128200000Y-77700000D03*
X128200000Y-76700000D03*
X128200000Y-75700000D03*
X128200000Y-74700000D03*
X128200000Y-73700000D03*
X128200000Y-72700000D03*
X128200000Y-71700000D03*
X128200000Y-70700000D03*
X128200000Y-69700000D03*
X128200000Y-68700000D03*
X128200000Y-67700000D03*
X128200000Y-66700000D03*
X128200000Y-65700000D03*
D14*
X132200000Y-61700000D03*
X133200000Y-61700000D03*
X134200000Y-61700000D03*
X135200000Y-61700000D03*
X136200000Y-61700000D03*
X137200000Y-61700000D03*
X138200000Y-61700000D03*
X139200000Y-61700000D03*
X140200000Y-61700000D03*
X141200000Y-61700000D03*
X142200000Y-61700000D03*
X143200000Y-61700000D03*
X144200000Y-61700000D03*
X145200000Y-61700000D03*
X146200000Y-61700000D03*
X147200000Y-61700000D03*
X148200000Y-61700000D03*
%TD*%
D15*
%TO.C,U17*%
X152200000Y-87325000D03*
X152200000Y-88875000D03*
%TD*%
D16*
%TO.C,U19*%
X137147500Y-88110000D03*
X137147500Y-89070000D03*
%TD*%
D17*
%TO.C,U23*%
X153050000Y-100331000D03*
X152400000Y-100331000D03*
X151750000Y-100331000D03*
X151750000Y-98461000D03*
X152400000Y-98461000D03*
X153050000Y-98461000D03*
%TD*%
D18*
%TO.C,P1*%
X137976500Y-105600000D03*
X137976500Y-91200000D03*
D19*
X148826500Y-96221000D03*
X148826500Y-98761000D03*
X148826500Y-101301000D03*
X148826500Y-94951000D03*
X148826500Y-97491000D03*
X148826500Y-100031000D03*
%TD*%
D10*
%TO.C,U22*%
X154780000Y-70700000D03*
X155740000Y-70700000D03*
%TD*%
D20*
%TO.C,R5*%
X135200000Y-88090000D03*
X135200000Y-89110000D03*
%TD*%
D16*
%TO.C,U18*%
X150400000Y-95261000D03*
X150400000Y-96221000D03*
%TD*%
D21*
%TO.C,GSM1*%
X146200000Y-58387500D03*
D22*
X147675000Y-56862500D03*
X144725000Y-56862500D03*
%TD*%
D23*
%TO.C,R13*%
X154770000Y-71700000D03*
X155790000Y-71700000D03*
%TD*%
D24*
%TO.C,U20*%
X155580000Y-67325000D03*
X155580000Y-64375000D03*
%TD*%
D20*
%TO.C,R12*%
X136200000Y-88090000D03*
X136200000Y-89110000D03*
%TD*%
%TO.C,R4*%
X134200000Y-88090000D03*
X134200000Y-89110000D03*
%TD*%
M02*
